<?xml version="1.0" encoding="UTF-8"?>
<svg id="Design" xmlns="http://www.w3.org/2000/svg" xmlns:xlink="http://www.w3.org/1999/xlink" viewBox="0 0 566.93 283.46">
  <defs>
    <style>
      .cls-1 {
        fill: #8dc63f;
      }

      .cls-1, .cls-2, .cls-3, .cls-4, .cls-5 {
        stroke-width: 0px;
      }

      .cls-2 {
        fill: url(#Orange_Yellow);
      }

      .cls-3 {
        fill: url(#Orange_Yellow-2);
      }

      .cls-4 {
        fill: url(#Orange_Yellow-4);
      }

      .cls-6 {
        fill: #f75200;
        font-family: Damion, Damion;
        font-size: 33.36px;
      }

      .cls-5 {
        fill: url(#Orange_Yellow-3);
      }
    </style>
    <linearGradient id="Orange_Yellow" data-name="Orange, Yellow" x1="79.64" y1="210.02" x2="185.32" y2="210.02" gradientUnits="userSpaceOnUse">
      <stop offset="0" stop-color="#fff33b"/>
      <stop offset=".04" stop-color="#fee62d"/>
      <stop offset=".12" stop-color="#fdd51b"/>
      <stop offset=".2" stop-color="#fdca0f"/>
      <stop offset=".28" stop-color="#fdc70c"/>
      <stop offset=".67" stop-color="#f3903f"/>
      <stop offset=".89" stop-color="#ed683c"/>
      <stop offset="1" stop-color="#e93e3a"/>
    </linearGradient>
    <linearGradient id="Orange_Yellow-2" data-name="Orange, Yellow" x1="189.33" y1="172.11" x2="208.19" y2="172.11" xlink:href="#Orange_Yellow"/>
    <linearGradient id="Orange_Yellow-3" data-name="Orange, Yellow" x1="186.6" y1="193.89" x2="197.81" y2="193.89" xlink:href="#Orange_Yellow"/>
    <linearGradient id="Orange_Yellow-4" data-name="Orange, Yellow" x1="83.07" y1="144.65" x2="135.59" y2="53.67" xlink:href="#Orange_Yellow"/>
  </defs>
  <g>
    <g>
      <path class="cls-2" d="m79.64,184.03c3.95,5.71,8.51,10.59,13.61,14.74,6.35,5.17,13.23,8.9,20.65,11.15,4.93,1.5,9.94,2.29,15.03,2.37,5.27.08,10.47-.48,15.61-1.89,5.11-1.4,10.02-3.48,14.71-6.31.29-.18.59-.33.88-.49.05-.03.11-.02.21-.04.93.85,1.67,1.97,2.36,3.12,1.85,3.04,3.06,6.46,3.72,10.14.39,2.16.55,4.39.83,6.58.32,2.49.77,4.92,1.77,7.17,1.45,3.28,3.62,5.23,6.71,5.5,1.67.15,3.11-.67,4.47-1.72,2.94-2.28,4.64-5.56,5.03-9.76.23-2.47-.02-4.94-.57-7.35-2.23-9.76-7.24-16.47-14.97-20.18-.11-.05-.22-.11-.33-.17-.02-.01-.04-.04-.12-.16,4.02-3.6,7.64-7.73,10.95-12.27,0-.17-.01-.34-.02-.5-1.16.98-2.32,1.95-3.49,2.93-4.6,3.85-9.49,7.06-14.63,9.69-6.41,3.28-13.06,5.52-19.94,6.74-5.97,1.06-11.96,1.31-17.97.8-7.63-.64-15.03-2.54-22.22-5.69-5.61-2.46-10.97-5.59-15.99-9.52-1.98-1.55-3.87-3.25-5.8-4.89-.05-.04-.11-.04-.17-.06-.11.02-.22.05-.33.07Zm95.17,32.77c-1.6-7-4.31-13.01-9.96-16.51.39-.31.73-.58,1.07-.85.36-.29.73-.59,1.12-.91,5.37,4.37,7.55,10.69,7.77,18.27Z"/>
      <path class="cls-3" d="m189.34,179.64c.43.06.85.13,1.28.17,3.45.3,6.89.28,10.27-.76,1.55-.48,3.03-1.17,4.34-2.32.9-.79,1.65-1.74,2.19-2.91,1.08-2.31,1.03-4.63-.18-6.8-1.17-2.1-2.88-3.05-4.96-2.68-2.18.4-3.62,1.96-4.26,4.54-.67,2.71-2.08,4.79-3.75,6.65-1.2,1.34-2.56,2.41-4.01,3.32-.31.2-.62.39-.93.58,0,.07.01.14.02.22Zm12.04-7.35c.7-.92,1.22-1.89,1.32-3.13.01-.14.08-.27.14-.39.31-.65.97-.91,1.53-.61.57.32.9,1.2.59,1.89-.22.48-.55.94-.92,1.25-.78.66-1.69.93-2.66.99Z"/>
      <path class="cls-5" d="m186.6,192.05c1.79,1.05,3.07,2.72,4.2,4.63,1.09,1.84,3.05,2.43,4.73,1.51,1.64-.9,2.56-3.1,2.2-5.22-.39-2.25-1.88-3.83-3.75-3.79-2.58.05-4.98.96-7.18,2.61-.07.05-.11.15-.19.27Zm8.14-.9c.79.17,1.46.66,1.74,1.27.25.55.2,1.17-.13,1.59-.31.39-.82.5-1.22.25-.4-.24-.64-.77-.58-1.34.06-.59.13-1.19.2-1.78Z"/>
    </g>
    <g>
      <path class="cls-1" d="m159.31,154.29c-.28,1.41-.91,2.77-1.9,3.95-9.94,11.81-21.16,14.29-28.82,14.29-5.3,0-10.54-1.2-15.18-3.47-13.43-6.58-20.38-20.61-17.31-34.92.15-.71.32-1.42.5-2.11-1.35.91-2.95,1.45-4.67,1.51-.03,0-.22,0-.28,0-3.51,0-6.71-2.05-8.15-5.22l-2.57-5.66c-.17-.38-.54-.59-.8-.59-1.17.06-2.33.09-3.46.09-1.36,5.25-2.04,10.86-2.04,16.82,0,11.04,2.29,20.85,6.86,29.42,4.58,8.57,11.07,15.25,19.48,20.03,8.41,4.79,18.09,7.18,29.02,7.18,13.88,0,25.55-3.71,35.02-11.12,9.46-7.41,15.56-17.48,18.3-30.21h-24.01Zm5.71-60.65c-7.03-5.51-15.28-8.97-24.75-10.38-.99,1.7-2.14,3.32-3.44,4.83l-4.79,5.61c-1.07,1.26-1.34,3-.71,4.56,1.05,2.57,2.17,5.07,3.35,7.46,10.25,1.64,19.96,7.37,23.94,14.39.7,1.23,1.22,2.48,1.58,3.74h23.12c-2.73-12.72-8.83-22.79-18.3-30.21Z"/>
      <path class="cls-4" d="m128.58,166.48c-4.67,0-9-1.13-12.52-2.85-10.89-5.33-16.54-16.67-14.05-28.21,3.94-18.34,15.68-22.79,22.33-23.81.06,0,.11-.02.17-.03-1.6-3.19-2.98-6.26-4.06-8.9-2.3-5.64-1.28-12,2.66-16.61l4.79-5.61c2.16-2.52,3.69-5.47,4.44-8.52,1.02-4.15.06-9.37-2.46-13.29-1.73-2.69-3.93-4.41-6.2-4.84-9.45-1.8-16.63-.33-20.94,4.26,5.38,6.36,8.44,14.36,7.09,19.92-.83,3.43-3.31,5.7-6.8,6.24-2.93.45-5.7-1.03-7.62-4.07-3.2-5.07-3.9-14.12-.02-21.49-.63-.55-1.28-1.08-1.96-1.57-4.58-3.33-11.8-6.23-20.12-1.11-5.94,3.65-7.5,9.14-7.46,13.99,9.08,1.45,18.46,7.28,22,14.15,2.1,4.07,1.9,8.13-.56,11.43-2.32,3.12-5.63,4.33-9.31,3.42-7.49-1.85-15.26-12.55-17.31-23.63-4.81.26-8.2,2.45-10.09,6.51-3.25,7.02-3.18,13.39.2,18.4,4.7,6.97,15.45,10.73,28.74,10.06,5.09-.25,9.95,2.75,12.09,7.47l.02.03c4.66-8.13,12.11-13.77,22.23-16.8,1.51-.46,3.1.4,3.55,1.91.45,1.51-.4,3.1-1.91,3.55-10.72,3.21-17.67,9.48-21.23,19.14-.4,1.08-1.41,1.82-2.57,1.86-1.15.02-2.22-.62-2.7-1.67l-2.58-5.67c-1.19-2.61-3.84-4.27-6.62-4.13-15.53.77-27.83-3.8-33.75-12.56-4.5-6.66-4.73-15.18-.65-23.98,2.74-5.91,7.94-9.36,14.73-9.8.03-7.98,3.55-14.46,10.18-18.55,8.59-5.28,17.99-4.81,26.46,1.35.67.48,1.32,1,1.95,1.54,4.04-4.17,11.82-8.53,26.01-5.83,3.82.73,7.35,3.34,9.93,7.36,3.37,5.25,4.59,12.05,3.19,17.73-.96,3.91-2.91,7.66-5.64,10.86l-4.79,5.61c-2.55,2.98-3.2,7.11-1.71,10.76,1.6,3.92,3.3,7.55,5.04,10.82,10.02.65,19.35,6.02,22.59,11.74,1.99,3.51,1.78,7.15-.56,9.99-1.86,2.25-4.39,3.27-7.13,2.84-6.35-.97-13.04-9.71-18.26-18.9-.73.04-1.47.12-2.21.23-9.1,1.39-15.2,8.09-17.62,19.37-1.95,9.07,2.36,17.67,10.99,21.89,7.59,3.72,19.97,3.9,29.84-7.84,1.01-1.2,2.81-1.36,4.02-.35,1.2,1.01,1.36,2.81.35,4.02-7.52,8.94-16.34,12.14-24.2,12.14Zm5.77-48.91c4.81,7.65,9.42,12.28,12.18,12.71.62.1,1.18-.01,1.87-.84.36-.43,1.19-1.44,0-3.54-1.81-3.19-7.37-6.9-14.05-8.32Zm-67.73-41.64c2.14,8.79,8.27,16.43,12.73,17.53,1.43.35,2.43-.03,3.37-1.29.42-.56,1.69-2.27.06-5.42-2.29-4.43-9.03-9.19-16.17-10.83Zm32.96-12.69c-1.97,5.29-1.11,11.09.66,13.88.31.49,1.1,1.6,1.93,1.48,1.22-.19,1.84-.75,2.13-1.95.76-3.12-1.1-8.55-4.72-13.41Z"/>
    </g>
  </g>
  <g>
    <text class="cls-6" transform="translate(237.58 186.72)"><tspan x="0" y="0">Made just for you...</tspan></text>
    <g>
      <path class="cls-1" d="m234.52,105.97c2.25-4.22,5.44-7.5,9.58-9.86,4.14-2.35,8.9-3.53,14.28-3.53,6.83,0,12.57,1.82,17.23,5.47,4.66,3.65,7.66,8.6,9,14.86h-16.37c-.98-2.07-2.34-3.65-4.07-4.73-1.73-1.09-3.74-1.63-6.01-1.63-3.52,0-6.32,1.26-8.42,3.76s-3.14,5.86-3.14,10.05,1.05,7.62,3.14,10.13c2.1,2.51,4.9,3.76,8.42,3.76,2.28,0,4.28-.54,6.01-1.63,1.73-1.09,3.09-2.66,4.07-4.73h16.37c-1.35,6.26-4.35,11.21-9,14.86-4.66,3.65-10.4,5.47-17.23,5.47-5.38,0-10.14-1.18-14.28-3.53-4.14-2.35-7.33-5.64-9.58-9.86-2.25-4.22-3.38-9.04-3.38-14.47s1.13-10.18,3.38-14.4Z"/>
      <path class="cls-1" d="m313.25,106.08c2.43-1.45,5.04-2.17,7.84-2.17v16.22h-4.27c-3.31,0-5.77.65-7.37,1.94-1.6,1.29-2.41,3.54-2.41,6.75v19.01h-15.21v-43.54h15.21v7.68c1.71-2.48,3.78-4.45,6.21-5.9Z"/>
      <path class="cls-1" d="m367.89,129.13h-28.79c.15,2.38.81,4.15,1.98,5.32,1.16,1.16,2.65,1.75,4.46,1.75,2.53,0,4.35-1.14,5.43-3.41h16.22c-.67,3-1.98,5.68-3.92,8.03-1.94,2.35-4.38,4.2-7.33,5.55-2.95,1.35-6.21,2.02-9.78,2.02-4.29,0-8.11-.9-11.45-2.72-3.34-1.81-5.95-4.4-7.84-7.76-1.89-3.36-2.83-7.32-2.83-11.87s.93-8.5,2.79-11.84c1.86-3.34,4.46-5.91,7.8-7.72,3.34-1.81,7.18-2.72,11.52-2.72s8.1.88,11.41,2.64c3.31,1.76,5.9,4.28,7.76,7.57,1.86,3.29,2.79,7.15,2.79,11.6,0,1.19-.08,2.38-.23,3.57Zm-15.29-7.37c0-1.86-.62-3.32-1.86-4.39-1.24-1.06-2.79-1.59-4.66-1.59s-3.39.5-4.58,1.51c-1.19,1.01-1.97,2.5-2.33,4.46h13.43Z"/>
      <path class="cls-1" d="m395.2,133.48l8.15-29.18h16.22l-14.98,43.54h-18.94l-14.98-43.54h16.22l8.3,29.18Z"/>
      <path class="cls-1" d="m425.89,98.05c-1.63-1.48-2.44-3.32-2.44-5.55s.82-4.16,2.44-5.66c1.63-1.5,3.79-2.25,6.48-2.25s4.77.75,6.4,2.25c1.63,1.5,2.44,3.39,2.44,5.66s-.82,4.07-2.44,5.55c-1.63,1.47-3.76,2.21-6.4,2.21s-4.85-.74-6.48-2.21Zm14.01,6.25v43.54h-15.21v-43.54h15.21Z"/>
      <path class="cls-1" d="m472.11,116.95h-6.83v30.89h-15.29v-30.89h-4.73v-12.65h4.73v-.39c0-5.59,1.64-9.87,4.93-12.84,3.28-2.97,8.01-4.46,14.16-4.46,1.24,0,2.2.03,2.87.08v12.96c-.41-.05-.98-.08-1.71-.08-1.66,0-2.87.38-3.65,1.12-.78.75-1.22,1.95-1.32,3.61h6.83v12.65Z"/>
      <path class="cls-1" d="m524.41,104.3l-27.63,64.26h-16.53l10.4-22.58-17.85-41.67h16.92l9.16,24.68,8.85-24.68h16.68Z"/>
    </g>
  </g>
</svg>