<?xml version="1.0" encoding="UTF-8"?>
<svg id="Design" xmlns="http://www.w3.org/2000/svg" viewBox="0 0 566.93 566.93">
  <defs>
    <style>
      .cls-1 {
        fill: #fff;
        stroke-width: 0px;
      }
    </style>
  </defs>
  <path class="cls-1" d="m216.55,280.01c4.51,6.52,9.71,12.08,15.52,16.81,7.24,5.9,15.09,10.15,23.55,12.71,5.63,1.71,11.33,2.62,17.15,2.7,6.01.09,11.94-.55,17.81-2.16,5.82-1.59,11.42-3.97,16.77-7.2.33-.2.67-.38,1.01-.56.06-.03.13-.03.24-.05,1.06.96,1.9,2.25,2.7,3.56,2.11,3.47,3.49,7.37,4.25,11.56.44,2.47.63,5.01.94,7.51.36,2.84.88,5.61,2.02,8.18,1.65,3.74,4.13,5.96,7.65,6.28,1.9.17,3.55-.77,5.1-1.96,3.36-2.6,5.3-6.34,5.73-11.14.26-2.82-.02-5.64-.65-8.38-2.55-11.13-8.26-18.78-17.08-23.01-.12-.06-.25-.12-.37-.19-.02-.01-.04-.05-.14-.18,4.58-4.11,8.72-8.82,12.49-13.99,0-.19-.02-.38-.02-.58-1.32,1.11-2.65,2.23-3.97,3.34-5.25,4.39-10.82,8.05-16.69,11.05-7.31,3.74-14.9,6.29-22.74,7.69-6.8,1.21-13.64,1.49-20.5.91-8.7-.73-17.14-2.9-25.34-6.49-6.4-2.81-12.51-6.38-18.23-10.86-2.25-1.76-4.41-3.71-6.61-5.57-.05-.04-.13-.04-.19-.06-.12.03-.25.05-.37.08Zm108.54,37.37c-1.82-7.98-4.92-14.84-11.35-18.83.45-.36.83-.66,1.22-.97.42-.33.83-.67,1.28-1.04,6.13,4.99,8.61,12.19,8.86,20.84Z"/>
  <path class="cls-1" d="m341.67,275c.49.06.97.15,1.46.19,3.93.34,7.85.32,11.71-.87,1.77-.54,3.45-1.34,4.95-2.65,1.02-.9,1.88-1.98,2.5-3.32,1.23-2.64,1.17-5.28-.21-7.76-1.34-2.4-3.29-3.48-5.66-3.05-2.49.45-4.13,2.23-4.86,5.18-.76,3.1-2.37,5.46-4.28,7.58-1.37,1.53-2.92,2.75-4.57,3.78-.35.22-.71.44-1.06.67,0,.08.01.16.02.25Zm13.73-8.39c.79-1.05,1.39-2.15,1.51-3.57.01-.15.09-.31.16-.45.36-.75,1.11-1.04,1.74-.69.65.36,1.02,1.37.67,2.15-.25.55-.63,1.07-1.05,1.43-.89.75-1.93,1.06-3.03,1.13Z"/>
  <path class="cls-1" d="m338.55,289.15c2.04,1.19,3.51,3.11,4.79,5.28,1.24,2.1,3.47,2.77,5.39,1.72,1.87-1.03,2.92-3.53,2.51-5.96-.44-2.57-2.14-4.37-4.28-4.32-2.94.06-5.68,1.1-8.19,2.98-.08.06-.13.17-.22.31Zm9.29-1.03c.9.19,1.67.75,1.99,1.45.29.63.23,1.34-.15,1.81-.35.44-.94.57-1.39.29-.45-.27-.73-.88-.66-1.53.07-.68.15-1.35.22-2.03Z"/>
  <path class="cls-1" d="m307.42,246.09c-.32,1.61-1.04,3.16-2.17,4.5-11.33,13.47-24.13,16.3-32.87,16.3-6.04,0-12.02-1.37-17.31-3.95-15.31-7.5-23.25-23.51-19.74-39.82.17-.82.37-1.62.57-2.41-1.54,1.04-3.37,1.66-5.32,1.73-.04,0-.25,0-.32,0-4,0-7.65-2.34-9.29-5.95l-2.94-6.46c-.2-.44-.62-.68-.91-.68-1.33.06-2.66.1-3.95.11-1.55,5.99-2.32,12.39-2.32,19.18,0,12.6,2.61,23.78,7.82,33.55,5.22,9.78,12.62,17.39,22.22,22.85,9.59,5.46,20.63,8.18,33.1,8.18,15.83,0,29.14-4.23,39.94-12.68,10.79-8.46,17.75-19.94,20.87-34.45h-27.38Zm6.51-69.17c-8.02-6.28-17.43-10.23-28.23-11.84-1.13,1.93-2.44,3.78-3.92,5.51l-5.46,6.4c-1.22,1.44-1.53,3.42-.82,5.2,1.2,2.93,2.47,5.78,3.82,8.51,11.69,1.87,22.77,8.41,27.31,16.41.79,1.4,1.4,2.83,1.8,4.27h26.36c-3.12-14.51-10.07-26-20.87-34.45Z"/>
  <path class="cls-1" d="m272.37,259.99c-5.32,0-10.26-1.29-14.27-3.25-12.42-6.08-18.86-19.01-16.03-32.17,4.5-20.92,17.89-25.99,25.47-27.15.06-.01.13-.02.19-.03-1.83-3.64-3.4-7.14-4.63-10.15-2.62-6.43-1.46-13.69,3.03-18.95l5.46-6.4c2.46-2.88,4.21-6.24,5.07-9.72,1.17-4.73.07-10.68-2.8-15.15-1.97-3.07-4.48-5.03-7.07-5.52-10.78-2.05-18.97-.37-23.88,4.86,6.14,7.25,9.63,16.38,8.09,22.72-.95,3.91-3.77,6.5-7.76,7.12-3.34.51-6.5-1.18-8.69-4.64-3.65-5.78-4.45-16.11-.03-24.51-.71-.63-1.46-1.23-2.23-1.79-5.23-3.8-13.45-7.1-22.95-1.26-6.77,4.17-8.56,10.43-8.51,15.96,10.35,1.66,21.05,8.3,25.09,16.14,2.39,4.64,2.17,9.27-.63,13.04-2.64,3.55-6.42,4.94-10.62,3.9-8.54-2.11-17.41-14.31-19.74-26.95-5.49.29-9.35,2.79-11.5,7.43-3.71,8.01-3.63,15.27.23,20.98,5.36,7.94,17.62,12.24,32.78,11.47,5.8-.28,11.35,3.13,13.79,8.52l.02.04c5.31-9.27,13.81-15.7,25.36-19.16,1.72-.52,3.53.46,4.05,2.18.52,1.72-.46,3.53-2.18,4.05-12.23,3.67-20.15,10.81-24.21,21.83-.46,1.24-1.61,2.08-2.93,2.12-1.31.03-2.53-.7-3.08-1.9l-2.94-6.46c-1.35-2.98-4.37-4.87-7.55-4.71-17.71.88-31.74-4.33-38.49-14.33-5.13-7.6-5.39-17.31-.74-27.35,3.12-6.74,9.06-10.68,16.8-11.17.03-9.1,4.05-16.5,11.61-21.15,9.8-6.03,20.51-5.48,30.17,1.54.76.55,1.5,1.14,2.22,1.76,4.6-4.75,13.48-9.73,29.67-6.64,4.36.83,8.38,3.81,11.32,8.4,3.84,5.99,5.24,13.74,3.64,20.22-1.1,4.46-3.32,8.74-6.43,12.38l-5.46,6.4c-2.9,3.4-3.65,8.11-1.96,12.27,1.83,4.47,3.77,8.61,5.74,12.34,11.43.75,22.07,6.87,25.77,13.38,2.27,4,2.03,8.15-.64,11.39-2.13,2.57-5.01,3.73-8.13,3.24-7.24-1.11-14.87-11.07-20.82-21.56-.84.05-1.68.13-2.52.26-10.38,1.59-17.33,9.23-20.1,22.09-2.22,10.35,2.7,20.15,12.53,24.97,8.66,4.24,22.77,4.45,34.04-8.94,1.16-1.37,3.21-1.55,4.58-.39,1.37,1.16,1.55,3.21.39,4.58-8.58,10.2-18.64,13.85-27.6,13.85Zm6.58-55.78c5.48,8.72,10.74,14.01,13.89,14.49.71.11,1.35-.01,2.13-.96.41-.49,1.36-1.64,0-4.04-2.06-3.64-8.4-7.87-16.02-9.49Zm-77.24-47.49c2.45,10.02,9.43,18.74,14.52,20,1.63.4,2.78-.04,3.84-1.47.48-.64,1.93-2.59.07-6.18-2.61-5.05-10.29-10.48-18.44-12.35Zm37.59-14.47c-2.25,6.03-1.26,12.65.75,15.84.35.55,1.25,1.83,2.2,1.68,1.4-.22,2.1-.86,2.43-2.22.86-3.56-1.25-9.75-5.38-15.29Z"/>
  <g>
    <path class="cls-1" d="m135.92,371.18c-2.25,1.41-4.85,2.12-7.81,2.12-4.57,0-8.21-1.63-10.93-4.89-2.72-3.26-4.08-7.64-4.08-13.15s1.36-9.79,4.08-13.05,6.36-4.89,10.93-4.89c2.96,0,5.56.71,7.81,2.12,2.25,1.41,4.01,3.46,5.29,6.15h21.27c-1.75-8.13-5.64-14.56-11.69-19.3-6.05-4.74-13.51-7.11-22.38-7.11-6.99,0-13.17,1.53-18.54,4.59-5.38,3.05-9.53,7.32-12.45,12.8-2.92,5.48-4.39,11.71-4.39,18.69s1.46,13.32,4.39,18.8c2.92,5.48,7.07,9.74,12.45,12.8,5.38,3.06,11.55,4.59,18.54,4.59,8.87,0,16.33-2.37,22.38-7.11,6.05-4.74,9.94-11.17,11.69-19.3h-21.27c-1.28,2.69-3.04,4.74-5.29,6.15Z"/>
    <path class="cls-1" d="m199.66,336.71c-3.16,1.88-5.85,4.43-8.06,7.66v-9.98h-19.75v56.54h19.75v-24.69c0-4.17,1.04-7.09,3.13-8.77,2.08-1.68,5.27-2.52,9.57-2.52h5.54v-21.07c-3.63,0-7.02.94-10.18,2.82Z"/>
    <path class="cls-1" d="m270.92,362.01c0-5.78-1.21-10.8-3.63-15.07-2.42-4.27-5.78-7.54-10.08-9.83-4.3-2.28-9.24-3.43-14.82-3.43s-10.63,1.17-14.97,3.53-7.71,5.69-10.13,10.03c-2.42,4.33-3.63,9.45-3.63,15.37s1.22,11.05,3.68,15.42c2.45,4.36,5.85,7.73,10.18,10.08,4.33,2.35,9.29,3.53,14.87,3.53,4.64,0,8.87-.87,12.7-2.62,3.83-1.75,7-4.15,9.52-7.2,2.52-3.06,4.22-6.54,5.09-10.43h-21.06c-1.41,2.96-3.77,4.44-7.06,4.44-2.35,0-4.28-.76-5.8-2.27s-2.37-3.81-2.57-6.9h37.39c.2-1.55.3-3.09.3-4.64Zm-37.59-4.94c.47-2.56,1.48-4.49,3.02-5.8,1.55-1.31,3.53-1.97,5.95-1.97s4.43.69,6.05,2.07c1.61,1.38,2.42,3.28,2.42,5.7h-17.44Z"/>
    <path class="cls-1" d="m326.6,345.8c-.34,0-.68-.01-1.02-.05-3.15-.28-7.21-1.59-10.46-5.8l-9.03,32.34-10.78-37.9h-21.06l19.45,56.54h24.59l16.59-48.23c-1.85,1.39-4.64,3.09-8.28,3.09Z"/>
    <path class="cls-1" d="m344.39,334.39v56.54h19.75v-56.54h-19.75Z"/>
    <path class="cls-1" d="m397.1,334.39c.14-2.15.71-3.71,1.71-4.69,1.01-.97,2.58-1.46,4.74-1.46.94,0,1.68.04,2.22.1v-16.83c-.87-.07-2.12-.1-3.73-.1-8,0-14.13,1.93-18.4,5.79-4.27,3.87-6.4,9.42-6.4,16.68v.5h-6.15v16.43h6.15v40.11h19.86v-40.11h8.87v-16.43h-8.87Z"/>
    <path class="cls-1" d="m452.23,334.39l-11.49,32.05-11.89-32.05h-21.97l23.18,54.12-13.51,29.33h21.47l35.88-83.45h-21.67Z"/>
    <circle class="cls-1" cx="354.27" cy="316.02" r="10.79"/>
  </g>
  <g>
    <path class="cls-1" d="m192.16,430.9c.09-.83.19-1.8.32-2.89s.26-2.24.41-3.44c.14-1.2.29-2.4.44-3.61.15-1.21.3-2.34.44-3.4-.51.99-1.03,1.98-1.55,2.98s-1.02,1.95-1.49,2.84c-.47.9-.9,1.71-1.29,2.43s-.71,1.31-.95,1.76c-.22.3-.45.59-.67.86-.22.27-.44.51-.66.71-.22.2-.43.37-.65.49s-.42.18-.62.18c-.27,0-.49-.06-.65-.17-.16-.12-.24-.29-.24-.52,0-.05,0-.09,0-.14,0-.04.02-.09.04-.14-.06-1.38-.1-2.76-.13-4.16s-.04-2.78-.04-4.13v-.96c0-.32,0-.63.01-.95-.39.87-.81,1.78-1.26,2.72-.46.94-.93,1.87-1.42,2.78-.49.92-1,1.8-1.53,2.65s-1.05,1.62-1.57,2.31c-.52.69-1.04,1.28-1.55,1.77s-1,.83-1.46,1.02c-.41.17-.76.28-1.06.36-.3.07-.57.11-.8.11-.35,0-.61-.07-.78-.21-.17-.14-.25-.31-.25-.52,0-.24.1-.49.31-.75.2-.26.49-.47.86-.61.45-.17.93-.56,1.46-1.16.53-.6,1.07-1.32,1.63-2.17.56-.85,1.13-1.8,1.7-2.85.57-1.05,1.13-2.11,1.66-3.18.54-1.08,1.04-2.13,1.52-3.16.47-1.03.9-1.96,1.26-2.8s.67-1.53.91-2.09c.24-.56.38-.9.44-1.04.14-.3.33-.52.57-.65s.49-.2.74-.2c.35,0,.59.09.73.28.14.19.2.53.2,1.01.08.61.14,1.18.2,1.72.05.54.1,1.09.14,1.66.04.57.07,1.18.08,1.83.01.65.02,1.41.02,2.26,0,.61-.01,1.28-.04,2.02-.02.74-.04,1.56-.04,2.47,1.16-2.11,2.19-3.97,3.09-5.59s1.68-2.96,2.34-4.06c.66-1.09,1.22-1.91,1.68-2.47.46-.56.82-.84,1.09-.84h.1s.06,0,.09,0,.06,0,.09,0c.23,0,.42.14.55.44s.2.67.2,1.13c-.04.47-.1,1.07-.17,1.77-.08.71-.17,1.48-.27,2.33-.1.85-.21,1.74-.33,2.68-.12.94-.23,1.87-.35,2.8-.12.93-.23,1.82-.33,2.7s-.19,1.66-.25,2.37c-.02.13-.03.25-.03.38v.4c0,.25,0,.51.01.76s.01.51.01.76c0,.29-.01.58-.04.88s-.11.56-.24.8c-.13.24-.34.43-.62.58-.28.15-.67.22-1.16.22-.26,0-.47-.1-.62-.3-.15-.2-.23-.55-.23-1.07Z"/>
    <path class="cls-1" d="m214.38,427.75c-.17.17-.41.39-.7.68-.29.29-.62.61-1,.95-.37.34-.77.68-1.19,1.02-.42.34-.85.66-1.29.94-.44.28-.88.51-1.3.69-.43.18-.83.27-1.21.27-.34,0-.63-.07-.87-.22s-.44-.33-.6-.57c-.16-.23-.28-.5-.36-.79-.08-.29-.12-.6-.12-.91,0-.2.01-.4.04-.6.03-.2.08-.38.15-.56-.3.41-.64.83-1.03,1.26-.38.43-.79.82-1.24,1.18-.44.35-.9.64-1.38.87-.48.23-.97.34-1.46.34-.25,0-.54-.05-.88-.15-.33-.1-.65-.27-.95-.5-.3-.23-.55-.53-.75-.9-.2-.37-.31-.82-.31-1.35,0-.4.06-.87.18-1.42s.31-1.13.55-1.72c.25-.6.56-1.18.94-1.77s.84-1.1,1.36-1.56c.52-.46,1.12-.83,1.79-1.12.67-.29,1.42-.43,2.24-.43.43,0,.8.05,1.12.16s.59.22.81.35c.25.16.47.33.67.51.17-.09.33-.17.51-.25.15-.07.3-.13.46-.18s.3-.08.41-.08c.37,0,.67.1.9.31.23.2.35.43.35.67,0,.07,0,.12-.01.16-.05.18-.12.42-.23.7-.1.28-.22.59-.34.94-.13.34-.25.7-.39,1.08s-.25.74-.36,1.1c-.11.36-.19.7-.26,1.01-.07.31-.1.58-.1.81,0,.29.05.53.14.72.1.19.26.28.49.28.15,0,.32-.04.52-.14.2-.09.41-.22.65-.37.23-.16.47-.33.72-.53.25-.2.49-.4.72-.6.54-.48,1.12-1.04,1.73-1.66.16-.13.31-.19.45-.19.19,0,.36.09.49.28.13.19.2.4.2.63,0,.27-.09.5-.28.68Zm-10.07-3.75c-.46,0-.9.12-1.32.35-.43.23-.8.54-1.13.92-.33.38-.59.8-.78,1.27-.19.47-.29.94-.29,1.42,0,.19.01.39.04.6.02.21.08.4.17.57.09.17.21.32.37.44s.38.17.65.17c.21,0,.46-.09.75-.28.29-.19.58-.43.89-.73.3-.29.6-.62.89-.97s.55-.7.79-1.04c.23-.34.42-.64.57-.92.15-.27.22-.47.22-.6,0-.18-.06-.35-.19-.5s-.28-.28-.46-.39c-.18-.11-.38-.19-.59-.24-.21-.05-.39-.08-.54-.08Z"/>
    <path class="cls-1" d="m221.72,428.98s-.01.04-.01.07,0,.05-.01.07c0,.17.04.36.13.54.09.19.23.28.42.28.08,0,.14,0,.17-.03.55-.16,1.11-.43,1.68-.79.57-.36,1.11-.75,1.63-1.18s1-.86,1.45-1.31c.44-.45.81-.84,1.1-1.19.14-.16.29-.25.45-.25.15,0,.27.07.38.2.11.14.17.32.17.55,0,.18-.05.4-.15.65s-.27.52-.5.81c-.57.63-1.16,1.24-1.76,1.82-.6.58-1.21,1.1-1.82,1.55-.61.45-1.22.81-1.82,1.08-.61.27-1.2.41-1.78.41-.71,0-1.26-.2-1.67-.6-.41-.4-.61-1-.61-1.81v-.15c0-.05,0-.1.01-.15-.22.41-.51.78-.86,1.11-.35.33-.73.62-1.15.86-.42.24-.85.42-1.29.55s-.88.2-1.29.2c-.36,0-.69-.05-.99-.15-.3-.1-.56-.25-.78-.46-.22-.21-.39-.48-.51-.81-.12-.33-.18-.73-.18-1.19,0-.81.13-1.59.38-2.32.25-.73.59-1.4,1-2.02.42-.62.89-1.17,1.43-1.66.54-.49,1.09-.91,1.67-1.25.58-.34,1.15-.61,1.72-.79.57-.18,1.1-.28,1.57-.28.55,0,1.03.09,1.42.28.19.1.37.23.54.39.04-.09.08-.17.12-.25.1-.23.18-.43.26-.6.08-.17.13-.29.16-.37.03-.09.11-.29.25-.61.13-.32.29-.69.47-1.13.18-.43.37-.89.58-1.39.21-.49.4-.96.57-1.4.17-.44.32-.81.45-1.13.13-.32.2-.52.23-.6.07-.24.16-.48.28-.71s.25-.43.41-.6.35-.31.56-.41.46-.15.73-.15c.37,0,.67.08.92.24.24.16.36.47.36.92,0,.18-.02.37-.07.57-.05.19-.1.38-.17.57-.06.18-.13.37-.2.55-.07.18-.14.35-.2.5-.48.97-.99,2.02-1.53,3.16s-1.06,2.28-1.58,3.44-1.02,2.28-1.5,3.37-.89,2.08-1.25,2.96Zm-.44-5.68c-.58.02-1.19.14-1.83.38-.74.25-1.41.63-2.02,1.13s-1.13,1.11-1.55,1.84c-.42.73-.66,1.56-.72,2.5,0,.39.17.58.49.58.41,0,.79-.08,1.16-.25.37-.17.72-.4,1.05-.68.33-.29.65-.61.94-.98.29-.37.56-.75.81-1.15.25-.4.47-.79.67-1.18.2-.39.37-.76.52-1.1.05-.11.12-.26.2-.45.08-.18.17-.39.28-.62Z"/>
    <path class="cls-1" d="m233.45,421.35c.8,0,1.4.19,1.8.58s.6.92.6,1.61c0,.41-.11.83-.32,1.28-.21.45-.58.9-1.1,1.36s-1.22.93-2.1,1.41c-.88.48-1.97.96-3.29,1.45.05.28.2.5.45.66.25.16.59.24,1,.24.45,0,.92-.07,1.43-.2s1.01-.3,1.51-.5c.5-.2.99-.42,1.46-.66.47-.24.9-.46,1.29-.68.38-.21.7-.4.96-.55.26-.16.43-.25.52-.29.09-.06.17-.09.24-.1.07,0,.14-.01.2-.01.12,0,.21.03.29.08.08.05.14.12.2.19.05.07.09.15.11.23.02.08.03.15.03.21,0,.09,0,.19-.03.31-.02.12-.09.26-.22.42-.05.05-.21.18-.49.39-.28.21-.63.47-1.07.76-.44.29-.94.6-1.52.92-.58.33-1.19.62-1.83.89-.64.27-1.32.5-2.01.68-.7.18-1.39.27-2.06.27-.58,0-1.1-.11-1.55-.33-.45-.22-.83-.52-1.15-.9s-.55-.81-.72-1.31c-.16-.49-.25-1.01-.25-1.56,0-.42.08-.87.25-1.37.17-.5.4-1,.71-1.5.31-.5.69-1,1.14-1.47s.96-.9,1.52-1.27c.56-.37,1.18-.66,1.85-.89.67-.22,1.39-.33,2.16-.33Zm-.52,2.01s-.09-.01-.13-.01h-.13c-.37,0-.71.07-1.03.22-.32.15-.61.34-.88.57-.27.24-.5.51-.71.81-.21.3-.4.6-.56.89-.17.29-.3.58-.41.85-.11.27-.2.5-.25.68.34-.17.69-.37,1.05-.6.36-.22.71-.44,1.02-.64.32-.2.6-.39.84-.55.24-.16.4-.28.5-.33.44-.27.74-.53.9-.76.17-.24.25-.44.25-.62,0-.15-.05-.26-.14-.35-.09-.09-.2-.14-.31-.16Z"/>
    <path class="cls-1" d="m245.88,430.09c.58-.49,1.33-1.05,2.23-1.68s2.01-1.33,3.31-2.12c.15-.09.29-.13.42-.13.21,0,.39.09.53.26.14.17.21.39.21.64s-.1.53-.29.82c-.19.3-.52.56-.97.79l-4.91,3.37c-.21.19-.4.36-.57.5-.17.14-.34.28-.51.41-.17.13-.34.26-.52.39-.18.13-.38.27-.6.43-.47.81-.9,1.5-1.28,2.07s-.75,1.03-1.12,1.38-.75.61-1.13.78c-.39.17-.83.25-1.32.25-.46,0-.77-.09-.95-.27-.18-.18-.27-.43-.27-.75,0-.3.14-.6.42-.91.28-.3.61-.62.99-.94.38-.33.76-.67,1.14-1.03s.68-.76.88-1.18c.26-.54.54-1.12.84-1.74.3-.62.59-1.25.89-1.89.3-.64.6-1.28.91-1.91.3-.63.6-1.24.87-1.82.28-.58.54-1.11.78-1.61s.46-.92.65-1.26c.19-.37.44-.64.75-.81.3-.17.6-.25.89-.25.31,0,.58.09.8.26.22.17.33.42.33.74,0,.21-.02.41-.05.58-.03.17-.1.37-.2.59s-.23.48-.38.79c-.16.3-.37.69-.62,1.16s-.55,1.03-.9,1.69c-.35.66-.76,1.47-1.24,2.41Zm2.56-10.73c0-.22.06-.45.15-.69.09-.24.23-.45.4-.65.17-.19.39-.35.64-.48s.55-.19.89-.19c.53,0,.91.1,1.13.3.22.2.33.45.33.75,0,.19-.04.4-.11.63-.07.23-.18.44-.33.65-.15.2-.35.37-.59.51s-.53.2-.87.2c-.6,0-1.02-.09-1.26-.28-.24-.19-.36-.44-.37-.75Z"/>
    <path class="cls-1" d="m266.68,428.46c-.43.48-.92.96-1.49,1.42-.57.46-1.15.87-1.75,1.23s-1.19.65-1.77.86c-.58.22-1.1.33-1.57.33s-.84-.13-1.13-.39c-.29-.26-.44-.71-.44-1.34,0-.45.08-.96.23-1.55-.25.38-.57.76-.94,1.15-.38.39-.81.74-1.29,1.06-.48.32-1.03.58-1.63.78s-1.25.3-1.96.3c-.32,0-.63-.03-.92-.1-.3-.07-.55-.18-.78-.35-.22-.17-.4-.39-.54-.66-.14-.28-.2-.62-.2-1.04,0,0,.02-.16.06-.44.04-.29.16-.74.37-1.35.21-.62.53-1.41.97-2.39.44-.98,1.05-2.17,1.85-3.56.2-.37.44-.63.7-.79.27-.16.55-.24.87-.24.14,0,.28.02.42.05.14.03.28.09.41.16s.23.17.31.28c.08.11.12.24.12.38,0,.1-.01.19-.04.28-.05.17-.15.38-.31.65-.16.27-.35.57-.56.92s-.44.71-.68,1.11c-.24.4-.46.81-.66,1.24-.2.43-.38.86-.52,1.3-.15.44-.23.87-.25,1.29,0,.17.05.33.15.48.1.14.26.22.48.22.63,0,1.23-.17,1.8-.52.57-.35,1.1-.78,1.58-1.3s.92-1.08,1.32-1.67c.39-.6.72-1.14.98-1.64.18-.33.35-.68.49-1.06s.29-.73.46-1.05c.16-.32.35-.59.57-.8s.48-.32.8-.32c.35,0,.62.11.83.33.2.22.31.49.31.8,0,.17-.07.41-.2.72-.13.3-.3.65-.49,1.05-.2.39-.41.81-.65,1.26-.23.45-.45.9-.65,1.36-.2.46-.36.91-.49,1.35-.13.44-.2.85-.2,1.23,0,.35.21.52.64.52.3,0,.67-.09,1.12-.26s.91-.42,1.4-.73c.49-.31.98-.68,1.47-1.11s.92-.89,1.3-1.38l.15,1.98Z"/>
    <path class="cls-1" d="m268.86,423.75c.59.31,1.12.66,1.58,1.06.46.4.86.82,1.18,1.26.32.44.57.89.74,1.34.17.46.25.9.25,1.34,0,.55-.16,1.05-.47,1.49-.31.44-.73.81-1.24,1.12-.51.31-1.09.54-1.74.7-.65.16-1.32.24-1.98.24-.5,0-.99-.06-1.47-.17-.48-.11-.91-.28-1.3-.52-.39-.23-.73-.53-1.01-.89-.28-.36-.48-.8-.6-1.3-.02-.08-.03-.14-.03-.19,0-.26.09-.49.28-.68.18-.19.39-.28.61-.28.11,0,.23.02.36.06.13.04.23.13.3.26.13.23.3.44.53.62s.48.34.76.47c.28.13.58.23.89.3.31.07.62.11.92.11s.61-.03.89-.09c.29-.06.54-.15.76-.28s.39-.29.52-.48c.13-.19.19-.43.19-.71,0-.49-.11-.95-.33-1.37-.22-.42-.51-.8-.87-1.16s-.76-.68-1.21-.99c-.45-.3-.9-.6-1.34-.88-.05-.03-.12-.11-.22-.25s-.15-.28-.15-.43c0-.12.03-.21.09-.28.16-.2.33-.41.54-.62.2-.21.42-.41.65-.59.23-.18.48-.33.76-.44.27-.11.55-.17.84-.17.21,0,.41.03.6.09.18.06.34.13.46.23s.23.19.3.31c.07.11.11.21.11.31,0,.14-.03.27-.1.39-.07.13-.16.25-.27.36s-.24.23-.38.35c-.14.12-.28.23-.42.33Z"/>
    <path class="cls-1" d="m277.9,423.85c-.36.7-.7,1.38-1.02,2.04-.32.66-.62,1.28-.9,1.84-.12.23-.23.5-.34.81-.11.3-.17.57-.17.81,0,.14.03.24.09.32.06.08.17.12.31.12.2,0,.46-.06.77-.18.31-.12.64-.28,1-.48.36-.2.74-.43,1.13-.68s.79-.52,1.17-.8.75-.55,1.1-.83.66-.53.93-.76c.15-.11.3-.16.44-.16.17,0,.3.07.41.22s.16.33.16.55-.05.45-.16.68-.3.46-.58.68c-.63.57-1.27,1.12-1.91,1.63-.64.51-1.28.97-1.92,1.36s-1.26.71-1.88.94c-.62.23-1.22.35-1.8.35-.39,0-.71-.05-.97-.15s-.47-.24-.63-.42c-.16-.18-.27-.39-.34-.62-.07-.24-.1-.49-.1-.76,0-.48.08-.99.25-1.51.16-.52.35-.99.55-1.41.29-.6.58-1.2.87-1.79.29-.59.56-1.16.83-1.7h-.62c-.54,0-.92-.09-1.12-.26-.2-.17-.31-.37-.31-.6,0-.1.03-.21.09-.36.06-.14.15-.27.28-.39s.27-.23.44-.31c.17-.09.37-.13.6-.13h1.57l3.07-6.09c.19-.37.43-.63.72-.79s.58-.24.89-.24c.29,0,.56.08.8.23.24.15.36.41.36.77,0,.18-.04.37-.12.56-.08.19-.19.41-.33.66-.09.17-.19.36-.32.59s-.26.47-.4.73c-.14.26-.29.53-.44.81-.15.28-.3.55-.44.81-.33.62-.68,1.27-1.05,1.96h4.74c.23,0,.45.01.64.04.19.02.36.07.5.15s.25.17.33.3c.08.13.12.3.12.51,0,.11-.02.21-.05.32-.03.11-.1.2-.19.29-.09.09-.22.16-.38.22-.16.06-.37.1-.62.12l-6.05.04Z"/>
    <path class="cls-1" d="m298.25,423.68c-.5.02-.98.03-1.43.04-.45,0-.89.02-1.32.02-.43,0-.85,0-1.26,0h-1.26c-.25.49-.54,1.07-.85,1.72-.32.65-.64,1.34-.99,2.06-.34.72-.69,1.44-1.03,2.17-.34.73-.67,1.42-.98,2.08-.31.65-.59,1.25-.84,1.77-.25.53-.46.95-.61,1.26-.11.22-.24.43-.39.62-.16.19-.32.35-.51.49-.18.14-.37.24-.57.31-.19.07-.37.11-.54.11-.23,0-.44-.06-.62-.17-.18-.12-.28-.3-.28-.55,0-.13.03-.27.09-.44.06-.17.14-.37.25-.59l5.13-10.87h-.77c-.53,0-.9-.08-1.09-.25-.19-.16-.29-.36-.29-.58s.12-.46.36-.68.6-.33,1.06-.33h1.71c.69-1.39,1.38-2.53,2.07-3.43.69-.9,1.37-1.61,2.04-2.14.67-.52,1.32-.89,1.96-1.09.63-.2,1.24-.31,1.82-.31.27,0,.53.05.78.16s.46.27.65.48c.19.21.34.48.46.81.12.33.17.71.17,1.14s-.06.88-.17,1.38c-.03.14-.09.25-.17.34s-.18.17-.29.23c-.11.06-.21.1-.32.12s-.2.04-.28.04c-.19,0-.37-.05-.54-.14-.16-.09-.25-.24-.25-.43,0-.13,0-.24.02-.35s.02-.21.02-.32c0-.41-.08-.7-.23-.87-.15-.17-.35-.26-.6-.26-.3,0-.65.13-1.05.39-.4.26-.81.61-1.22,1.05-.41.44-.81.93-1.18,1.49-.38.56-.69,1.13-.93,1.71h3.39c.3,0,.58,0,.84.01s.49.04.69.09c.2.05.35.13.46.24s.17.27.17.49c0,.11-.02.21-.06.32-.04.11-.1.21-.2.3-.09.09-.22.17-.38.23-.17.06-.38.1-.64.12Z"/>
    <path class="cls-1" d="m301.89,421.37c.37,0,.76.05,1.18.15.42.1.81.26,1.17.49.36.23.66.54.89.92s.36.86.36,1.42c0,.29-.04.62-.12,1-.08.37-.19.76-.35,1.17.1.12.21.2.33.25.12.05.26.07.41.07.2,0,.43-.06.68-.17.25-.12.5-.27.76-.45.26-.18.52-.39.78-.62s.51-.46.74-.7.44-.45.63-.66c.19-.21.35-.39.47-.53.07-.07.15-.1.25-.1.14,0,.26.07.36.21.11.14.16.34.16.59s-.08.54-.22.87c-.15.33-.43.67-.84,1.03-.23.25-.5.54-.8.87-.3.33-.62.64-.96.93s-.69.54-1.06.74c-.37.2-.74.3-1.11.3-.25,0-.5-.04-.73-.12-.24-.08-.48-.2-.72-.38-.35.54-.75,1.04-1.19,1.48-.45.45-.94.83-1.49,1.15-.55.32-1.14.57-1.77.75-.63.18-1.31.27-2.03.27-.27,0-.59-.05-.94-.16s-.7-.28-1.02-.53c-.33-.25-.6-.57-.82-.97-.22-.4-.33-.88-.33-1.45,0-.39.06-.85.19-1.4.13-.54.32-1.1.57-1.68.26-.58.58-1.15.97-1.71.39-.57.86-1.08,1.4-1.53.54-.45,1.16-.81,1.86-1.09.7-.28,1.47-.41,2.33-.41Zm-.76,2.56c-.46,0-.89.11-1.32.34-.42.23-.79.53-1.12.9-.33.37-.58.79-.78,1.26-.19.47-.29.95-.29,1.45,0,.18.01.38.04.6.03.22.09.42.18.61.09.19.22.35.4.47.17.13.41.19.7.19.45,0,.88-.12,1.3-.36.42-.24.8-.55,1.13-.93.33-.38.59-.82.78-1.3.19-.48.29-.97.29-1.47,0-.19-.01-.39-.04-.6-.02-.21-.08-.4-.17-.57-.09-.17-.23-.32-.4-.43-.17-.11-.41-.17-.71-.17Z"/>
    <path class="cls-1" d="m312.97,423.46c.38-.23.77-.45,1.17-.64.4-.19.79-.36,1.17-.5s.74-.25,1.08-.33c.34-.08.65-.12.92-.12.44,0,.77.1,1.01.31.24.21.36.56.36,1.05,0,.11,0,.22-.01.34s-.03.25-.06.38c-.05.25-.19.55-.44.89-.24.34-.53.69-.85,1.06-.33.37-.67.74-1.05,1.11s-.72.72-1.03,1.03c-.31.31-.58.59-.78.82-.21.23-.31.39-.31.48,0,.08,0,.13.01.16,0,.03.05.04.13.04.52-.22,1.11-.49,1.75-.81.64-.31,1.29-.64,1.93-.97.64-.33,1.25-.65,1.82-.97.57-.32,1.06-.59,1.45-.82.09-.05.18-.09.27-.12.09-.03.18-.05.25-.05.17,0,.32.06.44.17s.17.27.17.46c0,.22-.09.48-.28.76-.19.29-.51.58-.95.89-.34.21-.72.45-1.14.72-.42.27-.86.54-1.32.83-.46.29-.93.56-1.4.84-.47.27-.92.51-1.36.73-.44.21-.84.38-1.23.52s-.71.2-1,.2c-.67,0-1.17-.16-1.5-.48-.33-.32-.5-.73-.5-1.24,0-.08,0-.14.01-.17.07-.43.19-.84.38-1.24.18-.4.39-.78.62-1.13s.47-.7.73-1.02c.25-.32.48-.63.69-.92.21-.29.38-.55.52-.79.13-.24.2-.46.2-.67,0-.05,0-.1-.03-.15s-.06-.07-.13-.07c-.12,0-.31.04-.57.13-.27.09-.55.2-.85.35-.3.14-.59.31-.86.5-.27.19-.47.39-.58.6-.15.27-.33.62-.54,1.03-.2.42-.41.85-.63,1.31-.22.46-.43.91-.63,1.35-.2.45-.38.83-.52,1.15-.12.28-.27.53-.46.76-.19.22-.39.41-.62.57-.22.16-.45.28-.68.36s-.45.13-.64.13c-.22,0-.4-.06-.53-.17-.13-.12-.2-.3-.2-.57,0-.11.02-.24.05-.4.03-.16.1-.34.21-.53.17-.33.35-.69.53-1.08.18-.39.39-.83.62-1.33.23-.5.5-1.07.81-1.71.3-.64.67-1.39,1.08-2.23-.14-.12-.25-.26-.34-.43-.09-.17-.14-.38-.14-.63,0-.23.05-.43.14-.6.1-.17.23-.31.39-.42.17-.11.36-.19.57-.24s.45-.08.69-.08.5.02.76.07.48.11.68.2.36.19.49.32c.12.13.19.27.19.44,0,.03,0,.07-.03.12s-.04.1-.07.16c-.02.06-.05.11-.07.16-.02.05-.03.09-.03.12,0,.02,0,.03.01.03h.04Z"/>
    <path class="cls-1" d="m335.9,422.72c.27-.21.5-.38.69-.49.19-.11.35-.19.49-.25.14-.05.26-.08.37-.09s.23-.01.34-.01c.2,0,.35.08.44.23.09.15.13.31.13.47,0,.14-.02.26-.07.38l-3.26,6.79c.47-.35,1-.69,1.61-1.03.61-.33,1.19-.63,1.74-.9.56-.27,1.04-.48,1.44-.65.4-.16.63-.25.69-.25.24,0,.46.09.64.28.18.18.28.42.28.7,0,.25-.09.52-.28.8-.19.28-.52.55-1,.81-.68.38-1.27.7-1.77.97s-.95.51-1.34.72-.73.41-1.03.58c-.3.17-.58.35-.85.54-.27.18-.53.38-.79.59-.26.21-.54.45-.84.73-.22.58-.44,1.14-.66,1.67-.22.53-.42,1-.6,1.41-.18.41-.33.74-.44.99-.12.25-.18.39-.19.41-.79,1.63-1.65,2.44-2.59,2.44-.39,0-.7-.13-.94-.39s-.36-.6-.36-1.04c0-.41.05-.81.15-1.21s.28-.84.54-1.33c.26-.49.6-1.03,1.02-1.62.42-.6.95-1.3,1.59-2.1l2.91-5.89c-1.45,1.72-2.77,3.04-3.95,3.95-1.18.91-2.29,1.37-3.31,1.37-.33,0-.61-.08-.84-.23-.23-.15-.35-.4-.35-.75,0-.48.12-1.03.35-1.64.14-.33.27-.63.41-.91s.28-.55.42-.83c.14-.28.3-.57.46-.89.16-.32.33-.68.52-1.08.19-.4.4-.87.62-1.4s.48-1.15.76-1.85c.19-.38.45-.65.76-.82.31-.17.61-.25.9-.25s.55.07.76.21c.21.14.31.33.31.56,0,.12-.02.22-.06.3l-2.66,5.54c-.14.28-.2.5-.2.67,0,.15.06.22.17.22.11,0,.24-.05.41-.16.17-.11.32-.23.47-.36l6-5.9Z"/>
    <path class="cls-1" d="m346.47,421.37c.37,0,.76.05,1.18.15s.81.26,1.17.49.66.54.89.92.36.86.36,1.42c0,.29-.04.62-.12,1-.08.37-.19.76-.35,1.17.1.12.21.2.33.25.13.05.26.07.41.07.2,0,.43-.06.68-.17.25-.12.5-.27.76-.45.26-.18.52-.39.79-.62s.51-.46.74-.7.44-.45.63-.66c.19-.21.35-.39.47-.53.07-.07.15-.1.25-.1.14,0,.26.07.36.21s.16.34.16.59-.08.54-.23.87-.43.67-.84,1.03c-.23.25-.5.54-.8.87-.3.33-.62.64-.96.93-.34.29-.69.54-1.06.74s-.74.3-1.1.3c-.25,0-.5-.04-.73-.12-.24-.08-.48-.2-.72-.38-.35.54-.75,1.04-1.19,1.48-.45.45-.94.83-1.49,1.15-.55.32-1.14.57-1.77.75-.63.18-1.31.27-2.03.27-.27,0-.59-.05-.95-.16s-.7-.28-1.02-.53c-.32-.25-.6-.57-.82-.97-.22-.4-.33-.88-.33-1.45,0-.39.06-.85.19-1.4.12-.54.32-1.1.57-1.68.26-.58.58-1.15.97-1.71.39-.57.86-1.08,1.4-1.53.54-.45,1.16-.81,1.86-1.09.7-.28,1.47-.41,2.33-.41Zm-.76,2.56c-.46,0-.89.11-1.32.34-.42.23-.79.53-1.12.9-.32.37-.58.79-.78,1.26-.19.47-.29.95-.29,1.45,0,.18.01.38.04.6.03.22.09.42.18.61.09.19.23.35.4.47.17.13.41.19.7.19.45,0,.88-.12,1.3-.36.42-.24.8-.55,1.13-.93.33-.38.59-.82.79-1.3.19-.48.29-.97.29-1.47,0-.19-.01-.39-.04-.6-.02-.21-.08-.4-.17-.57-.09-.17-.23-.32-.4-.43-.17-.11-.41-.17-.71-.17Z"/>
    <path class="cls-1" d="m367.95,428.46c-.43.48-.92.96-1.49,1.42-.57.46-1.15.87-1.75,1.23s-1.19.65-1.77.86c-.58.22-1.1.33-1.57.33s-.84-.13-1.13-.39c-.29-.26-.44-.71-.44-1.34,0-.45.08-.96.23-1.55-.25.38-.57.76-.94,1.15-.38.39-.81.74-1.29,1.06-.48.32-1.03.58-1.63.78s-1.25.3-1.96.3c-.32,0-.63-.03-.92-.1-.3-.07-.55-.18-.78-.35-.22-.17-.4-.39-.54-.66-.14-.28-.2-.62-.2-1.04,0,0,.02-.16.06-.44.04-.29.16-.74.37-1.35.21-.62.53-1.41.97-2.39.44-.98,1.05-2.17,1.85-3.56.2-.37.44-.63.7-.79.27-.16.55-.24.87-.24.14,0,.28.02.42.05.14.03.28.09.41.16s.23.17.31.28c.08.11.12.24.12.38,0,.1-.01.19-.04.28-.05.17-.15.38-.31.65-.16.27-.35.57-.56.92s-.44.71-.68,1.11c-.24.4-.46.81-.66,1.24-.2.43-.38.86-.52,1.3-.15.44-.23.87-.25,1.29,0,.17.05.33.15.48.1.14.26.22.48.22.63,0,1.23-.17,1.8-.52.57-.35,1.1-.78,1.58-1.3s.92-1.08,1.32-1.67c.39-.6.72-1.14.98-1.64.18-.33.35-.68.49-1.06s.29-.73.46-1.05c.16-.32.35-.59.57-.8s.48-.32.8-.32c.35,0,.62.11.83.33.2.22.31.49.31.8,0,.17-.07.41-.2.72-.13.3-.3.65-.49,1.05-.2.39-.41.81-.65,1.26-.23.45-.45.9-.65,1.36-.2.46-.36.91-.49,1.35-.13.44-.2.85-.2,1.23,0,.35.21.52.64.52.3,0,.67-.09,1.12-.26s.91-.42,1.4-.73c.49-.31.98-.68,1.47-1.11s.92-.89,1.3-1.38l.15,1.98Z"/>
    <path class="cls-1" d="m372.86,429.91c0,.3-.06.59-.17.86-.11.27-.26.51-.45.72-.19.21-.41.37-.66.49s-.52.18-.8.18c-.23,0-.45-.05-.65-.14-.2-.09-.38-.22-.53-.37-.15-.15-.27-.34-.36-.54-.09-.21-.13-.43-.13-.66,0-.29.06-.57.17-.84s.26-.5.46-.71c.19-.2.42-.37.68-.49s.54-.18.84-.18c.47,0,.86.16,1.16.48.3.32.44.72.44,1.19Z"/>
    <path class="cls-1" d="m383.5,429.91c0,.3-.06.59-.17.86-.11.27-.26.51-.45.72-.19.21-.41.37-.66.49s-.52.18-.8.18c-.23,0-.45-.05-.65-.14-.2-.09-.38-.22-.53-.37-.15-.15-.27-.34-.36-.54-.09-.21-.13-.43-.13-.66,0-.29.06-.57.17-.84s.26-.5.46-.71c.19-.2.42-.37.68-.49.26-.12.54-.18.84-.18.47,0,.86.16,1.16.48.29.32.44.72.44,1.19Z"/>
    <path class="cls-1" d="m394.14,429.91c0,.3-.06.59-.17.86-.11.27-.26.51-.45.72-.19.21-.41.37-.66.49s-.52.18-.8.18c-.23,0-.45-.05-.65-.14-.2-.09-.38-.22-.53-.37-.15-.15-.27-.34-.36-.54-.09-.21-.13-.43-.13-.66,0-.29.06-.57.17-.84s.26-.5.46-.71c.19-.2.42-.37.68-.49.26-.12.54-.18.84-.18.47,0,.86.16,1.16.48.29.32.44.72.44,1.19Z"/>
  </g>
</svg>