<?xml version="1.0" encoding="UTF-8"?>
<svg id="Design" xmlns="http://www.w3.org/2000/svg" xmlns:xlink="http://www.w3.org/1999/xlink" viewBox="0 0 283.46 283.46">
  <defs>
    <style>
      .cls-1 {
        fill: #8dc63f;
      }

      .cls-1, .cls-2, .cls-3, .cls-4, .cls-5, .cls-6 {
        stroke-width: 0px;
      }

      .cls-2 {
        fill: #f75200;
      }

      .cls-3 {
        fill: url(#Orange_Yellow);
      }

      .cls-4 {
        fill: url(#Orange_Yellow-2);
      }

      .cls-5 {
        fill: url(#Orange_Yellow-4);
      }

      .cls-6 {
        fill: url(#Orange_Yellow-3);
      }
    </style>
    <linearGradient id="Orange_Yellow" data-name="Orange, Yellow" x1="106.84" y1="155.39" x2="169.69" y2="155.39" gradientUnits="userSpaceOnUse">
      <stop offset="0" stop-color="#fff33b"/>
      <stop offset=".04" stop-color="#fee62d"/>
      <stop offset=".12" stop-color="#fdd51b"/>
      <stop offset=".2" stop-color="#fdca0f"/>
      <stop offset=".28" stop-color="#fdc70c"/>
      <stop offset=".67" stop-color="#f3903f"/>
      <stop offset=".89" stop-color="#ed683c"/>
      <stop offset="1" stop-color="#e93e3a"/>
    </linearGradient>
    <linearGradient id="Orange_Yellow-2" data-name="Orange, Yellow" x1="172.08" y1="132.84" x2="183.3" y2="132.84" xlink:href="#Orange_Yellow"/>
    <linearGradient id="Orange_Yellow-3" data-name="Orange, Yellow" x1="170.46" y1="145.79" x2="177.12" y2="145.79" xlink:href="#Orange_Yellow"/>
    <linearGradient id="Orange_Yellow-4" data-name="Orange, Yellow" x1="108.88" y1="116.51" x2="140.12" y2="62.39" xlink:href="#Orange_Yellow"/>
  </defs>
  <path class="cls-3" d="m106.84,139.93c2.35,3.4,5.06,6.3,8.09,8.77,3.78,3.08,7.87,5.29,12.28,6.63,2.93.89,5.91,1.36,8.94,1.41,3.13.04,6.23-.29,9.29-1.12,3.04-.83,5.96-2.07,8.75-3.75.17-.1.35-.2.53-.29.03-.02.07-.01.13-.02.55.5.99,1.17,1.41,1.86,1.1,1.81,1.82,3.84,2.21,6.03.23,1.29.33,2.61.49,3.92.19,1.48.46,2.93,1.05,4.27.86,1.95,2.15,3.11,3.99,3.27.99.09,1.85-.4,2.66-1.02,1.75-1.35,2.76-3.31,2.99-5.81.13-1.47-.01-2.94-.34-4.37-1.33-5.8-4.31-9.79-8.91-12-.07-.03-.13-.06-.19-.1-.01,0-.02-.03-.07-.09,2.39-2.14,4.55-4.6,6.51-7.3,0-.1,0-.2-.01-.3-.69.58-1.38,1.16-2.07,1.74-2.74,2.29-5.64,4.2-8.7,5.76-3.81,1.95-7.77,3.28-11.86,4.01-3.55.63-7.11.78-10.69.48-4.54-.38-8.94-1.51-13.22-3.39-3.34-1.46-6.52-3.33-9.51-5.66-1.18-.92-2.3-1.94-3.45-2.91-.03-.02-.07-.02-.1-.03-.06.01-.13.03-.19.04Zm56.6,19.49c-.95-4.16-2.56-7.74-5.92-9.82.23-.19.44-.34.63-.51.22-.17.43-.35.67-.54,3.19,2.6,4.49,6.36,4.62,10.87Z"/>
  <path class="cls-4" d="m172.09,137.32c.25.03.51.08.76.1,2.05.18,4.1.16,6.11-.45.92-.28,1.8-.7,2.58-1.38.53-.47.98-1.03,1.31-1.73.64-1.37.61-2.75-.11-4.05-.7-1.25-1.71-1.82-2.95-1.59-1.3.24-2.16,1.16-2.53,2.7-.4,1.61-1.24,2.85-2.23,3.95-.71.8-1.52,1.43-2.38,1.97-.18.12-.37.23-.55.35,0,.04,0,.09,0,.13Zm7.16-4.37c.41-.55.72-1.12.79-1.86,0-.08.05-.16.08-.23.19-.39.58-.54.91-.36.34.19.53.72.35,1.12-.13.29-.33.56-.55.74-.46.39-1.01.55-1.58.59Z"/>
  <path class="cls-6" d="m170.46,144.7c1.07.62,1.83,1.62,2.5,2.75.65,1.09,1.81,1.45,2.81.9.97-.53,1.52-1.84,1.31-3.11-.23-1.34-1.12-2.28-2.23-2.26-1.54.03-2.96.57-4.27,1.55-.04.03-.07.09-.12.16Zm4.84-.54c.47.1.87.39,1.04.76.15.33.12.7-.08.95-.18.23-.49.3-.73.15-.24-.14-.38-.46-.35-.8.03-.35.08-.71.12-1.06Z"/>
  <path class="cls-1" d="m154.22,122.24c-.17.84-.54,1.65-1.13,2.35-5.91,7.03-12.59,8.5-17.14,8.5-3.15,0-6.27-.71-9.03-2.06-7.99-3.91-12.12-12.26-10.29-20.77.09-.43.19-.85.3-1.26-.8.54-1.76.87-2.77.9-.02,0-.13,0-.17,0-2.09,0-3.99-1.22-4.85-3.1l-1.53-3.37c-.1-.23-.32-.35-.47-.35-.7.03-1.39.05-2.06.05-.81,3.12-1.21,6.46-1.21,10,0,6.57,1.36,12.4,4.08,17.5,2.72,5.1,6.58,9.07,11.59,11.92,5,2.85,10.76,4.27,17.26,4.27,8.26,0,15.2-2.2,20.83-6.61,5.63-4.41,9.26-10.4,10.88-17.97h-14.28Zm3.4-36.07c-4.18-3.28-9.09-5.34-14.72-6.18-.59,1.01-1.27,1.97-2.04,2.87l-2.85,3.34c-.64.75-.8,1.79-.43,2.71.62,1.53,1.29,3.01,1.99,4.44,6.1.98,11.87,4.38,14.24,8.56.41.73.73,1.47.94,2.22h13.75c-1.63-7.57-5.25-13.56-10.88-17.97Z"/>
  <path class="cls-5" d="m135.95,129.49c-2.78,0-5.35-.67-7.44-1.7-6.48-3.17-9.83-9.92-8.36-16.78,2.35-10.91,9.33-13.55,13.28-14.16.03,0,.07,0,.1-.02-.95-1.9-1.77-3.73-2.41-5.29-1.37-3.35-.76-7.14,1.58-9.88l2.85-3.34c1.28-1.5,2.2-3.25,2.64-5.07.61-2.47.03-5.57-1.46-7.9-1.03-1.6-2.34-2.62-3.69-2.88-5.62-1.07-9.89-.19-12.46,2.54,3.2,3.78,5.02,8.54,4.22,11.85-.49,2.04-1.97,3.39-4.05,3.71-1.74.27-3.39-.61-4.53-2.42-1.9-3.02-2.32-8.4-.01-12.78-.37-.33-.76-.64-1.16-.93-2.73-1.98-7.02-3.7-11.97-.66-3.53,2.17-4.46,5.44-4.44,8.32,5.4.86,10.98,4.33,13.09,8.42,1.25,2.42,1.13,4.84-.33,6.8-1.38,1.85-3.35,2.58-5.54,2.03-4.45-1.1-9.08-7.46-10.3-14.05-2.86.15-4.88,1.46-6,3.87-1.93,4.18-1.89,7.96.12,10.94,2.8,4.14,9.19,6.38,17.09,5.98,3.03-.15,5.92,1.63,7.19,4.44v.02c2.78-4.83,7.21-8.19,13.23-9.99.9-.27,1.84.24,2.11,1.14.27.9-.24,1.84-1.14,2.11-6.38,1.91-10.51,5.64-12.63,11.38-.24.64-.84,1.08-1.53,1.11-.68.01-1.32-.37-1.61-.99l-1.53-3.37c-.71-1.55-2.28-2.54-3.94-2.46-9.24.46-16.55-2.26-20.07-7.47-2.67-3.96-2.81-9.03-.39-14.26,1.63-3.51,4.72-5.57,8.76-5.83.02-4.75,2.11-8.6,6.06-11.03,5.11-3.14,10.7-2.86,15.74.8.4.29.78.59,1.16.92,2.4-2.48,7.03-5.07,15.47-3.46,2.27.43,4.37,1.99,5.91,4.38,2,3.12,2.73,7.17,1.9,10.55-.57,2.32-1.73,4.56-3.36,6.46l-2.85,3.34c-1.51,1.78-1.91,4.23-1.02,6.4.95,2.33,1.97,4.49,3,6.43,5.96.39,11.51,3.58,13.44,6.98,1.18,2.09,1.06,4.25-.34,5.94-1.11,1.34-2.61,1.94-4.24,1.69-3.77-.58-7.75-5.77-10.86-11.24-.44.02-.87.07-1.31.14-5.41.83-9.04,4.81-10.48,11.52-1.16,5.4,1.41,10.51,6.54,13.02,4.52,2.21,11.88,2.32,17.75-4.66.6-.72,1.67-.81,2.39-.21.72.6.81,1.67.21,2.39-4.47,5.32-9.72,7.22-14.39,7.22Zm3.43-29.09c2.86,4.55,5.6,7.31,7.25,7.56.37.06.7,0,1.11-.5.21-.26.71-.85,0-2.11-1.08-1.9-4.38-4.1-8.36-4.95Zm-40.28-24.77c1.28,5.23,4.92,9.77,7.57,10.43.85.21,1.45-.02,2-.77.25-.33,1-1.35.04-3.22-1.36-2.64-5.37-5.47-9.61-6.44Zm19.6-7.55c-1.17,3.15-.66,6.6.39,8.26.18.29.65.95,1.15.88.73-.11,1.1-.45,1.27-1.16.45-1.86-.65-5.09-2.81-7.98Z"/>
  <g>
    <path class="cls-1" d="m64.78,187.48c-1.17.74-2.53,1.1-4.08,1.1-2.38,0-4.28-.85-5.7-2.55s-2.13-3.99-2.13-6.86.71-5.11,2.13-6.81,3.32-2.55,5.7-2.55c1.54,0,2.9.37,4.08,1.1,1.17.74,2.09,1.81,2.76,3.21h11.09c-.91-4.24-2.94-7.59-6.1-10.07-3.16-2.47-7.04-3.71-11.67-3.71-3.64,0-6.87.8-9.67,2.39-2.8,1.59-4.97,3.82-6.49,6.68-1.52,2.86-2.29,6.11-2.29,9.75s.76,6.95,2.29,9.8c1.52,2.86,3.69,5.08,6.49,6.68,2.8,1.6,6.03,2.39,9.67,2.39,4.63,0,8.51-1.23,11.67-3.71,3.15-2.47,5.18-5.82,6.1-10.07h-11.09c-.67,1.4-1.59,2.47-2.76,3.21Z"/>
    <path class="cls-1" d="m98.03,169.5c-1.65.98-3.05,2.31-4.21,3.99v-5.21h-10.3v29.49h10.3v-12.88c0-2.17.54-3.7,1.63-4.57,1.08-.87,2.75-1.31,4.99-1.31h2.89v-10.99c-1.89,0-3.66.49-5.31,1.47Z"/>
    <path class="cls-1" d="m135.19,182.69c0-3.01-.63-5.63-1.89-7.86-1.26-2.22-3.01-3.93-5.25-5.12-2.24-1.19-4.82-1.79-7.73-1.79s-5.55.61-7.81,1.84-4.02,2.97-5.28,5.23c-1.26,2.26-1.89,4.93-1.89,8.02s.64,5.76,1.92,8.04c1.28,2.28,3.05,4.03,5.31,5.25,2.26,1.23,4.84,1.84,7.75,1.84,2.42,0,4.63-.46,6.62-1.37,2-.91,3.65-2.16,4.97-3.76,1.31-1.6,2.2-3.41,2.65-5.44h-10.98c-.74,1.54-1.96,2.31-3.68,2.31-1.23,0-2.23-.39-3.02-1.18s-1.23-1.99-1.34-3.6h19.5c.11-.81.16-1.61.16-2.42Zm-19.61-2.57c.24-1.33.77-2.34,1.58-3.02.81-.68,1.84-1.03,3.1-1.03s2.31.36,3.15,1.08c.84.72,1.26,1.71,1.26,2.97h-9.09Z"/>
    <path class="cls-1" d="m164.23,174.24c-.18,0-.36,0-.53-.02-1.65-.15-3.76-.83-5.45-3.03l-4.71,16.86-5.62-19.76h-10.98l10.14,29.49h12.83l8.65-25.15c-.96.73-2.42,1.61-4.32,1.61Z"/>
    <path class="cls-1" d="m173.51,168.29v29.49h10.3v-29.49h-10.3Z"/>
    <path class="cls-1" d="m201,168.29c.07-1.12.37-1.93.89-2.44.52-.51,1.35-.76,2.47-.76.49,0,.87.02,1.16.05v-8.78c-.46-.04-1.1-.05-1.94-.05-4.17,0-7.37,1.01-9.59,3.02-2.22,2.02-3.34,4.91-3.34,8.7v.26h-3.21v8.57h3.21v20.92h10.36v-20.92h4.63v-8.57h-4.63Z"/>
    <path class="cls-1" d="m229.75,168.29l-5.99,16.72-6.2-16.72h-11.46l12.09,28.23-7.04,15.3h11.2l18.71-43.52h-11.3Z"/>
    <circle class="cls-1" cx="178.66" cy="158.71" r="5.63"/>
  </g>
  <g>
    <path class="cls-2" d="m94.12,218.62c.05-.43.1-.94.17-1.51.07-.57.14-1.17.21-1.79.08-.62.15-1.25.23-1.88s.16-1.22.23-1.77c-.27.51-.54,1.03-.81,1.55-.27.52-.53,1.01-.78,1.48-.25.47-.47.89-.67,1.27-.21.38-.37.69-.5.92-.12.16-.23.31-.35.45-.12.14-.23.27-.34.37-.11.11-.23.19-.34.25s-.22.09-.33.09c-.14,0-.25-.03-.34-.09-.08-.06-.12-.15-.12-.27,0-.03,0-.05,0-.07,0-.02,0-.05.02-.07-.03-.72-.05-1.44-.07-2.17-.01-.73-.02-1.45-.02-2.16v-.5c0-.17,0-.33,0-.49-.2.46-.42.93-.66,1.42-.24.49-.48.97-.74,1.45s-.52.94-.8,1.38c-.27.44-.55.84-.82,1.21-.27.36-.54.67-.81.92-.27.25-.52.43-.76.53-.21.09-.4.15-.55.19s-.3.06-.42.06c-.18,0-.32-.04-.41-.11-.09-.07-.13-.16-.13-.27,0-.13.05-.26.16-.39.11-.14.25-.24.45-.32.23-.09.49-.29.76-.6.28-.31.56-.69.85-1.13s.59-.94.89-1.49c.3-.55.59-1.1.87-1.66.28-.56.54-1.11.79-1.65.25-.54.47-1.02.66-1.46.19-.43.35-.8.47-1.09.12-.29.2-.47.23-.54.07-.16.17-.27.3-.34.13-.07.25-.11.39-.11.18,0,.31.05.38.15.07.1.11.27.11.53.04.32.07.62.1.9.03.28.05.57.07.86.02.3.03.61.04.96s.01.73.01,1.18c0,.32,0,.67-.02,1.05s-.02.81-.02,1.29c.61-1.1,1.14-2.07,1.61-2.92.47-.84.87-1.55,1.22-2.11.35-.57.64-1,.88-1.29.24-.29.43-.44.57-.44h.05s.03,0,.04,0c.02,0,.03,0,.05,0,.12,0,.22.08.29.23.07.15.11.35.11.59-.02.25-.05.56-.09.92-.04.37-.09.77-.14,1.22-.05.44-.11.91-.17,1.4s-.12.98-.18,1.46-.12.95-.17,1.41-.1.87-.13,1.24c0,.07-.01.13-.01.2v.21c0,.13,0,.26,0,.4,0,.13,0,.27,0,.4,0,.15,0,.3-.02.46s-.06.29-.12.42-.18.22-.32.3-.35.12-.61.12c-.14,0-.25-.05-.33-.16-.08-.1-.12-.29-.12-.56Z"/>
    <path class="cls-2" d="m105.71,216.98c-.09.09-.21.2-.36.36-.15.15-.32.32-.52.49-.2.18-.4.36-.62.53-.22.18-.44.34-.67.49-.23.15-.46.27-.68.36-.22.09-.43.14-.63.14-.18,0-.33-.04-.45-.11-.13-.08-.23-.17-.31-.3-.08-.12-.15-.26-.19-.41-.04-.15-.06-.31-.06-.47,0-.11,0-.21.02-.31.01-.1.04-.2.08-.29-.16.21-.33.43-.53.66-.2.23-.41.43-.64.61-.23.18-.47.34-.72.46-.25.12-.5.18-.76.18-.13,0-.28-.03-.46-.08-.17-.05-.34-.14-.5-.26-.16-.12-.29-.28-.39-.47-.11-.19-.16-.43-.16-.71,0-.21.03-.46.09-.74s.16-.59.29-.9c.13-.31.29-.62.49-.92.2-.3.44-.57.71-.81.27-.24.58-.43.93-.58.35-.15.74-.22,1.17-.22.22,0,.42.03.58.08s.31.12.42.18c.13.08.25.17.35.27.09-.05.17-.09.26-.13.08-.04.16-.07.24-.09.08-.03.16-.04.22-.04.19,0,.35.05.47.16.12.11.18.22.18.35,0,.04,0,.06,0,.08-.03.1-.06.22-.12.36-.05.15-.11.31-.18.49-.07.18-.13.37-.2.56-.07.19-.13.38-.19.57-.06.19-.1.36-.14.53-.04.17-.05.3-.05.42,0,.15.03.28.08.38s.14.15.26.15c.08,0,.17-.02.27-.07s.22-.11.34-.19.25-.17.38-.28.25-.21.38-.31c.28-.25.58-.54.9-.86.08-.07.16-.1.23-.1.1,0,.19.05.25.15.07.1.1.21.1.33,0,.14-.05.26-.14.36Zm-5.25-1.96c-.24,0-.47.06-.69.18-.22.12-.42.28-.59.48-.17.2-.31.42-.41.66-.1.25-.15.49-.15.74,0,.1,0,.21.02.31.01.11.04.21.09.3.05.09.11.17.19.23.08.06.2.09.34.09.11,0,.24-.05.39-.15.15-.1.3-.23.46-.38.16-.15.31-.32.47-.51.15-.18.29-.37.41-.54.12-.18.22-.34.3-.48.08-.14.11-.25.11-.31,0-.1-.03-.18-.1-.26-.07-.08-.15-.15-.24-.2-.1-.06-.2-.1-.31-.12-.11-.03-.2-.04-.28-.04Z"/>
    <path class="cls-2" d="m109.53,217.62s0,.02,0,.04c0,.02,0,.03,0,.04,0,.09.02.19.07.28.05.1.12.15.22.15.04,0,.07,0,.09-.01.29-.09.58-.22.88-.41.3-.19.58-.39.85-.61.27-.22.52-.45.75-.68.23-.23.42-.44.57-.62.07-.09.15-.13.24-.13.08,0,.14.04.2.11.06.07.09.17.09.29,0,.1-.03.21-.08.34-.05.13-.14.27-.26.42-.3.33-.6.64-.92.95-.31.3-.63.57-.95.81-.32.24-.63.42-.95.57-.32.14-.62.21-.93.21-.37,0-.66-.1-.87-.31-.21-.21-.32-.52-.32-.94v-.08s0-.05,0-.08c-.12.21-.27.41-.45.58-.18.17-.38.32-.6.45-.22.12-.44.22-.67.29s-.46.1-.67.1c-.19,0-.36-.03-.52-.08-.16-.05-.29-.13-.41-.24-.11-.11-.2-.25-.27-.42-.06-.17-.09-.38-.09-.62,0-.42.07-.83.2-1.21.13-.38.31-.73.52-1.05.22-.32.47-.61.75-.86.28-.25.57-.47.87-.65.3-.18.6-.32.9-.41.3-.1.57-.14.82-.14.29,0,.54.05.74.14.1.05.19.12.28.2.02-.04.04-.09.06-.13.05-.12.1-.23.14-.31.04-.09.07-.15.08-.19.01-.04.06-.15.13-.32.07-.17.15-.36.25-.59s.19-.47.3-.72c.11-.26.21-.5.3-.73.09-.23.17-.42.24-.59.07-.16.11-.27.12-.31.04-.13.08-.25.14-.37.06-.12.13-.22.22-.31.08-.09.18-.16.29-.21.11-.05.24-.08.38-.08.19,0,.35.04.48.12.13.08.19.24.19.48,0,.1-.01.19-.04.3-.03.1-.05.2-.09.3-.03.1-.07.19-.11.28-.04.09-.07.18-.1.26-.25.51-.52,1.06-.8,1.65-.28.59-.55,1.19-.83,1.79-.27.6-.53,1.19-.78,1.76-.25.57-.46,1.09-.65,1.55Zm-.23-2.96c-.3,0-.62.08-.96.2-.38.13-.74.33-1.05.59-.32.26-.59.58-.81.96-.22.38-.35.81-.38,1.3,0,.2.09.3.26.3.21,0,.41-.04.61-.13.19-.09.38-.21.55-.36.17-.15.34-.32.49-.51.15-.19.29-.39.42-.6.13-.21.25-.41.35-.62.1-.21.19-.4.27-.57.03-.06.06-.13.11-.24.04-.1.09-.2.14-.33Z"/>
    <path class="cls-2" d="m115.65,213.64c.42,0,.73.1.94.3.21.2.31.48.31.84,0,.21-.06.44-.17.67s-.3.47-.58.71c-.27.24-.64.49-1.1.74-.46.25-1.03.5-1.72.75.03.15.1.26.24.35.13.08.31.12.52.12.23,0,.48-.03.75-.1s.53-.16.79-.26c.26-.11.51-.22.76-.34.25-.12.47-.24.67-.35.2-.11.37-.21.5-.29.13-.08.22-.13.27-.15.05-.03.09-.05.12-.05.04,0,.07,0,.1,0,.06,0,.11.01.15.04.04.03.08.06.1.1.03.04.05.08.06.12.01.04.02.08.02.11,0,.05,0,.1-.02.16,0,.06-.05.13-.11.22-.03.03-.11.09-.25.21-.14.11-.33.24-.56.39-.23.15-.49.31-.79.48-.3.17-.62.33-.96.47-.34.14-.69.26-1.05.35-.36.09-.72.14-1.08.14-.3,0-.57-.06-.81-.17-.23-.12-.43-.27-.6-.47s-.29-.42-.38-.68-.13-.53-.13-.81c0-.22.04-.46.13-.72.09-.26.21-.52.37-.79.16-.26.36-.52.6-.77.23-.25.5-.47.79-.66.29-.19.62-.35.97-.46.35-.12.73-.17,1.13-.17Zm-.27,1.05s-.05,0-.07,0h-.07c-.19,0-.37.04-.54.11-.17.08-.32.18-.46.3s-.26.26-.37.42c-.11.16-.21.31-.29.47s-.16.3-.22.44c-.06.14-.1.26-.13.36.18-.09.36-.19.55-.31s.37-.23.53-.33.31-.2.44-.29.21-.14.26-.17c.23-.14.38-.27.47-.4s.13-.23.13-.32c0-.08-.02-.14-.07-.18-.05-.05-.1-.07-.16-.08Z"/>
    <path class="cls-2" d="m122.13,218.2c.3-.26.69-.55,1.16-.88s1.05-.69,1.72-1.1c.08-.04.15-.07.22-.07.11,0,.2.04.28.14s.11.2.11.33-.05.27-.15.43c-.1.15-.27.29-.51.41l-2.56,1.76c-.11.1-.21.19-.3.26-.09.07-.18.14-.26.21-.09.07-.18.14-.27.21s-.2.14-.31.22c-.25.42-.47.78-.67,1.08-.2.29-.39.54-.58.72-.19.18-.39.32-.59.41s-.43.13-.69.13c-.24,0-.4-.05-.5-.14-.09-.09-.14-.22-.14-.39,0-.16.07-.31.22-.47s.32-.32.52-.49c.2-.17.39-.35.59-.54.2-.19.35-.4.46-.62.14-.28.28-.59.44-.91.15-.32.31-.65.47-.99.16-.33.31-.67.47-1s.31-.65.46-.95c.14-.3.28-.58.41-.84s.24-.48.34-.66c.1-.19.23-.33.39-.42.16-.09.31-.13.47-.13.16,0,.3.04.42.14.12.09.17.22.17.39,0,.11,0,.21-.03.3s-.05.19-.1.31c-.05.11-.12.25-.2.41-.08.16-.19.36-.32.6-.13.24-.29.54-.47.88-.18.35-.4.76-.64,1.25Zm1.33-5.59c0-.12.03-.24.08-.36.05-.12.12-.24.21-.34.09-.1.2-.18.33-.25.13-.07.29-.1.46-.1.28,0,.47.05.59.16.11.1.17.23.17.39,0,.1-.02.21-.06.33-.04.12-.1.23-.17.34s-.18.19-.31.27c-.13.07-.28.11-.45.11-.31,0-.53-.05-.66-.15-.12-.1-.19-.23-.19-.39Z"/>
    <path class="cls-2" d="m132.98,217.35c-.22.25-.48.5-.78.74-.3.24-.6.45-.91.64-.31.19-.62.34-.92.45-.3.11-.58.17-.82.17s-.44-.07-.59-.21c-.15-.14-.23-.37-.23-.7,0-.23.04-.5.12-.81-.13.2-.3.4-.49.6-.2.2-.42.39-.67.55-.25.17-.54.3-.85.41-.31.1-.65.16-1.02.16-.17,0-.33-.02-.48-.05-.15-.04-.29-.1-.41-.18-.12-.08-.21-.2-.28-.34-.07-.14-.11-.32-.11-.54,0,0,0-.08.03-.23.02-.15.08-.38.19-.71.11-.32.28-.74.5-1.25s.55-1.13.96-1.86c.11-.19.23-.33.37-.41.14-.08.29-.12.45-.12.07,0,.14,0,.22.03.08.02.15.05.21.08s.12.09.16.14c.04.06.06.12.06.2,0,.05,0,.1-.02.14-.03.09-.08.2-.16.34-.08.14-.18.3-.29.48s-.23.37-.35.58c-.12.21-.24.42-.34.64-.11.22-.2.45-.27.68-.08.23-.12.45-.13.67,0,.09.03.17.08.25.05.08.13.11.25.11.33,0,.64-.09.94-.27s.57-.41.83-.68c.25-.27.48-.56.69-.87.2-.31.38-.6.51-.85.1-.17.18-.36.25-.55s.15-.38.24-.55.18-.31.3-.42c.11-.11.25-.17.42-.17.18,0,.33.06.43.17s.16.25.16.42c0,.09-.03.22-.1.38s-.15.34-.26.55c-.1.2-.22.42-.34.66s-.23.47-.34.71c-.1.24-.19.47-.26.71-.07.23-.1.44-.1.64,0,.18.11.27.33.27.16,0,.35-.04.58-.14.23-.09.48-.22.73-.38.25-.16.51-.36.77-.58.25-.22.48-.46.68-.72l.08,1.03Z"/>
    <path class="cls-2" d="m134.12,214.89c.31.16.58.35.83.55.24.21.45.43.62.66.17.23.3.46.39.7s.13.47.13.7c0,.29-.08.55-.25.78-.17.23-.38.42-.64.58s-.57.28-.91.36c-.34.08-.69.12-1.03.12-.26,0-.52-.03-.77-.09-.25-.06-.47-.15-.68-.27-.2-.12-.38-.28-.53-.47s-.25-.42-.31-.68c-.01-.04-.02-.07-.02-.1,0-.14.05-.25.14-.35.1-.1.2-.15.32-.15.06,0,.12,0,.19.03s.12.07.16.14c.07.12.16.23.28.33.12.1.25.18.4.25s.3.12.47.16.32.06.48.06.32-.02.47-.05c.15-.03.28-.08.39-.14.11-.07.2-.15.27-.25.07-.1.1-.22.1-.37,0-.26-.06-.5-.17-.71-.12-.22-.27-.42-.45-.6s-.39-.36-.63-.52c-.24-.16-.47-.31-.7-.46-.03-.01-.06-.06-.11-.13-.05-.07-.08-.15-.08-.22,0-.06.01-.11.04-.14.08-.11.17-.21.28-.33.11-.11.22-.21.34-.31s.25-.17.39-.23c.14-.06.29-.09.44-.09.11,0,.21.02.31.05.1.03.18.07.24.12s.12.1.16.16c.04.06.06.11.06.16,0,.07-.02.14-.05.2-.04.07-.08.13-.14.19-.06.06-.12.12-.2.18s-.15.12-.22.17Z"/>
    <path class="cls-2" d="m138.83,214.95c-.19.36-.36.72-.53,1.07-.17.35-.32.67-.47.96-.06.12-.12.26-.18.42-.06.16-.09.3-.09.42,0,.07.02.13.05.17.03.04.09.06.16.06.11,0,.24-.03.4-.09.16-.06.34-.15.52-.25s.38-.22.59-.36c.21-.13.41-.27.61-.42.2-.14.39-.29.57-.43.18-.14.34-.28.49-.4.08-.05.16-.08.23-.08.09,0,.16.04.21.11.06.08.08.17.08.29s-.03.24-.08.36-.16.24-.3.36c-.33.3-.66.58-1,.85-.34.27-.67.5-1,.71-.33.21-.66.37-.98.49s-.64.18-.94.18c-.2,0-.37-.03-.51-.08-.14-.05-.25-.13-.33-.22-.08-.09-.14-.2-.18-.33s-.05-.26-.05-.4c0-.25.04-.52.13-.79s.18-.52.29-.74c.15-.31.3-.62.45-.93.15-.31.29-.6.44-.89h-.33c-.28,0-.48-.04-.58-.14-.11-.09-.16-.2-.16-.31,0-.05.02-.11.05-.19.03-.07.08-.14.14-.2.06-.06.14-.12.23-.16.09-.05.19-.07.31-.07h.82l1.6-3.18c.1-.19.23-.33.38-.41.15-.08.3-.12.47-.12.15,0,.29.04.42.12.13.08.19.21.19.4,0,.1-.02.19-.06.29-.04.1-.1.21-.17.34-.05.09-.1.19-.17.31-.07.12-.13.25-.21.38s-.15.27-.23.42c-.08.15-.16.29-.23.42-.17.32-.35.67-.55,1.02h2.47c.12,0,.23,0,.33.02.1.01.19.04.26.08s.13.09.17.16c.04.07.06.15.06.27,0,.06,0,.11-.03.17-.02.06-.05.11-.1.15-.05.04-.11.08-.2.11-.08.03-.19.05-.32.06l-3.15.02Z"/>
    <path class="cls-2" d="m149.44,214.85c-.26.01-.51.02-.75.02s-.46,0-.69.01c-.22,0-.44,0-.66,0h-.66c-.13.26-.28.56-.44.9s-.34.7-.52,1.07-.36.75-.54,1.13c-.18.38-.35.74-.51,1.08-.16.34-.31.65-.44.92s-.24.49-.32.66c-.06.12-.12.22-.21.32-.08.1-.17.18-.26.25-.1.07-.19.12-.3.16-.1.04-.19.06-.28.06-.12,0-.23-.03-.33-.09-.1-.06-.14-.16-.14-.29,0-.07.01-.14.04-.23.03-.09.07-.19.13-.31l2.68-5.67h-.4c-.28,0-.47-.04-.57-.13-.1-.09-.15-.19-.15-.3s.06-.24.19-.35c.13-.11.31-.17.55-.17h.89c.36-.72.72-1.32,1.08-1.79s.72-.84,1.06-1.11c.35-.27.69-.46,1.02-.57s.65-.16.95-.16c.14,0,.28.03.41.08.13.06.24.14.34.25.1.11.18.25.24.42.06.17.09.37.09.6s-.03.46-.09.72c-.02.07-.05.13-.09.18-.04.05-.1.09-.15.12s-.11.05-.17.06-.1.02-.14.02c-.1,0-.19-.02-.28-.07-.09-.05-.13-.12-.13-.22,0-.07,0-.13.01-.18,0-.06.01-.11.01-.17,0-.21-.04-.36-.12-.45-.08-.09-.18-.14-.31-.14-.16,0-.34.07-.55.2-.21.14-.42.32-.64.55s-.42.49-.62.78c-.2.29-.36.59-.48.89h1.77c.16,0,.3,0,.44,0,.14,0,.26.02.36.04s.18.07.24.12.09.14.09.25c0,.06-.01.11-.03.17-.02.06-.05.11-.1.16s-.12.09-.2.12c-.09.03-.2.05-.33.06Z"/>
    <path class="cls-2" d="m151.34,213.65c.19,0,.4.03.62.08s.42.14.61.26c.19.12.34.28.47.48.12.2.19.45.19.74,0,.15-.02.33-.06.52-.04.19-.1.4-.18.61.05.06.11.1.17.13.07.03.14.04.21.04.11,0,.22-.03.35-.09.13-.06.26-.14.4-.23s.27-.21.41-.33c.14-.12.27-.24.39-.36.12-.12.23-.24.33-.35.1-.11.18-.2.25-.28.04-.04.08-.05.13-.05.07,0,.13.04.19.11s.08.18.08.31-.04.28-.12.45c-.08.17-.22.35-.44.54-.12.13-.26.28-.42.46-.16.17-.32.33-.5.49-.18.15-.36.28-.55.39-.19.11-.38.16-.58.16-.13,0-.26-.02-.38-.06-.12-.04-.25-.11-.38-.2-.18.28-.39.54-.62.77s-.49.43-.78.6c-.29.17-.59.3-.92.39-.33.09-.68.14-1.06.14-.14,0-.31-.03-.49-.08-.19-.06-.37-.15-.54-.28-.17-.13-.31-.3-.43-.5s-.17-.46-.17-.76c0-.2.03-.44.1-.73.07-.28.17-.58.3-.88.13-.3.3-.6.51-.89.21-.3.45-.56.73-.8.28-.24.61-.42.97-.57.36-.14.77-.22,1.21-.22Zm-.39,1.33c-.24,0-.47.06-.69.18-.22.12-.41.28-.58.47-.17.19-.3.41-.41.66-.1.25-.15.5-.15.75,0,.1,0,.2.02.32.02.11.05.22.09.32.05.1.12.18.21.25s.21.1.36.1c.23,0,.46-.06.68-.19.22-.12.42-.29.59-.49.17-.2.31-.43.41-.68.1-.25.15-.51.15-.77,0-.1,0-.21-.02-.31-.01-.11-.04-.21-.09-.3-.05-.09-.12-.17-.21-.22-.09-.06-.21-.09-.37-.09Z"/>
    <path class="cls-2" d="m157.12,214.74c.2-.12.4-.23.61-.33.21-.1.41-.19.61-.26.2-.07.39-.13.57-.17.18-.04.34-.06.48-.06.23,0,.4.05.53.16s.19.29.19.55c0,.06,0,.11,0,.18,0,.06-.01.13-.03.2-.03.13-.1.29-.23.46-.13.18-.27.36-.44.55-.17.19-.35.39-.54.58-.2.19-.37.37-.54.54-.17.16-.3.31-.41.43-.11.12-.16.21-.16.25,0,.04,0,.07,0,.08,0,.01.03.02.07.02.27-.12.58-.26.91-.42.34-.16.67-.33,1-.5.33-.17.65-.34.95-.5s.55-.31.76-.43c.05-.02.09-.05.14-.06.05-.02.09-.03.13-.03.09,0,.17.03.23.09.06.06.09.14.09.24,0,.12-.05.25-.15.4-.1.15-.26.3-.5.47-.18.11-.38.24-.59.38s-.45.28-.69.43c-.24.15-.48.29-.73.44s-.48.27-.71.38c-.23.11-.44.2-.64.27-.2.07-.37.1-.52.1-.35,0-.61-.08-.78-.25-.17-.17-.26-.38-.26-.64,0-.04,0-.07,0-.09.04-.22.1-.44.2-.64.1-.21.21-.4.33-.59.12-.19.25-.37.38-.53.13-.17.25-.33.36-.48.11-.15.2-.29.27-.41.07-.13.11-.24.11-.35,0-.03,0-.05-.01-.08-.01-.03-.03-.04-.07-.04-.06,0-.16.02-.3.07s-.29.11-.44.18c-.16.08-.31.16-.45.26s-.24.2-.3.31c-.08.14-.17.32-.28.54-.11.22-.22.45-.33.68-.11.24-.22.47-.33.71-.11.23-.2.43-.27.6-.06.15-.14.28-.24.39-.1.12-.21.21-.32.3s-.23.14-.36.19c-.12.05-.23.07-.33.07-.12,0-.21-.03-.28-.09s-.1-.16-.1-.3c0-.06,0-.12.03-.21.02-.08.05-.18.11-.28.09-.17.18-.36.28-.56s.2-.43.32-.69c.12-.26.26-.56.42-.89s.35-.72.56-1.16c-.07-.06-.13-.14-.18-.22-.05-.09-.07-.2-.07-.33,0-.12.03-.23.08-.31.05-.09.12-.16.21-.22s.19-.1.3-.12c.11-.03.23-.04.36-.04s.26.01.39.03c.13.02.25.06.35.1.1.04.19.1.25.17.07.07.1.14.1.23,0,.02,0,.04-.02.06s-.02.05-.03.08-.02.06-.03.08c0,.03-.01.05-.01.06,0,.01,0,.02,0,.02h.02Z"/>
    <path class="cls-2" d="m169.08,214.35c.14-.11.26-.2.36-.25.1-.06.18-.1.25-.13.07-.03.13-.04.19-.05.06,0,.12,0,.18,0,.11,0,.18.04.23.12s.07.16.07.25c0,.07-.01.14-.04.2l-1.7,3.54c.24-.18.52-.36.84-.53.32-.17.62-.33.91-.47.29-.14.54-.25.75-.34s.33-.13.36-.13c.13,0,.24.05.33.14.1.1.14.22.14.36,0,.13-.05.27-.15.42s-.27.29-.52.42c-.35.2-.66.37-.92.5-.26.14-.5.26-.7.38s-.38.21-.54.3c-.16.09-.3.18-.44.28-.14.1-.28.2-.41.31s-.28.24-.44.38c-.12.3-.23.59-.34.87-.11.28-.22.52-.31.74-.09.21-.17.38-.23.51-.06.13-.09.2-.1.21-.41.85-.86,1.27-1.35,1.27-.2,0-.37-.07-.49-.2-.13-.13-.19-.31-.19-.54,0-.21.03-.42.08-.63.05-.21.15-.44.28-.69.13-.25.31-.53.53-.85.22-.31.5-.68.83-1.09l1.52-3.07c-.76.9-1.45,1.59-2.06,2.06-.62.48-1.19.71-1.73.71-.17,0-.32-.04-.44-.12s-.18-.21-.18-.39c0-.25.06-.54.18-.86.07-.17.14-.33.21-.47.07-.14.14-.29.22-.43.08-.14.16-.3.24-.47.08-.17.17-.35.27-.56s.21-.45.33-.73.25-.6.4-.97c.1-.2.23-.34.39-.43.16-.09.32-.13.47-.13s.29.04.4.11.16.17.16.29c0,.06-.01.11-.03.16l-1.39,2.89c-.07.15-.11.26-.11.35,0,.08.03.11.09.11.06,0,.13-.03.21-.08s.17-.12.24-.19l3.13-3.08Z"/>
    <path class="cls-2" d="m174.59,213.65c.19,0,.4.03.62.08s.42.14.61.26c.19.12.34.28.47.48.12.2.19.45.19.74,0,.15-.02.33-.06.52-.04.19-.1.4-.18.61.05.06.11.1.17.13.07.03.14.04.21.04.11,0,.22-.03.35-.09.13-.06.26-.14.4-.23s.27-.21.41-.33c.14-.12.27-.24.39-.36.12-.12.23-.24.33-.35.1-.11.18-.2.25-.28.04-.04.08-.05.13-.05.07,0,.13.04.19.11s.08.18.08.31-.04.28-.12.45c-.08.17-.22.35-.44.54-.12.13-.26.28-.42.46-.16.17-.32.33-.5.49-.18.15-.36.28-.55.39-.19.11-.38.16-.58.16-.13,0-.26-.02-.38-.06-.12-.04-.25-.11-.38-.2-.18.28-.39.54-.62.77s-.49.43-.78.6c-.29.17-.59.3-.92.39-.33.09-.68.14-1.06.14-.14,0-.31-.03-.49-.08-.19-.06-.37-.15-.54-.28-.17-.13-.31-.3-.43-.5s-.17-.46-.17-.76c0-.2.03-.44.1-.73.07-.28.17-.58.3-.88.13-.3.3-.6.51-.89.21-.3.45-.56.73-.8.28-.24.61-.42.97-.57.36-.14.77-.22,1.21-.22Zm-.39,1.33c-.24,0-.47.06-.69.18-.22.12-.41.28-.58.47-.17.19-.3.41-.41.66-.1.25-.15.5-.15.75,0,.1,0,.2.02.32.02.11.05.22.09.32.05.1.12.18.21.25s.21.1.36.1c.23,0,.46-.06.68-.19.22-.12.42-.29.59-.49.17-.2.31-.43.41-.68.1-.25.15-.51.15-.77,0-.1,0-.21-.02-.31-.01-.11-.04-.21-.09-.3-.05-.09-.12-.17-.21-.22-.09-.06-.21-.09-.37-.09Z"/>
    <path class="cls-2" d="m185.79,217.35c-.22.25-.48.5-.78.74-.3.24-.6.45-.91.64-.31.19-.62.34-.92.45-.3.11-.58.17-.82.17s-.44-.07-.59-.21c-.15-.14-.23-.37-.23-.7,0-.23.04-.5.12-.81-.13.2-.3.4-.49.6-.2.2-.42.39-.67.55-.25.17-.54.3-.85.41-.31.1-.65.16-1.02.16-.17,0-.33-.02-.48-.05-.15-.04-.29-.1-.41-.18-.12-.08-.21-.2-.28-.34-.07-.14-.11-.32-.11-.54,0,0,0-.08.03-.23.02-.15.08-.38.19-.71.11-.32.28-.74.5-1.25s.55-1.13.96-1.86c.11-.19.23-.33.37-.41.14-.08.29-.12.45-.12.07,0,.14,0,.22.03.08.02.15.05.21.08s.12.09.16.14c.04.06.06.12.06.2,0,.05,0,.1-.02.14-.03.09-.08.2-.16.34-.08.14-.18.3-.29.48s-.23.37-.35.58c-.12.21-.24.42-.34.64-.11.22-.2.45-.27.68-.08.23-.12.45-.13.67,0,.09.03.17.08.25.05.08.13.11.25.11.33,0,.64-.09.94-.27s.57-.41.83-.68c.25-.27.48-.56.69-.87.2-.31.38-.6.51-.85.1-.17.18-.36.25-.55s.15-.38.24-.55.18-.31.3-.42c.11-.11.25-.17.42-.17.18,0,.33.06.43.17s.16.25.16.42c0,.09-.03.22-.1.38s-.15.34-.26.55c-.1.2-.22.42-.34.66s-.23.47-.34.71c-.1.24-.19.47-.26.71-.07.23-.1.44-.1.64,0,.18.11.27.33.27.16,0,.35-.04.58-.14.23-.09.48-.22.73-.38.25-.16.51-.36.77-.58.25-.22.48-.46.68-.72l.08,1.03Z"/>
    <path class="cls-2" d="m188.36,218.11c0,.16-.03.31-.09.45-.06.14-.14.27-.24.38-.1.11-.21.2-.34.26-.13.06-.27.09-.42.09-.12,0-.24-.02-.34-.07-.11-.05-.2-.11-.28-.19-.08-.08-.14-.18-.19-.29-.04-.11-.07-.22-.07-.34,0-.15.03-.3.09-.44.06-.14.14-.26.24-.37.1-.11.22-.19.36-.25.14-.06.28-.09.44-.09.25,0,.45.08.6.25.15.17.23.37.23.62Z"/>
    <path class="cls-2" d="m193.9,218.11c0,.16-.03.31-.09.45-.06.14-.14.27-.24.38-.1.11-.21.2-.34.26-.13.06-.27.09-.42.09-.12,0-.24-.02-.34-.07-.11-.05-.2-.11-.28-.19-.08-.08-.14-.18-.19-.29-.04-.11-.07-.22-.07-.34,0-.15.03-.3.09-.44.06-.14.14-.26.24-.37.1-.11.22-.19.36-.25.14-.06.28-.09.44-.09.25,0,.45.08.6.25.15.17.23.37.23.62Z"/>
    <path class="cls-2" d="m199.45,218.11c0,.16-.03.31-.09.45-.06.14-.14.27-.24.38-.1.11-.21.2-.34.26-.13.06-.27.09-.42.09-.12,0-.24-.02-.34-.07-.11-.05-.2-.11-.28-.19-.08-.08-.14-.18-.19-.29-.04-.11-.07-.22-.07-.34,0-.15.03-.3.09-.44.06-.14.14-.26.24-.37.1-.11.22-.19.36-.25.14-.06.28-.09.44-.09.25,0,.45.08.6.25.15.17.23.37.23.62Z"/>
  </g>
</svg>