<?xml version="1.0" encoding="UTF-8"?>
<svg id="Design" xmlns="http://www.w3.org/2000/svg" viewBox="0 0 566.93 283.46">
  <defs>
    <style>
      .cls-1 {
        fill: #fff;
        stroke-width: 0px;
      }
    </style>
  </defs>
  <g>
    <g>
      <path class="cls-1" d="m79.64,184.03c3.95,5.71,8.51,10.59,13.61,14.74,6.35,5.17,13.23,8.9,20.65,11.15,4.93,1.5,9.94,2.29,15.03,2.37,5.27.08,10.47-.48,15.61-1.89,5.11-1.4,10.02-3.48,14.71-6.31.29-.18.59-.33.88-.49.05-.03.11-.02.21-.04.93.85,1.67,1.97,2.36,3.12,1.85,3.04,3.06,6.46,3.72,10.14.39,2.16.55,4.39.83,6.58.32,2.49.77,4.92,1.77,7.17,1.45,3.28,3.62,5.23,6.71,5.5,1.67.15,3.11-.67,4.47-1.72,2.94-2.28,4.64-5.56,5.03-9.76.23-2.47-.02-4.94-.57-7.35-2.23-9.76-7.24-16.47-14.97-20.18-.11-.05-.22-.11-.33-.17-.02-.01-.04-.04-.12-.16,4.02-3.6,7.64-7.73,10.95-12.27,0-.17-.01-.34-.02-.5-1.16.98-2.32,1.95-3.49,2.93-4.6,3.85-9.49,7.06-14.63,9.69-6.41,3.28-13.06,5.52-19.94,6.74-5.97,1.06-11.96,1.31-17.97.8-7.63-.64-15.03-2.54-22.22-5.69-5.61-2.46-10.97-5.59-15.99-9.52-1.98-1.55-3.87-3.25-5.8-4.89-.05-.04-.11-.04-.17-.06-.11.02-.22.05-.33.07Zm95.17,32.77c-1.6-7-4.31-13.01-9.96-16.51.39-.31.73-.58,1.07-.85.36-.29.73-.59,1.12-.91,5.37,4.37,7.55,10.69,7.77,18.27Z"/>
      <path class="cls-1" d="m189.34,179.64c.43.06.85.13,1.28.17,3.45.3,6.89.28,10.27-.76,1.55-.48,3.03-1.17,4.34-2.32.9-.79,1.65-1.74,2.19-2.91,1.08-2.31,1.03-4.63-.18-6.8-1.17-2.1-2.88-3.05-4.96-2.68-2.18.4-3.62,1.96-4.26,4.54-.67,2.71-2.08,4.79-3.75,6.65-1.2,1.34-2.56,2.41-4.01,3.32-.31.2-.62.39-.93.58,0,.07.01.14.02.22Zm12.04-7.35c.7-.92,1.22-1.89,1.32-3.13.01-.14.08-.27.14-.39.31-.65.97-.91,1.53-.61.57.32.9,1.2.59,1.89-.22.48-.55.94-.92,1.25-.78.66-1.69.93-2.66.99Z"/>
      <path class="cls-1" d="m186.6,192.05c1.79,1.05,3.07,2.72,4.2,4.63,1.09,1.84,3.05,2.43,4.73,1.51,1.64-.9,2.56-3.1,2.2-5.22-.39-2.25-1.88-3.83-3.75-3.79-2.58.05-4.98.96-7.18,2.61-.07.05-.11.15-.19.27Zm8.14-.9c.79.17,1.46.66,1.74,1.27.25.55.2,1.17-.13,1.59-.31.39-.82.5-1.22.25-.4-.24-.64-.77-.58-1.34.06-.59.13-1.19.2-1.78Z"/>
    </g>
    <g>
      <path class="cls-1" d="m159.31,154.29c-.28,1.41-.91,2.77-1.9,3.95-9.94,11.81-21.16,14.29-28.82,14.29-5.3,0-10.54-1.2-15.18-3.47-13.43-6.58-20.38-20.61-17.31-34.92.15-.71.32-1.42.5-2.11-1.35.91-2.95,1.45-4.67,1.51-.03,0-.22,0-.28,0-3.51,0-6.71-2.05-8.15-5.22l-2.57-5.66c-.17-.38-.54-.59-.8-.59-1.17.06-2.33.09-3.46.09-1.36,5.25-2.04,10.86-2.04,16.82,0,11.04,2.29,20.85,6.86,29.42,4.58,8.57,11.07,15.25,19.48,20.03,8.41,4.79,18.09,7.18,29.02,7.18,13.88,0,25.55-3.71,35.02-11.12,9.46-7.41,15.56-17.48,18.3-30.21h-24.01Zm5.71-60.65c-7.03-5.51-15.28-8.97-24.75-10.38-.99,1.7-2.14,3.32-3.44,4.83l-4.79,5.61c-1.07,1.26-1.34,3-.71,4.56,1.05,2.57,2.17,5.07,3.35,7.46,10.25,1.64,19.96,7.37,23.94,14.39.7,1.23,1.22,2.48,1.58,3.74h23.12c-2.73-12.72-8.83-22.79-18.3-30.21Z"/>
      <path class="cls-1" d="m128.58,166.48c-4.67,0-9-1.13-12.52-2.85-10.89-5.33-16.54-16.67-14.05-28.21,3.94-18.34,15.68-22.79,22.33-23.81.06,0,.11-.02.17-.03-1.6-3.19-2.98-6.26-4.06-8.9-2.3-5.64-1.28-12,2.66-16.61l4.79-5.61c2.16-2.52,3.69-5.47,4.44-8.52,1.02-4.15.06-9.37-2.46-13.29-1.73-2.69-3.93-4.41-6.2-4.84-9.45-1.8-16.63-.33-20.94,4.26,5.38,6.36,8.44,14.36,7.09,19.92-.83,3.43-3.31,5.7-6.8,6.24-2.93.45-5.7-1.03-7.62-4.07-3.2-5.07-3.9-14.12-.02-21.49-.63-.55-1.28-1.08-1.96-1.57-4.58-3.33-11.8-6.23-20.12-1.11-5.94,3.65-7.5,9.14-7.46,13.99,9.08,1.45,18.46,7.28,22,14.15,2.1,4.07,1.9,8.13-.56,11.43-2.32,3.12-5.63,4.33-9.31,3.42-7.49-1.85-15.26-12.55-17.31-23.63-4.81.26-8.2,2.45-10.09,6.51-3.25,7.02-3.18,13.39.2,18.4,4.7,6.97,15.45,10.73,28.74,10.06,5.09-.25,9.95,2.75,12.09,7.47l.02.03c4.66-8.13,12.11-13.77,22.23-16.8,1.51-.46,3.1.4,3.55,1.91.45,1.51-.4,3.1-1.91,3.55-10.72,3.21-17.67,9.48-21.23,19.14-.4,1.08-1.41,1.82-2.57,1.86-1.15.02-2.22-.62-2.7-1.67l-2.58-5.67c-1.19-2.61-3.84-4.27-6.62-4.13-15.53.77-27.83-3.8-33.75-12.56-4.5-6.66-4.73-15.18-.65-23.98,2.74-5.91,7.94-9.36,14.73-9.8.03-7.98,3.55-14.46,10.18-18.55,8.59-5.28,17.99-4.81,26.46,1.35.67.48,1.32,1,1.95,1.54,4.04-4.17,11.82-8.53,26.01-5.83,3.82.73,7.35,3.34,9.93,7.36,3.37,5.25,4.59,12.05,3.19,17.73-.96,3.91-2.91,7.66-5.64,10.86l-4.79,5.61c-2.55,2.98-3.2,7.11-1.71,10.76,1.6,3.92,3.3,7.55,5.04,10.82,10.02.65,19.35,6.02,22.59,11.74,1.99,3.51,1.78,7.15-.56,9.99-1.86,2.25-4.39,3.27-7.13,2.84-6.35-.97-13.04-9.71-18.26-18.9-.73.04-1.47.12-2.21.23-9.1,1.39-15.2,8.09-17.62,19.37-1.95,9.07,2.36,17.67,10.99,21.89,7.59,3.72,19.97,3.9,29.84-7.84,1.01-1.2,2.81-1.36,4.02-.35,1.2,1.01,1.36,2.81.35,4.02-7.52,8.94-16.34,12.14-24.2,12.14Zm5.77-48.91c4.81,7.65,9.42,12.28,12.18,12.71.62.1,1.18-.01,1.87-.84.36-.43,1.19-1.44,0-3.54-1.81-3.19-7.37-6.9-14.05-8.32Zm-67.73-41.64c2.14,8.79,8.27,16.43,12.73,17.53,1.43.35,2.43-.03,3.37-1.29.42-.56,1.69-2.27.06-5.42-2.29-4.43-9.03-9.19-16.17-10.83Zm32.96-12.69c-1.97,5.29-1.11,11.09.66,13.88.31.49,1.1,1.6,1.93,1.48,1.22-.19,1.84-.75,2.13-1.95.76-3.12-1.1-8.55-4.72-13.41Z"/>
    </g>
  </g>
  <g>
    <g>
      <path class="cls-1" d="m261.77,185.57c.1-.93.22-2.01.36-3.24.14-1.23.29-2.51.46-3.85.16-1.34.33-2.69.5-4.05.17-1.36.33-2.63.5-3.81-.58,1.11-1.16,2.22-1.74,3.34-.59,1.12-1.14,2.18-1.67,3.18-.53,1-1.01,1.92-1.45,2.73s-.8,1.47-1.07,1.97c-.25.34-.5.66-.75.96-.25.3-.5.57-.74.8-.24.23-.49.41-.73.55-.24.14-.47.2-.7.2-.3,0-.55-.06-.73-.2-.18-.13-.27-.33-.27-.59,0-.05,0-.11,0-.16,0-.05.02-.1.04-.15-.07-1.54-.11-3.1-.15-4.67-.03-1.57-.05-3.11-.05-4.63v-1.08c0-.36,0-.71.02-1.06-.43.98-.91,1.99-1.42,3.05-.51,1.05-1.04,2.09-1.6,3.12-.55,1.03-1.12,2.01-1.71,2.96s-1.17,1.81-1.76,2.59-1.17,1.44-1.74,1.99c-.57.55-1.12.93-1.64,1.15-.46.18-.85.32-1.19.4-.34.08-.64.12-.9.12-.39,0-.68-.08-.87-.24-.19-.16-.29-.35-.29-.58,0-.27.11-.55.34-.85s.55-.52.96-.68c.5-.2,1.04-.63,1.64-1.3.59-.67,1.2-1.48,1.83-2.44.63-.96,1.27-2.02,1.91-3.19.64-1.17,1.26-2.36,1.87-3.57.6-1.21,1.17-2.39,1.7-3.54.53-1.16,1-2.2,1.42-3.14.41-.93.75-1.71,1.02-2.34.27-.62.43-1.01.5-1.16.15-.34.36-.58.64-.73s.55-.23.83-.23c.39,0,.66.11.81.32.15.21.23.59.23,1.13.09.68.16,1.33.22,1.93s.11,1.22.15,1.86c.04.63.07,1.32.09,2.05.02.73.02,1.58.02,2.53,0,.68-.01,1.44-.04,2.26-.03.83-.04,1.75-.04,2.77,1.3-2.37,2.46-4.46,3.46-6.26,1-1.81,1.88-3.32,2.62-4.54.74-1.22,1.37-2.14,1.88-2.77.51-.62.92-.94,1.22-.94h.11s.07,0,.1,0c.03,0,.06,0,.1,0,.26,0,.47.16.62.49.15.33.23.75.23,1.27-.04.53-.11,1.19-.2,1.99s-.19,1.66-.3,2.61c-.11.95-.24,1.95-.37,3.01-.13,1.05-.26,2.1-.39,3.14s-.25,2.04-.37,3.02c-.11.98-.21,1.86-.29,2.66-.02.14-.03.28-.03.43v.45c0,.28,0,.57.02.86.01.29.02.57.02.86,0,.33-.02.65-.05.99-.03.33-.12.63-.27.9-.15.27-.38.48-.69.65s-.75.25-1.3.25c-.29,0-.53-.11-.7-.33-.17-.22-.26-.62-.26-1.2Z"/>
      <path class="cls-1" d="m286.68,182.03c-.2.19-.46.44-.78.77-.33.33-.7.68-1.12,1.06s-.86.76-1.34,1.15c-.47.39-.96.74-1.45,1.05-.49.32-.98.57-1.46.77-.48.2-.93.3-1.35.3-.38,0-.71-.08-.98-.24s-.5-.38-.68-.64-.31-.56-.4-.89-.13-.67-.13-1.02c0-.23.02-.45.05-.68.03-.22.09-.43.16-.63-.34.46-.72.93-1.15,1.41-.43.48-.89.92-1.38,1.32s-1.01.72-1.55.98-1.08.38-1.64.38c-.28,0-.61-.06-.99-.17-.38-.11-.73-.3-1.07-.56s-.62-.6-.85-1.01c-.23-.41-.34-.92-.34-1.51,0-.45.07-.98.2-1.6.14-.62.34-1.26.62-1.93.28-.67.63-1.33,1.06-1.98s.94-1.24,1.52-1.75c.59-.52,1.25-.93,2-1.25.75-.32,1.59-.48,2.51-.48.48,0,.9.06,1.25.18.36.12.66.25.91.39.28.17.53.36.75.57.18-.1.38-.19.57-.28.16-.08.33-.14.51-.2s.33-.09.46-.09c.41,0,.75.11,1.01.34.26.23.39.48.39.75,0,.08,0,.14-.02.18-.05.21-.14.47-.25.78-.11.31-.24.67-.38,1.05-.14.39-.29.79-.43,1.21-.15.42-.28.83-.4,1.23-.12.4-.22.78-.29,1.13-.08.35-.11.65-.11.9,0,.33.05.59.16.81.11.21.29.32.55.32.16,0,.36-.05.58-.15s.46-.24.73-.42c.26-.17.53-.37.81-.59.28-.22.55-.45.81-.68.61-.54,1.25-1.16,1.94-1.86.17-.14.34-.21.5-.21.22,0,.4.11.55.32.15.21.22.45.22.71,0,.3-.1.56-.31.77Zm-11.29-4.2c-.51,0-1,.13-1.48.39s-.9.6-1.27,1.03c-.37.42-.66.9-.88,1.42-.22.53-.33,1.06-.33,1.59,0,.22.01.44.04.68.03.23.09.45.19.64s.24.36.42.49c.18.13.42.2.72.2.24,0,.52-.11.84-.32.32-.21.65-.48.99-.81.34-.33.68-.7,1-1.09s.62-.79.88-1.17c.26-.38.47-.72.64-1.03.16-.3.24-.53.24-.67,0-.21-.07-.39-.21-.56-.14-.17-.32-.31-.52-.43-.21-.12-.43-.21-.66-.27-.23-.06-.44-.09-.61-.09Z"/>
      <path class="cls-1" d="m294.91,183.42s-.02.05-.02.08,0,.06-.02.08c0,.2.05.4.15.61s.25.32.47.32c.09,0,.15-.01.2-.03.62-.18,1.25-.48,1.88-.88.64-.4,1.25-.84,1.83-1.32.59-.48,1.13-.97,1.62-1.47.49-.5.9-.94,1.23-1.34.15-.18.32-.28.5-.28.16,0,.31.08.43.23.12.15.19.36.19.62,0,.21-.06.45-.17.73-.11.28-.3.59-.56.91-.64.71-1.3,1.38-1.97,2.04-.67.65-1.35,1.23-2.04,1.74s-1.37.91-2.04,1.21c-.68.3-1.34.46-2,.46-.79,0-1.42-.23-1.87-.68-.46-.45-.68-1.13-.68-2.03v-.17c0-.06,0-.12.02-.17-.25.46-.57.87-.96,1.25-.39.37-.82.7-1.29.96-.47.27-.95.47-1.45.62-.5.15-.98.22-1.45.22-.4,0-.77-.05-1.11-.16-.34-.11-.63-.28-.87-.52-.24-.24-.43-.54-.57-.91-.14-.37-.2-.81-.2-1.34,0-.91.14-1.78.42-2.6.28-.82.66-1.57,1.12-2.26.47-.69,1-1.31,1.6-1.86.6-.55,1.23-1.02,1.87-1.4.65-.39,1.29-.68,1.93-.89.64-.21,1.23-.31,1.76-.31.62,0,1.15.1,1.6.31.22.11.42.25.6.44.04-.1.09-.19.13-.28.11-.26.21-.49.29-.68.09-.19.15-.33.18-.42.03-.1.12-.33.28-.68.15-.36.33-.78.53-1.26.2-.48.42-1,.65-1.56.23-.55.45-1.08.64-1.56.2-.49.36-.91.5-1.26s.23-.58.26-.68c.08-.27.18-.54.31-.79.13-.25.29-.48.46-.67.18-.19.39-.34.63-.46.24-.11.51-.17.81-.17.41,0,.75.09,1.03.27.27.18.41.52.41,1.04,0,.21-.03.42-.08.63-.05.22-.12.43-.19.64-.07.21-.15.41-.23.61s-.15.39-.22.56c-.54,1.09-1.11,2.27-1.71,3.54s-1.19,2.56-1.78,3.85c-.59,1.29-1.15,2.55-1.68,3.78-.53,1.23-1,2.34-1.4,3.32Zm-.49-6.37c-.65.02-1.34.16-2.05.42-.83.28-1.58.7-2.26,1.26-.68.56-1.26,1.25-1.74,2.06-.47.81-.74,1.75-.81,2.8,0,.43.18.65.55.65.46,0,.89-.09,1.3-.29.41-.19.81-.45,1.18-.77.38-.32.73-.69,1.05-1.1.33-.41.63-.84.9-1.29s.53-.89.75-1.33c.22-.44.42-.85.58-1.23.05-.12.13-.29.23-.5.09-.21.19-.44.31-.7Z"/>
      <path class="cls-1" d="m308.06,174.86c.9,0,1.57.22,2.02.65.45.43.67,1.04.67,1.81,0,.46-.12.93-.36,1.43-.24.5-.65,1.01-1.24,1.52-.59.52-1.37,1.04-2.35,1.58-.98.54-2.21,1.08-3.69,1.62.05.32.22.56.5.74.28.18.66.27,1.12.27.5,0,1.03-.07,1.6-.22s1.13-.33,1.69-.56c.56-.23,1.1-.48,1.64-.74.53-.27,1.01-.52,1.44-.76.43-.24.79-.45,1.08-.62.29-.17.48-.28.58-.33.1-.06.19-.1.27-.11s.15-.02.22-.02c.13,0,.24.03.33.09.09.06.16.13.22.21.06.08.1.17.12.26.02.09.03.17.03.24,0,.1-.01.21-.03.35-.02.14-.1.29-.24.46-.05.05-.24.2-.55.44s-.71.52-1.2.85c-.49.33-1.06.67-1.7,1.04-.65.36-1.33.7-2.05,1-.72.3-1.47.56-2.26.76-.78.2-1.55.3-2.31.3-.65,0-1.23-.12-1.73-.38-.5-.25-.93-.59-1.29-1.01s-.62-.91-.81-1.47c-.19-.55-.28-1.13-.28-1.74,0-.47.09-.98.28-1.54.18-.56.45-1.12.8-1.69.35-.57.77-1.12,1.28-1.65.5-.54,1.07-1.01,1.7-1.42.63-.41,1.32-.74,2.08-.99s1.56-.38,2.42-.38Zm-.59,2.25c-.05-.01-.1-.02-.15-.02h-.15c-.41,0-.8.08-1.16.24-.36.16-.69.38-.99.64-.3.27-.56.57-.8.9-.23.34-.44.67-.63,1s-.34.65-.46.95c-.12.3-.22.56-.29.77.38-.2.77-.42,1.18-.67s.79-.49,1.15-.72c.36-.23.67-.43.94-.62s.45-.31.56-.38c.49-.3.83-.59,1.01-.86.18-.27.28-.5.28-.69,0-.16-.05-.29-.15-.39s-.22-.16-.35-.18Z"/>
      <path class="cls-1" d="m321.99,184.66c.65-.55,1.48-1.18,2.5-1.88,1.02-.7,2.25-1.49,3.71-2.37.16-.1.32-.15.47-.15.24,0,.44.1.59.29.16.2.24.43.24.72s-.11.59-.33.92-.58.63-1.09.89l-5.51,3.78c-.24.22-.45.41-.64.56s-.38.31-.57.46c-.19.15-.39.29-.59.44-.2.15-.43.31-.68.48-.53.91-1.01,1.69-1.43,2.32-.42.64-.84,1.15-1.25,1.55s-.84.69-1.27.87c-.43.18-.93.28-1.48.28-.51,0-.87-.1-1.07-.3-.2-.2-.3-.48-.3-.84,0-.34.16-.68.47-1.02.31-.34.68-.69,1.11-1.06.42-.36.85-.75,1.28-1.16s.76-.85.99-1.33c.29-.61.61-1.26.94-1.96.33-.69.67-1.4,1-2.12.34-.72.68-1.43,1.02-2.14.34-.71.67-1.39.98-2.04.31-.65.6-1.25.88-1.8.28-.55.52-1.03.72-1.42.22-.41.5-.71.84-.9.34-.19.68-.29,1-.29.35,0,.65.1.9.29.25.2.37.47.37.83,0,.24-.02.46-.06.65s-.11.42-.22.66c-.11.24-.25.54-.43.88-.18.34-.41.77-.69,1.29-.28.52-.62,1.15-1.01,1.9-.39.74-.85,1.64-1.38,2.7Zm2.87-12.02c.01-.25.07-.51.17-.77.1-.27.25-.51.45-.72.2-.22.43-.4.72-.54.28-.14.61-.21.99-.21.6,0,1.02.11,1.26.33.24.22.37.5.37.84,0,.22-.04.45-.12.71-.08.26-.21.5-.38.73-.17.23-.39.42-.66.57s-.6.23-.98.23c-.67,0-1.14-.11-1.41-.32s-.4-.49-.42-.84Z"/>
      <path class="cls-1" d="m345.3,182.83c-.48.54-1.03,1.07-1.67,1.59-.64.52-1.29.98-1.96,1.38-.67.4-1.34.72-1.99.97-.65.24-1.24.37-1.76.37s-.95-.15-1.27-.44c-.33-.29-.49-.79-.49-1.5,0-.5.09-1.08.26-1.74-.28.42-.64.85-1.06,1.29-.42.43-.91.83-1.45,1.19-.54.36-1.15.65-1.82.87s-1.41.33-2.2.33c-.36,0-.7-.04-1.03-.11-.33-.08-.62-.21-.87-.39-.25-.18-.45-.43-.6-.74-.15-.31-.23-.7-.23-1.17,0-.01.02-.18.07-.5s.18-.83.42-1.51c.23-.69.59-1.58,1.08-2.68.49-1.1,1.18-2.43,2.07-3.99.23-.41.49-.71.79-.89.3-.18.62-.27.97-.27.15,0,.31.02.47.06.16.04.31.1.46.18.14.08.25.18.34.31.09.12.13.27.13.43,0,.11-.02.21-.05.31-.05.18-.17.43-.35.72s-.39.64-.63,1.03c-.24.39-.49.8-.76,1.25-.27.45-.51.91-.74,1.38-.23.48-.42.96-.59,1.46-.16.5-.26.98-.28,1.44,0,.2.05.38.16.54.11.16.29.25.54.25.71,0,1.38-.2,2.02-.59.64-.39,1.23-.88,1.78-1.46s1.03-1.21,1.47-1.87c.44-.67.81-1.28,1.1-1.83.21-.37.39-.77.55-1.19.16-.42.33-.81.51-1.17.18-.36.4-.66.64-.9.24-.24.54-.36.9-.36.39,0,.7.12.93.38s.34.55.34.9c0,.2-.07.46-.22.81-.15.34-.33.73-.55,1.17-.22.44-.46.91-.73,1.41-.26.5-.5,1.01-.73,1.52-.22.52-.41,1.02-.55,1.52-.15.49-.22.95-.22,1.38,0,.39.24.59.72.59.34,0,.75-.1,1.25-.29.5-.2,1.02-.47,1.57-.82.55-.35,1.1-.77,1.65-1.25s1.03-.99,1.46-1.55l.16,2.22Z"/>
      <path class="cls-1" d="m347.74,177.55c.66.35,1.25.74,1.78,1.19.52.45.96.92,1.33,1.41.36.49.64,1,.83,1.51.19.51.28,1.01.28,1.5,0,.62-.18,1.18-.53,1.67s-.81.91-1.38,1.25-1.22.6-1.96.78c-.73.18-1.47.27-2.22.27-.56,0-1.11-.06-1.65-.19s-1.02-.32-1.46-.58-.82-.59-1.13-1-.54-.89-.67-1.46c-.02-.09-.03-.16-.03-.21,0-.29.1-.55.31-.76.21-.21.43-.32.68-.32.12,0,.25.02.4.07.15.04.26.14.33.29.14.26.34.49.59.7.25.21.54.38.86.53.31.15.65.26,1,.34.35.08.7.12,1.03.12s.68-.03,1-.1.6-.17.85-.31c.24-.14.44-.32.58-.54.14-.22.21-.48.21-.8,0-.55-.12-1.06-.37-1.53-.25-.47-.57-.9-.97-1.29-.4-.4-.85-.77-1.35-1.11-.5-.34-1.01-.67-1.51-.99-.05-.03-.14-.13-.24-.29-.11-.16-.16-.32-.16-.48,0-.13.03-.23.1-.31.17-.23.38-.46.6-.7.23-.24.47-.46.73-.66s.54-.36.85-.49c.3-.12.62-.19.94-.19.24,0,.46.03.67.1.21.06.38.15.52.25.14.1.25.22.33.34s.12.24.12.35c0,.15-.04.3-.11.44-.08.14-.18.28-.3.41-.12.13-.27.26-.42.39-.16.13-.31.26-.46.38Z"/>
      <path class="cls-1" d="m357.88,177.67c-.4.78-.78,1.54-1.14,2.29-.36.74-.69,1.43-1.01,2.06-.13.26-.26.56-.38.9-.12.34-.19.64-.19.9,0,.15.04.27.11.36.07.09.19.13.35.13.23,0,.52-.07.86-.2.35-.13.72-.31,1.12-.54.4-.22.83-.48,1.27-.77s.88-.59,1.31-.9.84-.62,1.23-.93.74-.59,1.04-.85c.17-.12.34-.18.49-.18.18,0,.34.08.46.24.12.16.18.37.18.62s-.06.5-.18.77c-.12.26-.34.52-.65.77-.71.64-1.42,1.25-2.14,1.83-.72.58-1.44,1.08-2.15,1.52-.71.44-1.41.79-2.11,1.05-.7.26-1.37.39-2.02.39-.43,0-.8-.06-1.09-.17s-.53-.27-.71-.47-.31-.43-.38-.7c-.08-.27-.11-.55-.11-.86,0-.54.09-1.11.28-1.69s.39-1.11.62-1.58c.33-.67.65-1.34.97-2s.63-1.3.94-1.91h-.7c-.61,0-1.03-.1-1.25-.29s-.34-.42-.34-.67c0-.11.04-.24.11-.4s.17-.3.31-.44.3-.25.5-.35c.2-.1.42-.15.67-.15h1.76l3.44-6.83c.22-.41.49-.71.81-.89.32-.18.65-.27,1-.27.33,0,.62.09.9.26.27.17.41.46.41.86,0,.21-.05.42-.14.63s-.21.46-.37.74c-.1.18-.22.4-.36.66-.14.26-.29.53-.45.82-.16.29-.32.59-.49.9-.17.32-.33.62-.5.91-.37.7-.76,1.43-1.17,2.2h5.31c.26,0,.5.01.72.04.22.03.4.08.56.16.16.08.28.19.37.33.09.14.13.33.13.57,0,.12-.02.24-.06.36-.04.12-.11.23-.21.33s-.24.18-.42.24-.41.11-.69.13l-6.78.05Z"/>
      <path class="cls-1" d="m380.68,177.47c-.56.02-1.1.04-1.6.05-.51.01-1,.02-1.47.02-.48,0-.95,0-1.42,0h-1.42c-.28.55-.6,1.2-.95,1.93-.35.73-.72,1.5-1.11,2.3-.39.8-.77,1.62-1.16,2.44-.39.82-.75,1.6-1.1,2.33s-.66,1.4-.94,1.99c-.28.59-.51,1.06-.68,1.41-.12.25-.27.48-.44.69-.17.21-.36.39-.57.55s-.42.27-.64.35c-.22.08-.42.12-.6.12-.26,0-.49-.07-.7-.2-.21-.13-.31-.34-.31-.62,0-.14.03-.31.1-.5.06-.19.16-.41.28-.66l5.75-12.19h-.86c-.6,0-1-.09-1.22-.28s-.33-.4-.33-.65.14-.51.41-.76.67-.37,1.19-.37h1.92c.77-1.55,1.54-2.83,2.32-3.84.78-1.01,1.54-1.81,2.29-2.4.75-.59,1.48-.99,2.19-1.22.71-.23,1.39-.34,2.04-.34.3,0,.59.06.87.18.28.12.52.3.73.54s.38.54.51.9.2.79.2,1.28-.06.98-.2,1.55c-.03.15-.1.28-.2.38-.1.1-.21.19-.33.25s-.24.11-.36.14-.22.04-.31.04c-.22,0-.42-.05-.6-.15-.19-.1-.28-.26-.28-.48,0-.14,0-.27.02-.39.02-.12.02-.24.02-.36,0-.46-.08-.78-.25-.98-.17-.2-.39-.29-.68-.29-.34,0-.73.15-1.18.44-.45.29-.91.68-1.37,1.17-.46.49-.9,1.04-1.33,1.67-.42.62-.77,1.26-1.04,1.91h3.8c.34,0,.65,0,.94.02.29.01.55.04.77.1.22.05.4.14.52.27s.19.31.19.55c0,.12-.02.24-.06.36-.04.12-.12.23-.22.33s-.25.19-.43.26c-.18.07-.42.12-.72.14Z"/>
      <path class="cls-1" d="m384.77,174.88c.41,0,.86.05,1.33.16.47.11.91.29,1.31.55s.74.61,1,1.03c.27.43.4.96.4,1.59,0,.33-.04.7-.13,1.12-.09.42-.22.85-.39,1.31.11.13.23.22.37.28.14.05.29.08.46.08.23,0,.48-.06.76-.2.28-.13.56-.3.85-.5.29-.21.59-.44.88-.7.29-.26.57-.52.83-.78s.5-.51.71-.74.39-.43.53-.59c.08-.08.17-.11.28-.11.15,0,.29.08.41.24.12.16.18.38.18.66s-.08.61-.25.98c-.17.37-.48.75-.94,1.16-.26.28-.56.61-.9.98-.34.37-.7.72-1.08,1.04-.38.33-.78.6-1.19.83-.41.23-.83.34-1.24.34-.28,0-.56-.04-.82-.13-.27-.09-.54-.23-.81-.42-.39.61-.84,1.16-1.34,1.66-.5.5-1.06.93-1.67,1.29-.61.36-1.28.64-1.99.84-.71.2-1.47.3-2.27.3-.3,0-.66-.06-1.06-.18-.4-.12-.78-.32-1.15-.59-.36-.28-.67-.64-.92-1.08-.25-.45-.38-.99-.38-1.63,0-.43.07-.96.21-1.56s.36-1.24.64-1.88c.29-.65.65-1.29,1.09-1.92.44-.63.96-1.21,1.57-1.71.61-.51,1.3-.91,2.09-1.22.78-.31,1.65-.46,2.61-.46Zm-.85,2.87c-.51,0-1,.13-1.47.38-.47.25-.89.59-1.25,1.01-.36.42-.65.89-.87,1.42-.22.53-.33,1.07-.33,1.62,0,.21.02.43.05.68s.1.47.2.68c.1.21.25.39.45.53.2.14.46.21.78.21.5,0,.99-.13,1.46-.4.47-.27.89-.61,1.26-1.04.37-.43.66-.92.88-1.46s.33-1.09.33-1.65c0-.22-.01-.44-.04-.68-.03-.23-.09-.45-.2-.64-.1-.2-.25-.36-.45-.48s-.46-.19-.8-.19Z"/>
      <path class="cls-1" d="m397.19,177.23c.42-.26.86-.5,1.31-.72.45-.22.89-.4,1.31-.56.42-.16.83-.28,1.21-.38.39-.09.73-.14,1.03-.14.49,0,.87.12,1.13.35.27.23.4.63.4,1.18,0,.12,0,.25-.02.38-.01.14-.03.28-.07.43-.05.28-.22.61-.49.99s-.59.78-.95,1.19-.75.83-1.17,1.25-.8.8-1.16,1.16c-.35.35-.65.66-.88.92-.23.26-.35.44-.35.54,0,.09,0,.15.02.18.01.03.06.05.15.05.59-.25,1.24-.55,1.96-.9.72-.35,1.44-.71,2.16-1.08s1.4-.73,2.04-1.08c.64-.35,1.18-.66,1.63-.92.1-.05.2-.1.3-.14.1-.04.2-.06.29-.06.2,0,.36.06.49.2.13.13.2.3.2.52,0,.25-.11.54-.32.86s-.57.65-1.07,1c-.38.24-.81.51-1.28.81-.47.3-.97.61-1.48.93s-1.04.63-1.56.94c-.53.3-1.03.58-1.52.82-.49.24-.95.43-1.38.58s-.8.22-1.12.22c-.75,0-1.31-.18-1.69-.54-.38-.36-.56-.82-.56-1.38,0-.09,0-.15.02-.2.08-.48.22-.94.42-1.38.21-.45.44-.87.7-1.27.26-.4.53-.78.81-1.15s.54-.71.77-1.03.43-.62.58-.89c.15-.27.23-.52.23-.75,0-.05-.01-.11-.03-.16-.02-.05-.07-.08-.15-.08-.13,0-.35.05-.64.15-.3.1-.62.23-.95.39-.34.16-.66.35-.96.56s-.52.44-.65.68c-.17.3-.38.69-.6,1.16s-.46.96-.71,1.47c-.24.51-.48,1.02-.71,1.52-.23.5-.42.93-.59,1.29-.13.31-.3.6-.51.85-.21.25-.44.46-.69.64s-.5.31-.77.41-.5.15-.72.15c-.25,0-.45-.07-.59-.2-.15-.13-.22-.34-.22-.64,0-.12.02-.27.06-.45.04-.18.12-.38.24-.59.2-.37.39-.77.59-1.21.2-.43.43-.93.69-1.49.26-.56.56-1.2.9-1.92.34-.72.75-1.56,1.21-2.5-.15-.13-.28-.29-.38-.48-.1-.19-.15-.43-.15-.71,0-.26.05-.49.16-.68.11-.19.26-.34.44-.46s.4-.21.64-.27c.24-.06.5-.09.77-.09s.56.02.85.07c.28.05.53.12.76.22s.4.22.55.36c.14.14.21.3.21.49,0,.03-.01.08-.03.13-.02.05-.05.11-.07.18-.03.06-.05.12-.07.18-.02.05-.03.1-.03.13,0,.02,0,.03.02.03h.02l.03-.02Z"/>
      <path class="cls-1" d="m422.9,176.4c.3-.24.56-.42.77-.54.21-.12.39-.22.55-.28.15-.06.29-.09.42-.11.12,0,.25-.02.38-.02.23,0,.39.08.49.25.1.17.15.35.15.53,0,.15-.03.29-.08.42l-3.65,7.61c.52-.39,1.12-.77,1.8-1.15.68-.38,1.33-.71,1.95-1.01s1.16-.54,1.61-.73.71-.28.77-.28c.27,0,.51.1.72.31.21.21.31.47.31.78,0,.28-.11.58-.32.9-.21.32-.58.62-1.12.91-.76.42-1.42.79-1.99,1.08-.56.3-1.06.57-1.5.81-.43.24-.82.46-1.16.65-.34.2-.65.4-.95.6-.3.21-.59.43-.88.66-.29.23-.6.51-.94.82-.25.65-.5,1.28-.74,1.87-.24.6-.47,1.12-.67,1.58-.2.46-.37.83-.5,1.11-.13.28-.2.43-.21.46-.88,1.82-1.85,2.74-2.9,2.74-.43,0-.79-.14-1.06-.43-.27-.29-.41-.68-.41-1.17,0-.46.06-.91.17-1.36.11-.45.31-.95.6-1.49.29-.54.67-1.15,1.14-1.82.47-.67,1.07-1.45,1.78-2.35l3.26-6.6c-1.63,1.93-3.11,3.41-4.43,4.43-1.33,1.02-2.56,1.53-3.71,1.53-.37,0-.68-.08-.94-.25-.26-.17-.39-.45-.39-.84,0-.54.13-1.16.39-1.84.15-.37.3-.71.46-1.02.15-.31.31-.62.47-.93s.33-.64.51-1,.37-.76.59-1.21c.21-.45.45-.97.7-1.56.25-.59.54-1.28.85-2.08.22-.42.5-.73.85-.92s.68-.29,1.01-.29.62.08.86.24c.23.16.35.37.35.63,0,.13-.02.24-.06.34l-2.98,6.21c-.15.32-.23.57-.23.75,0,.16.06.24.2.24.12,0,.27-.06.46-.18.18-.12.36-.25.52-.41l6.73-6.61Z"/>
      <path class="cls-1" d="m434.74,174.88c.41,0,.86.05,1.33.16.47.11.91.29,1.31.55s.74.61,1,1.03c.27.43.4.96.4,1.59,0,.33-.04.7-.13,1.12-.09.42-.22.85-.39,1.31.11.13.23.22.37.28.14.05.29.08.46.08.23,0,.48-.06.76-.2.28-.13.56-.3.85-.5.29-.21.59-.44.88-.7.29-.26.57-.52.83-.78s.5-.51.71-.74.39-.43.53-.59c.08-.08.17-.11.28-.11.15,0,.29.08.41.24.12.16.18.38.18.66s-.08.61-.25.98c-.17.37-.48.75-.94,1.16-.26.28-.56.61-.9.98-.34.37-.7.72-1.08,1.04-.38.33-.78.6-1.19.83-.41.23-.83.34-1.24.34-.28,0-.56-.04-.82-.13-.27-.09-.54-.23-.81-.42-.39.61-.84,1.16-1.34,1.66-.5.5-1.06.93-1.67,1.29-.61.36-1.28.64-1.99.84-.71.2-1.47.3-2.27.3-.3,0-.66-.06-1.06-.18-.4-.12-.78-.32-1.15-.59-.36-.28-.67-.64-.92-1.08-.25-.45-.38-.99-.38-1.63,0-.43.07-.96.21-1.56s.36-1.24.64-1.88c.29-.65.65-1.29,1.09-1.92.44-.63.96-1.21,1.57-1.71.61-.51,1.3-.91,2.09-1.22.78-.31,1.65-.46,2.61-.46Zm-.85,2.87c-.51,0-1,.13-1.47.38-.47.25-.89.59-1.25,1.01-.36.42-.65.89-.87,1.42-.22.53-.33,1.07-.33,1.62,0,.21.02.43.05.68s.1.47.2.68c.1.21.25.39.45.53.2.14.46.21.78.21.5,0,.99-.13,1.46-.4.47-.27.89-.61,1.26-1.04.37-.43.66-.92.88-1.46s.33-1.09.33-1.65c0-.22-.01-.44-.04-.68-.03-.23-.09-.45-.2-.64-.1-.2-.25-.36-.45-.48s-.46-.19-.8-.19Z"/>
      <path class="cls-1" d="m458.82,182.83c-.48.54-1.03,1.07-1.67,1.59-.64.52-1.29.98-1.96,1.38-.67.4-1.34.72-1.99.97-.65.24-1.24.37-1.76.37s-.95-.15-1.27-.44c-.33-.29-.49-.79-.49-1.5,0-.5.09-1.08.26-1.74-.28.42-.64.85-1.06,1.29-.42.43-.91.83-1.45,1.19-.54.36-1.15.65-1.82.87s-1.41.33-2.2.33c-.36,0-.7-.04-1.03-.11-.33-.08-.62-.21-.87-.39-.25-.18-.45-.43-.6-.74-.15-.31-.23-.7-.23-1.17,0-.01.02-.18.07-.5s.18-.83.42-1.51c.23-.69.59-1.58,1.08-2.68.49-1.1,1.18-2.43,2.07-3.99.23-.41.49-.71.79-.89.3-.18.62-.27.97-.27.15,0,.31.02.47.06.16.04.31.1.46.18.14.08.25.18.34.31.09.12.13.27.13.43,0,.11-.02.21-.05.31-.05.18-.17.43-.35.72s-.39.64-.63,1.03c-.24.39-.49.8-.76,1.25-.27.45-.51.91-.74,1.38-.23.48-.42.96-.59,1.46-.16.5-.26.98-.28,1.44,0,.2.05.38.16.54.11.16.29.25.54.25.71,0,1.38-.2,2.02-.59.64-.39,1.23-.88,1.78-1.46s1.03-1.21,1.47-1.87c.44-.67.81-1.28,1.1-1.83.21-.37.39-.77.55-1.19.16-.42.33-.81.51-1.17.18-.36.4-.66.64-.9.24-.24.54-.36.9-.36.39,0,.7.12.93.38s.34.55.34.9c0,.2-.07.46-.22.81-.15.34-.33.73-.55,1.17-.22.44-.46.91-.73,1.41-.26.5-.5,1.01-.73,1.52-.22.52-.41,1.02-.55,1.52-.15.49-.22.95-.22,1.38,0,.39.24.59.72.59.34,0,.75-.1,1.25-.29.5-.2,1.02-.47,1.57-.82.55-.35,1.1-.77,1.65-1.25s1.03-.99,1.46-1.55l.16,2.22Z"/>
      <path class="cls-1" d="m464.32,184.46c0,.34-.06.66-.19.96-.12.3-.29.57-.5.81-.21.23-.46.42-.74.55-.28.14-.58.2-.9.2-.26,0-.5-.05-.73-.16-.23-.1-.43-.24-.59-.42s-.3-.38-.4-.61c-.1-.23-.15-.48-.15-.74,0-.33.06-.64.19-.94s.3-.56.51-.79c.22-.23.47-.41.77-.55.29-.14.61-.2.94-.2.53,0,.96.18,1.3.54.33.36.5.8.5,1.34Z"/>
      <path class="cls-1" d="m476.25,184.46c0,.34-.06.66-.19.96-.12.3-.29.57-.5.81-.21.23-.46.42-.74.55-.28.14-.58.2-.9.2-.26,0-.5-.05-.73-.16-.23-.1-.43-.24-.59-.42s-.3-.38-.4-.61c-.1-.23-.15-.48-.15-.74,0-.33.06-.64.19-.94s.3-.56.51-.79c.22-.23.47-.41.77-.55.29-.14.61-.2.94-.2.53,0,.96.18,1.3.54.33.36.5.8.5,1.34Z"/>
      <path class="cls-1" d="m488.18,184.46c0,.34-.06.66-.19.96-.12.3-.29.57-.5.81-.21.23-.46.42-.74.55-.28.14-.58.2-.9.2-.26,0-.5-.05-.73-.16-.23-.1-.43-.24-.59-.42s-.3-.38-.4-.61c-.1-.23-.15-.48-.15-.74,0-.33.06-.64.19-.94s.3-.56.51-.79c.22-.23.47-.41.77-.55.29-.14.61-.2.94-.2.53,0,.96.18,1.3.54.33.36.5.8.5,1.34Z"/>
    </g>
    <g>
      <path class="cls-1" d="m234.52,105.97c2.25-4.22,5.44-7.5,9.58-9.86,4.14-2.35,8.9-3.53,14.28-3.53,6.83,0,12.57,1.82,17.23,5.47,4.66,3.65,7.66,8.6,9,14.86h-16.37c-.98-2.07-2.34-3.65-4.07-4.73-1.73-1.09-3.74-1.63-6.01-1.63-3.52,0-6.32,1.26-8.42,3.76s-3.14,5.86-3.14,10.05,1.05,7.62,3.14,10.13c2.1,2.51,4.9,3.76,8.42,3.76,2.28,0,4.28-.54,6.01-1.63,1.73-1.09,3.09-2.66,4.07-4.73h16.37c-1.35,6.26-4.35,11.21-9,14.86-4.66,3.65-10.4,5.47-17.23,5.47-5.38,0-10.14-1.18-14.28-3.53-4.14-2.35-7.33-5.64-9.58-9.86-2.25-4.22-3.38-9.04-3.38-14.47s1.13-10.18,3.38-14.4Z"/>
      <path class="cls-1" d="m313.25,106.08c2.43-1.45,5.04-2.17,7.84-2.17v16.22h-4.27c-3.31,0-5.77.65-7.37,1.94-1.6,1.29-2.41,3.54-2.41,6.75v19.01h-15.21v-43.54h15.21v7.68c1.71-2.48,3.78-4.45,6.21-5.9Z"/>
      <path class="cls-1" d="m367.89,129.13h-28.79c.15,2.38.81,4.15,1.98,5.32,1.16,1.16,2.65,1.75,4.46,1.75,2.53,0,4.35-1.14,5.43-3.41h16.22c-.67,3-1.98,5.68-3.92,8.03-1.94,2.35-4.38,4.2-7.33,5.55-2.95,1.35-6.21,2.02-9.78,2.02-4.29,0-8.11-.9-11.45-2.72-3.34-1.81-5.95-4.4-7.84-7.76-1.89-3.36-2.83-7.32-2.83-11.87s.93-8.5,2.79-11.84c1.86-3.34,4.46-5.91,7.8-7.72,3.34-1.81,7.18-2.72,11.52-2.72s8.1.88,11.41,2.64c3.31,1.76,5.9,4.28,7.76,7.57,1.86,3.29,2.79,7.15,2.79,11.6,0,1.19-.08,2.38-.23,3.57Zm-15.29-7.37c0-1.86-.62-3.32-1.86-4.39-1.24-1.06-2.79-1.59-4.66-1.59s-3.39.5-4.58,1.51c-1.19,1.01-1.97,2.5-2.33,4.46h13.43Z"/>
      <path class="cls-1" d="m395.2,133.48l8.15-29.18h16.22l-14.98,43.54h-18.94l-14.98-43.54h16.22l8.3,29.18Z"/>
      <path class="cls-1" d="m425.89,98.05c-1.63-1.48-2.44-3.32-2.44-5.55s.82-4.16,2.44-5.66c1.63-1.5,3.79-2.25,6.48-2.25s4.77.75,6.4,2.25c1.63,1.5,2.44,3.39,2.44,5.66s-.82,4.07-2.44,5.55c-1.63,1.47-3.76,2.21-6.4,2.21s-4.85-.74-6.48-2.21Zm14.01,6.25v43.54h-15.21v-43.54h15.21Z"/>
      <path class="cls-1" d="m472.11,116.95h-6.83v30.89h-15.29v-30.89h-4.73v-12.65h4.73v-.39c0-5.59,1.64-9.87,4.93-12.84,3.28-2.97,8.01-4.46,14.16-4.46,1.24,0,2.2.03,2.87.08v12.96c-.41-.05-.98-.08-1.71-.08-1.66,0-2.87.38-3.65,1.12-.78.75-1.22,1.95-1.32,3.61h6.83v12.65Z"/>
      <path class="cls-1" d="m524.41,104.3l-27.63,64.26h-16.53l10.4-22.58-17.85-41.67h16.92l9.16,24.68,8.85-24.68h16.68Z"/>
    </g>
  </g>
</svg>