<?xml version="1.0" encoding="UTF-8"?>
<svg id="Design" xmlns="http://www.w3.org/2000/svg" xmlns:xlink="http://www.w3.org/1999/xlink" viewBox="0 0 566.93 566.93">
  <defs>
    <style>
      .cls-1 {
        fill: #f75200;
        font-family: Damion, Damion;
        font-size: 29.77px;
      }

      .cls-2 {
        fill: #8dc63f;
      }

      .cls-2, .cls-3, .cls-4, .cls-5, .cls-6 {
        stroke-width: 0px;
      }

      .cls-3 {
        fill: url(#Orange_Yellow);
      }

      .cls-4 {
        fill: url(#Orange_Yellow-2);
      }

      .cls-5 {
        fill: url(#Orange_Yellow-4);
      }

      .cls-6 {
        fill: url(#Orange_Yellow-3);
      }
    </style>
    <linearGradient id="Orange_Yellow" data-name="Orange, Yellow" x1="216.55" y1="309.65" x2="337.08" y2="309.65" gradientUnits="userSpaceOnUse">
      <stop offset="0" stop-color="#fff33b"/>
      <stop offset=".04" stop-color="#fee62d"/>
      <stop offset=".12" stop-color="#fdd51b"/>
      <stop offset=".2" stop-color="#fdca0f"/>
      <stop offset=".28" stop-color="#fdc70c"/>
      <stop offset=".67" stop-color="#f3903f"/>
      <stop offset=".89" stop-color="#ed683c"/>
      <stop offset="1" stop-color="#e93e3a"/>
    </linearGradient>
    <linearGradient id="Orange_Yellow-2" data-name="Orange, Yellow" x1="341.65" y1="266.41" x2="363.17" y2="266.41" xlink:href="#Orange_Yellow"/>
    <linearGradient id="Orange_Yellow-3" data-name="Orange, Yellow" x1="338.55" y1="291.25" x2="351.33" y2="291.25" xlink:href="#Orange_Yellow"/>
    <linearGradient id="Orange_Yellow-4" data-name="Orange, Yellow" x1="220.46" y1="235.1" x2="280.37" y2="131.34" xlink:href="#Orange_Yellow"/>
  </defs>
  <path class="cls-3" d="m216.55,280.01c4.51,6.52,9.71,12.08,15.52,16.81,7.24,5.9,15.09,10.15,23.55,12.71,5.63,1.71,11.33,2.62,17.15,2.7,6.01.09,11.94-.55,17.81-2.16,5.82-1.59,11.42-3.97,16.77-7.2.33-.2.67-.38,1.01-.56.06-.03.13-.03.24-.05,1.06.96,1.9,2.25,2.7,3.56,2.11,3.47,3.49,7.37,4.25,11.56.44,2.47.63,5.01.94,7.51.36,2.84.88,5.61,2.02,8.18,1.65,3.74,4.13,5.96,7.65,6.28,1.9.17,3.55-.77,5.1-1.96,3.36-2.6,5.3-6.34,5.73-11.14.26-2.82-.02-5.64-.65-8.38-2.55-11.13-8.26-18.78-17.08-23.01-.12-.06-.25-.12-.37-.19-.02-.01-.04-.05-.14-.18,4.58-4.11,8.72-8.82,12.49-13.99,0-.19-.02-.38-.02-.58-1.32,1.11-2.65,2.23-3.97,3.34-5.25,4.39-10.82,8.05-16.69,11.05-7.31,3.74-14.9,6.29-22.74,7.69-6.8,1.21-13.64,1.49-20.5.91-8.7-.73-17.14-2.9-25.34-6.49-6.4-2.81-12.51-6.38-18.23-10.86-2.25-1.76-4.41-3.71-6.61-5.57-.05-.04-.13-.04-.19-.06-.12.03-.25.05-.37.08Zm108.54,37.37c-1.82-7.98-4.92-14.84-11.35-18.83.45-.36.83-.66,1.22-.97.42-.33.83-.67,1.28-1.04,6.13,4.99,8.61,12.19,8.86,20.84Z"/>
  <path class="cls-4" d="m341.67,275c.49.06.97.15,1.46.19,3.93.34,7.85.32,11.71-.87,1.77-.54,3.45-1.34,4.95-2.65,1.02-.9,1.88-1.98,2.5-3.32,1.23-2.64,1.17-5.28-.21-7.76-1.34-2.4-3.29-3.48-5.66-3.05-2.49.45-4.13,2.23-4.86,5.18-.76,3.1-2.37,5.46-4.28,7.58-1.37,1.53-2.92,2.75-4.57,3.78-.35.22-.71.44-1.06.67,0,.08.01.16.02.25Zm13.73-8.39c.79-1.05,1.39-2.15,1.51-3.57.01-.15.09-.31.16-.45.36-.75,1.11-1.04,1.74-.69.65.36,1.02,1.37.67,2.15-.25.55-.63,1.07-1.05,1.43-.89.75-1.93,1.06-3.03,1.13Z"/>
  <path class="cls-6" d="m338.55,289.15c2.04,1.19,3.51,3.11,4.79,5.28,1.24,2.1,3.47,2.77,5.39,1.72,1.87-1.03,2.92-3.53,2.51-5.96-.44-2.57-2.14-4.37-4.28-4.32-2.94.06-5.68,1.1-8.19,2.98-.08.06-.13.17-.22.31Zm9.29-1.03c.9.19,1.67.75,1.99,1.45.29.63.23,1.34-.15,1.81-.35.44-.94.57-1.39.29-.45-.27-.73-.88-.66-1.53.07-.68.15-1.35.22-2.03Z"/>
  <path class="cls-2" d="m307.42,246.09c-.32,1.61-1.04,3.16-2.17,4.5-11.33,13.47-24.13,16.3-32.87,16.3-6.04,0-12.02-1.37-17.31-3.95-15.31-7.5-23.25-23.51-19.74-39.82.17-.82.37-1.62.57-2.41-1.54,1.04-3.37,1.66-5.32,1.73-.04,0-.25,0-.32,0-4,0-7.65-2.34-9.29-5.95l-2.94-6.46c-.2-.44-.62-.68-.91-.68-1.33.06-2.66.1-3.95.11-1.55,5.99-2.32,12.39-2.32,19.18,0,12.6,2.61,23.78,7.82,33.55,5.22,9.78,12.62,17.39,22.22,22.85,9.59,5.46,20.63,8.18,33.1,8.18,15.83,0,29.14-4.23,39.94-12.68,10.79-8.46,17.75-19.94,20.87-34.45h-27.38Zm6.51-69.17c-8.02-6.28-17.43-10.23-28.23-11.84-1.13,1.93-2.44,3.78-3.92,5.51l-5.46,6.4c-1.22,1.44-1.53,3.42-.82,5.2,1.2,2.93,2.47,5.78,3.82,8.51,11.69,1.87,22.77,8.41,27.31,16.41.79,1.4,1.4,2.83,1.8,4.27h26.36c-3.12-14.51-10.07-26-20.87-34.45Z"/>
  <path class="cls-5" d="m272.37,259.99c-5.32,0-10.26-1.29-14.27-3.25-12.42-6.08-18.86-19.01-16.03-32.17,4.5-20.92,17.89-25.99,25.47-27.15.06-.01.13-.02.19-.03-1.83-3.64-3.4-7.14-4.63-10.15-2.62-6.43-1.46-13.69,3.03-18.95l5.46-6.4c2.46-2.88,4.21-6.24,5.07-9.72,1.17-4.73.07-10.68-2.8-15.15-1.97-3.07-4.48-5.03-7.07-5.52-10.78-2.05-18.97-.37-23.88,4.86,6.14,7.25,9.63,16.38,8.09,22.72-.95,3.91-3.77,6.5-7.76,7.12-3.34.51-6.5-1.18-8.69-4.64-3.65-5.78-4.45-16.11-.03-24.51-.71-.63-1.46-1.23-2.23-1.79-5.23-3.8-13.45-7.1-22.95-1.26-6.77,4.17-8.56,10.43-8.51,15.96,10.35,1.66,21.05,8.3,25.09,16.14,2.39,4.64,2.17,9.27-.63,13.04-2.64,3.55-6.42,4.94-10.62,3.9-8.54-2.11-17.41-14.31-19.74-26.95-5.49.29-9.35,2.79-11.5,7.43-3.71,8.01-3.63,15.27.23,20.98,5.36,7.94,17.62,12.24,32.78,11.47,5.8-.28,11.35,3.13,13.79,8.52l.02.04c5.31-9.27,13.81-15.7,25.36-19.16,1.72-.52,3.53.46,4.05,2.18.52,1.72-.46,3.53-2.18,4.05-12.23,3.67-20.15,10.81-24.21,21.83-.46,1.24-1.61,2.08-2.93,2.12-1.31.03-2.53-.7-3.08-1.9l-2.94-6.46c-1.35-2.98-4.37-4.87-7.55-4.71-17.71.88-31.74-4.33-38.49-14.33-5.13-7.6-5.39-17.31-.74-27.35,3.12-6.74,9.06-10.68,16.8-11.17.03-9.1,4.05-16.5,11.61-21.15,9.8-6.03,20.51-5.48,30.17,1.54.76.55,1.5,1.14,2.22,1.76,4.6-4.75,13.48-9.73,29.67-6.64,4.36.83,8.38,3.81,11.32,8.4,3.84,5.99,5.24,13.74,3.64,20.22-1.1,4.46-3.32,8.74-6.43,12.38l-5.46,6.4c-2.9,3.4-3.65,8.11-1.96,12.27,1.83,4.47,3.77,8.61,5.74,12.34,11.43.75,22.07,6.87,25.77,13.38,2.27,4,2.03,8.15-.64,11.39-2.13,2.57-5.01,3.73-8.13,3.24-7.24-1.11-14.87-11.07-20.82-21.56-.84.05-1.68.13-2.52.26-10.38,1.59-17.33,9.23-20.1,22.09-2.22,10.35,2.7,20.15,12.53,24.97,8.66,4.24,22.77,4.45,34.04-8.94,1.16-1.37,3.21-1.55,4.58-.39,1.37,1.16,1.55,3.21.39,4.58-8.58,10.2-18.64,13.85-27.6,13.85Zm6.58-55.78c5.48,8.72,10.74,14.01,13.89,14.49.71.11,1.35-.01,2.13-.96.41-.49,1.36-1.64,0-4.04-2.06-3.64-8.4-7.87-16.02-9.49Zm-77.24-47.49c2.45,10.02,9.43,18.74,14.52,20,1.63.4,2.78-.04,3.84-1.47.48-.64,1.93-2.59.07-6.18-2.61-5.05-10.29-10.48-18.44-12.35Zm37.59-14.47c-2.25,6.03-1.26,12.65.75,15.84.35.55,1.25,1.83,2.2,1.68,1.4-.22,2.1-.86,2.43-2.22.86-3.56-1.25-9.75-5.38-15.29Z"/>
  <g>
    <path class="cls-2" d="m135.92,371.18c-2.25,1.41-4.85,2.12-7.81,2.12-4.57,0-8.21-1.63-10.93-4.89-2.72-3.26-4.08-7.64-4.08-13.15s1.36-9.79,4.08-13.05,6.36-4.89,10.93-4.89c2.96,0,5.56.71,7.81,2.12,2.25,1.41,4.01,3.46,5.29,6.15h21.27c-1.75-8.13-5.64-14.56-11.69-19.3-6.05-4.74-13.51-7.11-22.38-7.11-6.99,0-13.17,1.53-18.54,4.59-5.38,3.05-9.53,7.32-12.45,12.8-2.92,5.48-4.39,11.71-4.39,18.69s1.46,13.32,4.39,18.8c2.92,5.48,7.07,9.74,12.45,12.8,5.38,3.06,11.55,4.59,18.54,4.59,8.87,0,16.33-2.37,22.38-7.11,6.05-4.74,9.94-11.17,11.69-19.3h-21.27c-1.28,2.69-3.04,4.74-5.29,6.15Z"/>
    <path class="cls-2" d="m199.66,336.71c-3.16,1.88-5.85,4.43-8.06,7.66v-9.98h-19.75v56.54h19.75v-24.69c0-4.17,1.04-7.09,3.13-8.77,2.08-1.68,5.27-2.52,9.57-2.52h5.54v-21.07c-3.63,0-7.02.94-10.18,2.82Z"/>
    <path class="cls-2" d="m270.92,362.01c0-5.78-1.21-10.8-3.63-15.07-2.42-4.27-5.78-7.54-10.08-9.83-4.3-2.28-9.24-3.43-14.82-3.43s-10.63,1.17-14.97,3.53-7.71,5.69-10.13,10.03c-2.42,4.33-3.63,9.45-3.63,15.37s1.22,11.05,3.68,15.42c2.45,4.36,5.85,7.73,10.18,10.08,4.33,2.35,9.29,3.53,14.87,3.53,4.64,0,8.87-.87,12.7-2.62,3.83-1.75,7-4.15,9.52-7.2,2.52-3.06,4.22-6.54,5.09-10.43h-21.06c-1.41,2.96-3.77,4.44-7.06,4.44-2.35,0-4.28-.76-5.8-2.27s-2.37-3.81-2.57-6.9h37.39c.2-1.55.3-3.09.3-4.64Zm-37.59-4.94c.47-2.56,1.48-4.49,3.02-5.8,1.55-1.31,3.53-1.97,5.95-1.97s4.43.69,6.05,2.07c1.61,1.38,2.42,3.28,2.42,5.7h-17.44Z"/>
    <path class="cls-2" d="m326.6,345.8c-.34,0-.68-.01-1.02-.05-3.15-.28-7.21-1.59-10.46-5.8l-9.03,32.34-10.78-37.9h-21.06l19.45,56.54h24.59l16.59-48.23c-1.85,1.39-4.64,3.09-8.28,3.09Z"/>
    <path class="cls-2" d="m344.39,334.39v56.54h19.75v-56.54h-19.75Z"/>
    <path class="cls-2" d="m397.1,334.39c.14-2.15.71-3.71,1.71-4.69,1.01-.97,2.58-1.46,4.74-1.46.94,0,1.68.04,2.22.1v-16.83c-.87-.07-2.12-.1-3.73-.1-8,0-14.13,1.93-18.4,5.79-4.27,3.87-6.4,9.42-6.4,16.68v.5h-6.15v16.43h6.15v40.11h19.86v-40.11h8.87v-16.43h-8.87Z"/>
    <path class="cls-2" d="m452.23,334.39l-11.49,32.05-11.89-32.05h-21.97l23.18,54.12-13.51,29.33h21.47l35.88-83.45h-21.67Z"/>
    <circle class="cls-2" cx="354.27" cy="316.02" r="10.79"/>
  </g>
  <text class="cls-1" transform="translate(170.58 431.93)"><tspan x="0" y="0">Made just for you...</tspan></text>
</svg>