<?xml version="1.0" encoding="UTF-8"?>
<svg id="Design" xmlns="http://www.w3.org/2000/svg" viewBox="0 0 283.46 283.46">
  <defs>
    <style>
      .cls-1 {
        fill: #2a4400;
        stroke-width: 0px;
      }
    </style>
  </defs>
  <g>
    <path class="cls-1" d="m82.74,196.46c5.11,7.39,11.01,13.7,17.6,19.06,8.21,6.69,17.11,11.5,26.7,14.41,6.38,1.94,12.85,2.97,19.44,3.06,6.81.1,13.54-.63,20.19-2.44,6.6-1.81,12.95-4.5,19.02-8.16.37-.23.76-.43,1.14-.64.07-.04.15-.03.28-.05,1.21,1.09,2.15,2.55,3.06,4.03,2.39,3.93,3.96,8.35,4.81,13.11.5,2.8.71,5.68,1.07,8.52.41,3.22,1,6.37,2.28,9.27,1.87,4.24,4.68,6.76,8.67,7.12,2.16.19,4.03-.87,5.78-2.23,3.8-2.94,6-7.19,6.5-12.63.29-3.2-.03-6.39-.74-9.5-2.89-12.62-9.37-21.29-19.36-26.09-.14-.07-.28-.14-.42-.21-.03-.02-.05-.06-.16-.21,5.2-4.66,9.88-10,14.16-15.86,0-.22-.02-.44-.03-.65-1.5,1.26-3,2.53-4.51,3.79-5.95,4.98-12.27,9.13-18.92,12.53-8.29,4.24-16.89,7.14-25.78,8.72-7.71,1.37-15.46,1.69-23.24,1.04-9.86-.83-19.44-3.29-28.73-7.36-7.26-3.18-14.18-7.23-20.67-12.31-2.55-2-5-4.21-7.5-6.32-.06-.05-.15-.05-.22-.07-.14.03-.28.06-.42.09Zm123.06,42.37c-2.07-9.05-5.58-16.82-12.87-21.35.51-.41.95-.75,1.38-1.1.47-.38.94-.76,1.45-1.18,6.95,5.66,9.76,13.82,10.04,23.63Z"/>
    <path class="cls-1" d="m224.6,190.78c.55.07,1.1.17,1.66.22,4.46.38,8.9.36,13.28-.98,2.01-.61,3.91-1.52,5.61-3.01,1.16-1.02,2.13-2.25,2.84-3.76,1.4-2.99,1.33-5.99-.24-8.8-1.51-2.72-3.73-3.95-6.42-3.46-2.82.51-4.69,2.53-5.51,5.87-.86,3.51-2.69,6.19-4.85,8.6-1.55,1.73-3.31,3.11-5.18,4.29-.4.25-.8.5-1.2.75,0,.09.01.19.02.28Zm15.57-9.51c.9-1.19,1.58-2.44,1.71-4.04.01-.17.1-.35.18-.51.41-.85,1.26-1.18,1.97-.79.74.41,1.16,1.55.76,2.44-.28.62-.71,1.21-1.19,1.62-1.01.85-2.19,1.2-3.43,1.28Z"/>
    <path class="cls-1" d="m221.06,206.82c2.32,1.35,3.98,3.52,5.43,5.99,1.4,2.38,3.94,3.15,6.11,1.95,2.12-1.16,3.31-4.01,2.84-6.76-.5-2.91-2.43-4.95-4.85-4.9-3.34.07-6.44,1.25-9.29,3.37-.09.07-.14.2-.25.35Zm10.53-1.17c1.02.21,1.89.85,2.25,1.65.32.71.26,1.52-.17,2.06-.4.5-1.06.64-1.58.33-.51-.31-.82-1-.75-1.73.07-.77.17-1.54.25-2.3Z"/>
  </g>
  <g>
    <path class="cls-1" d="m185.76,158c-.36,1.83-1.18,3.58-2.46,5.1-12.85,15.28-27.36,18.48-37.27,18.48-6.85,0-13.63-1.55-19.63-4.48-17.36-8.51-26.36-26.65-22.38-45.15.2-.92.41-1.84.64-2.73-1.75,1.18-3.82,1.88-6.03,1.96-.04,0-.29,0-.36,0-4.54,0-8.67-2.65-10.53-6.75l-3.33-7.32c-.23-.5-.7-.77-1.03-.77-1.51.07-3.01.11-4.47.12-1.76,6.79-2.63,14.04-2.63,21.74,0,14.28,2.96,26.96,8.87,38.04,5.92,11.09,14.31,19.72,25.19,25.91,10.87,6.19,23.39,9.28,37.53,9.28,17.95,0,33.04-4.79,45.28-14.38,12.24-9.59,20.12-22.6,23.66-39.06h-31.04Zm7.38-78.43c-9.1-7.12-19.76-11.6-32.01-13.43-1.28,2.19-2.77,4.29-4.44,6.25l-6.19,7.25c-1.38,1.63-1.74,3.88-.92,5.89,1.36,3.32,2.8,6.55,4.33,9.65,13.26,2.12,25.81,9.53,30.96,18.61.9,1.59,1.58,3.2,2.04,4.84h29.89c-3.54-16.45-11.42-29.47-23.66-39.06Z"/>
    <path class="cls-1" d="m146.03,173.77c-6.04,0-11.63-1.46-16.18-3.69-14.08-6.9-21.38-21.56-18.17-36.48,5.1-23.72,20.28-29.47,28.88-30.79.07-.01.15-.02.22-.03-2.08-4.13-3.86-8.1-5.25-11.51-2.97-7.29-1.65-15.52,3.44-21.48l6.19-7.25c2.79-3.26,4.77-7.07,5.75-11.02,1.32-5.37.08-12.11-3.18-17.18-2.23-3.48-5.08-5.7-8.02-6.26-12.22-2.33-21.5-.42-27.08,5.51,6.96,8.23,10.91,18.57,9.17,25.76-1.07,4.43-4.28,7.37-8.8,8.07-3.79.58-7.37-1.33-9.85-5.26-4.14-6.56-5.04-18.26-.03-27.79-.81-.71-1.65-1.39-2.53-2.03-5.93-4.31-15.26-8.05-26.02-1.43-7.68,4.73-9.7,11.82-9.65,18.09,11.74,1.88,23.87,9.42,28.45,18.3,2.71,5.26,2.46,10.51-.72,14.79-3,4.03-7.27,5.6-12.04,4.42-9.68-2.39-19.73-16.22-22.39-30.55-6.22.33-10.61,3.16-13.04,8.42-4.2,9.08-4.11,17.31.26,23.79,6.08,9.01,19.98,13.88,37.16,13.01,6.58-.32,12.86,3.55,15.64,9.66l.02.04c6.03-10.51,15.66-17.8,28.75-21.72,1.95-.59,4,.52,4.59,2.47.58,1.95-.52,4-2.47,4.59-13.86,4.16-22.84,12.25-27.45,24.75-.52,1.4-1.83,2.35-3.32,2.41-1.48.03-2.87-.8-3.49-2.16l-3.33-7.33c-1.54-3.38-4.96-5.52-8.56-5.34-20.08,1-35.99-4.91-43.64-16.24-5.81-8.61-6.11-19.63-.84-31.01,3.54-7.64,10.27-12.1,19.04-12.67.04-10.32,4.59-18.7,13.17-23.98,11.11-6.83,23.26-6.22,34.21,1.74.86.63,1.7,1.29,2.52,1.99,5.22-5.39,15.28-11.03,33.64-7.53,4.94.94,9.5,4.32,12.84,9.52,4.36,6.79,5.94,15.58,4.13,22.93-1.25,5.05-3.77,9.91-7.3,14.04l-6.19,7.25c-3.29,3.86-4.14,9.19-2.22,13.92,2.07,5.07,4.27,9.76,6.51,13.99,12.96.85,25.03,7.78,29.22,15.18,2.57,4.54,2.31,9.25-.73,12.91-2.41,2.91-5.68,4.23-9.21,3.68-8.21-1.26-16.86-12.55-23.61-24.44-.95.05-1.9.15-2.85.3-11.77,1.8-19.65,10.47-22.79,25.05-2.52,11.73,3.06,22.85,14.21,28.31,9.82,4.81,25.82,5.04,38.59-10.14,1.31-1.56,3.63-1.76,5.19-.45,1.56,1.31,1.76,3.63.45,5.19-9.73,11.56-21.13,15.7-31.29,15.7Zm7.46-63.24c6.22,9.89,12.18,15.88,15.75,16.43.81.13,1.53-.02,2.42-1.09.46-.56,1.54-1.86,0-4.58-2.34-4.12-9.53-8.92-18.17-10.76Zm-87.58-53.84c2.77,11.36,10.69,21.24,16.47,22.67,1.85.45,3.15-.04,4.36-1.67.54-.73,2.18-2.94.08-7.01-2.96-5.73-11.67-11.89-20.9-14Zm42.62-16.41c-2.55,6.84-1.43,14.34.85,17.95.4.63,1.42,2.07,2.49,1.91,1.58-.24,2.38-.98,2.76-2.52.98-4.04-1.42-11.06-6.1-17.34Z"/>
  </g>
</svg>