<?xml version="1.0" encoding="UTF-8"?>
<svg id="Design" xmlns="http://www.w3.org/2000/svg" xmlns:xlink="http://www.w3.org/1999/xlink" viewBox="0 0 759.69 566.93">
  <defs>
    <style>
      .cls-1 {
        fill: #2a4400;
      }

      .cls-1, .cls-2, .cls-3, .cls-4, .cls-5, .cls-6, .cls-7, .cls-8 {
        stroke-width: 0px;
      }

      .cls-2 {
        fill: #ef3300;
      }

      .cls-9 {
        font-size: 15.16px;
      }

      .cls-9, .cls-6 {
        fill: #fff;
      }

      .cls-9, .cls-10 {
        font-family: Damion, Damion;
      }

      .cls-3 {
        fill: #8dc63f;
      }

      .cls-4 {
        fill: url(#Orange_Yellow);
      }

      .cls-5 {
        fill: url(#Orange_Yellow-2);
      }

      .cls-7 {
        fill: url(#Orange_Yellow-4);
      }

      .cls-8 {
        fill: url(#Orange_Yellow-3);
      }

      .cls-10 {
        fill: #f75200;
        font-size: 26.72px;
      }
    </style>
    <linearGradient id="Orange_Yellow" data-name="Orange, Yellow" x1="216.58" y1="212.18" x2="301.23" y2="212.18" gradientUnits="userSpaceOnUse">
      <stop offset="0" stop-color="#fff33b"/>
      <stop offset=".04" stop-color="#fee62d"/>
      <stop offset=".12" stop-color="#fdd51b"/>
      <stop offset=".2" stop-color="#fdca0f"/>
      <stop offset=".28" stop-color="#fdc70c"/>
      <stop offset=".67" stop-color="#f3903f"/>
      <stop offset=".89" stop-color="#ed683c"/>
      <stop offset="1" stop-color="#e93e3a"/>
    </linearGradient>
    <linearGradient id="Orange_Yellow-2" data-name="Orange, Yellow" x1="304.44" y1="181.81" x2="319.55" y2="181.81" xlink:href="#Orange_Yellow"/>
    <linearGradient id="Orange_Yellow-3" data-name="Orange, Yellow" x1="302.26" y1="199.26" x2="311.24" y2="199.26" xlink:href="#Orange_Yellow"/>
    <linearGradient id="Orange_Yellow-4" data-name="Orange, Yellow" x1="219.33" y1="159.82" x2="261.4" y2="86.95" xlink:href="#Orange_Yellow"/>
  </defs>
  <rect class="cls-6" x="42.52" y="42.52" width="674.65" height="481.89"/>
  <rect class="cls-1" x="42.52" y="283.46" width="674.65" height="240.94"/>
  <rect class="cls-2" x="379.84" y="283.46" width="337.32" height="240.94"/>
  <g>
    <g>
      <g>
        <path class="cls-4" d="m216.58,191.36c3.17,4.58,6.82,8.48,10.9,11.81,5.09,4.14,10.6,7.13,16.54,8.93,3.95,1.2,7.96,1.84,12.04,1.9,4.22.06,8.39-.39,12.51-1.51,4.09-1.12,8.02-2.79,11.78-5.06.23-.14.47-.27.71-.39.04-.02.09-.02.17-.03.75.68,1.33,1.58,1.89,2.5,1.48,2.44,2.45,5.17,2.98,8.12.31,1.73.44,3.52.66,5.27.25,1.99.62,3.94,1.42,5.75,1.16,2.63,2.9,4.19,5.37,4.41,1.34.12,2.49-.54,3.58-1.38,2.36-1.82,3.72-4.45,4.03-7.82.18-1.98-.02-3.96-.46-5.89-1.79-7.82-5.8-13.19-11.99-16.16-.09-.04-.17-.09-.26-.13-.02,0-.03-.04-.1-.13,3.22-2.89,6.12-6.19,8.77-9.82,0-.13-.01-.27-.02-.4-.93.78-1.86,1.56-2.79,2.34-3.68,3.09-7.6,5.65-11.72,7.76-5.14,2.63-10.46,4.42-15.97,5.4-4.78.85-9.58,1.05-14.4.64-6.11-.51-12.04-2.04-17.8-4.56-4.5-1.97-8.78-4.48-12.81-7.63-1.58-1.24-3.1-2.61-4.64-3.91-.04-.03-.09-.03-.14-.05-.09.02-.17.04-.26.05Zm76.23,26.25c-1.28-5.61-3.45-10.42-7.97-13.22.32-.25.59-.46.85-.68.29-.23.58-.47.9-.73,4.3,3.5,6.04,8.56,6.22,14.63Z"/>
        <path class="cls-5" d="m304.45,187.84c.34.05.68.11,1.03.13,2.76.24,5.51.22,8.22-.61,1.24-.38,2.42-.94,3.47-1.86.72-.63,1.32-1.39,1.76-2.33.87-1.85.82-3.71-.15-5.45-.94-1.68-2.31-2.45-3.98-2.14-1.75.32-2.9,1.57-3.41,3.63-.54,2.17-1.67,3.84-3.01,5.32-.96,1.07-2.05,1.93-3.21,2.66-.25.16-.5.31-.75.47,0,.06,0,.12.01.17Zm9.64-5.89c.56-.74.98-1.51,1.06-2.5,0-.11.06-.22.11-.31.25-.52.78-.73,1.22-.49.46.25.72.96.47,1.51-.17.38-.44.75-.74,1-.63.53-1.36.75-2.13.79Z"/>
        <path class="cls-8" d="m302.26,197.78c1.44.84,2.46,2.18,3.36,3.71.87,1.47,2.44,1.95,3.79,1.21,1.31-.72,2.05-2.48,1.76-4.18-.31-1.8-1.5-3.07-3-3.04-2.07.04-3.99.77-5.75,2.09-.05.04-.09.12-.16.22Zm6.52-.72c.63.13,1.17.53,1.4,1.02.2.44.16.94-.11,1.27-.25.31-.66.4-.98.2-.32-.19-.51-.62-.47-1.07.05-.48.1-.95.16-1.43Z"/>
      </g>
      <g>
        <path class="cls-3" d="m280.4,167.54c-.23,1.13-.73,2.22-1.52,3.16-7.96,9.46-16.95,11.45-23.09,11.45-4.24,0-8.45-.96-12.16-2.78-10.75-5.27-16.33-16.51-13.86-27.97.12-.57.26-1.14.4-1.69-1.08.73-2.37,1.16-3.74,1.21-.03,0-.18,0-.23,0-2.81,0-5.37-1.64-6.53-4.18l-2.06-4.54c-.14-.31-.43-.48-.64-.48-.94.05-1.87.07-2.77.07-1.09,4.21-1.63,8.7-1.63,13.47,0,8.85,1.83,16.7,5.49,23.56,3.67,6.87,8.86,12.22,15.61,16.05,6.74,3.83,14.49,5.75,23.25,5.75,11.12,0,20.47-2.97,28.05-8.91,7.58-5.94,12.46-14,14.65-24.2h-19.23Zm4.57-48.58c-5.63-4.41-12.24-7.19-19.83-8.32-.79,1.36-1.71,2.66-2.75,3.87l-3.84,4.49c-.86,1.01-1.08,2.4-.57,3.65.84,2.06,1.74,4.06,2.68,5.98,8.21,1.31,15.99,5.9,19.18,11.53.56.98.98,1.99,1.26,3h18.52c-2.19-10.19-7.08-18.26-14.65-24.2Z"/>
        <path class="cls-7" d="m255.78,177.3c-3.74,0-7.21-.9-10.03-2.28-8.72-4.27-13.24-13.35-11.26-22.6,3.16-14.69,12.56-18.25,17.89-19.07.05,0,.09-.01.14-.02-1.29-2.56-2.39-5.02-3.25-7.13-1.84-4.51-1.02-9.61,2.13-13.31l3.83-4.49c1.73-2.02,2.96-4.38,3.56-6.82.82-3.33.05-7.5-1.97-10.64-1.38-2.15-3.15-3.53-4.97-3.88-7.57-1.44-13.32-.26-16.77,3.42,4.31,5.09,6.76,11.5,5.68,15.96-.66,2.75-2.65,4.57-5.45,5-2.35.36-4.57-.83-6.1-3.26-2.56-4.06-3.12-11.31-.02-17.22-.5-.44-1.02-.86-1.57-1.26-3.67-2.67-9.45-4.99-16.12-.89-4.76,2.93-6.01,7.32-5.98,11.21,7.27,1.16,14.79,5.83,17.62,11.33,1.68,3.26,1.52,6.51-.44,9.16-1.86,2.5-4.51,3.47-7.46,2.74-6-1.48-12.22-10.05-13.87-18.93-3.85.21-6.57,1.96-8.08,5.22-2.6,5.63-2.55,10.72.16,14.74,3.77,5.58,12.37,8.59,23.02,8.06,4.08-.2,7.97,2.2,9.69,5.98v.03c3.74-6.51,9.71-11.03,17.82-13.46,1.21-.36,2.48.32,2.84,1.53.36,1.21-.32,2.48-1.53,2.84-8.59,2.58-14.15,7.59-17,15.33-.32.87-1.13,1.46-2.06,1.49-.92.02-1.78-.49-2.16-1.34l-2.06-4.54c-.95-2.09-3.07-3.42-5.3-3.31-12.44.62-22.29-3.04-27.03-10.06-3.6-5.33-3.79-12.16-.52-19.21,2.19-4.73,6.36-7.5,11.8-7.85.02-6.39,2.84-11.59,8.16-14.86,6.88-4.23,14.41-3.85,21.19,1.08.53.39,1.06.8,1.56,1.23,3.23-3.34,9.46-6.83,20.84-4.67,3.06.58,5.89,2.68,7.95,5.9,2.7,4.21,3.68,9.65,2.56,14.2-.77,3.13-2.33,6.14-4.52,8.7l-3.83,4.49c-2.04,2.39-2.57,5.69-1.37,8.62,1.28,3.14,2.65,6.05,4.03,8.67,8.03.52,15.5,4.82,18.1,9.4,1.59,2.81,1.43,5.73-.45,8-1.49,1.8-3.52,2.62-5.71,2.28-5.08-.78-10.44-7.77-14.63-15.14-.59.03-1.18.09-1.77.18-7.29,1.12-12.17,6.48-14.11,15.52-1.56,7.27,1.89,14.15,8.8,17.54,6.08,2.98,15.99,3.12,23.9-6.28.81-.96,2.25-1.09,3.22-.28.96.81,1.09,2.25.28,3.22-6.03,7.16-13.09,9.72-19.38,9.72Zm4.62-39.17c3.85,6.13,7.54,9.84,9.76,10.18.5.08.95,0,1.5-.68.29-.34.95-1.15,0-2.84-1.45-2.55-5.9-5.52-11.25-6.66Zm-54.25-33.35c1.72,7.04,6.62,13.16,10.2,14.04,1.14.28,1.95-.03,2.7-1.03.33-.45,1.35-1.82.05-4.34-1.83-3.55-7.23-7.36-12.95-8.67Zm26.4-10.16c-1.58,4.24-.89,8.89.53,11.12.25.39.88,1.28,1.55,1.18.98-.15,1.48-.6,1.71-1.56.61-2.5-.88-6.85-3.78-10.74Z"/>
      </g>
    </g>
    <g>
      <text class="cls-10" transform="translate(343.09 193.52)"><tspan x="0" y="0">Made just for you...</tspan></text>
      <g>
        <path class="cls-3" d="m340.64,128.83c1.8-3.38,4.36-6.01,7.68-7.89,3.31-1.89,7.13-2.83,11.44-2.83,5.47,0,10.07,1.46,13.8,4.38,3.73,2.92,6.13,6.89,7.21,11.9h-13.12c-.79-1.66-1.88-2.92-3.26-3.79-1.39-.87-2.99-1.31-4.82-1.31-2.82,0-5.07,1.01-6.74,3.02s-2.52,4.69-2.52,8.05.84,6.1,2.52,8.11c1.68,2.01,3.93,3.02,6.74,3.02,1.82,0,3.43-.44,4.82-1.31,1.39-.87,2.48-2.13,3.26-3.79h13.12c-1.08,5.01-3.48,8.98-7.21,11.9-3.73,2.92-8.33,4.38-13.8,4.38-4.31,0-8.12-.94-11.44-2.83-3.32-1.88-5.87-4.52-7.68-7.89-1.8-3.38-2.7-7.24-2.7-11.59s.9-8.15,2.7-11.53Z"/>
        <path class="cls-3" d="m403.7,128.92c1.95-1.16,4.04-1.74,6.28-1.74v12.99h-3.42c-2.65,0-4.62.52-5.91,1.55-1.29,1.04-1.93,2.84-1.93,5.41v15.23h-12.18v-34.87h12.18v6.15c1.37-1.99,3.02-3.56,4.97-4.72Z"/>
        <path class="cls-3" d="m447.46,147.39h-23.06c.12,1.91.65,3.33,1.59,4.26.93.93,2.12,1.4,3.57,1.4,2.03,0,3.48-.91,4.35-2.73h12.99c-.54,2.4-1.59,4.55-3.14,6.43-1.55,1.89-3.51,3.37-5.87,4.44-2.36,1.08-4.97,1.62-7.83,1.62-3.44,0-6.5-.72-9.17-2.18-2.67-1.45-4.77-3.52-6.28-6.22-1.51-2.69-2.27-5.86-2.27-9.51s.75-6.81,2.24-9.48c1.49-2.67,3.57-4.73,6.25-6.18,2.67-1.45,5.75-2.18,9.23-2.18s6.49.7,9.14,2.11c2.65,1.41,4.72,3.43,6.22,6.06,1.49,2.63,2.24,5.73,2.24,9.29,0,.95-.06,1.91-.19,2.86Zm-12.25-5.9c0-1.49-.5-2.66-1.49-3.51-.99-.85-2.24-1.27-3.73-1.27s-2.71.4-3.67,1.21c-.95.81-1.58,2-1.86,3.57h10.75Z"/>
        <path class="cls-3" d="m469.34,150.87l6.53-23.37h12.99l-12,34.87h-15.17l-12-34.87h12.99l6.65,23.37Z"/>
        <path class="cls-3" d="m493.93,122.49c-1.31-1.18-1.96-2.66-1.96-4.45s.65-3.34,1.96-4.54c1.31-1.2,3.04-1.8,5.19-1.8s3.82.6,5.13,1.8c1.31,1.2,1.96,2.71,1.96,4.54s-.65,3.26-1.96,4.45c-1.31,1.18-3.01,1.77-5.13,1.77s-3.89-.59-5.19-1.77Zm11.22,5v34.87h-12.18v-34.87h12.18Z"/>
        <path class="cls-3" d="m530.94,137.63h-5.47v24.74h-12.25v-24.74h-3.79v-10.13h3.79v-.31c0-4.48,1.32-7.9,3.95-10.29,2.63-2.38,6.41-3.57,11.34-3.57.99,0,1.76.02,2.3.06v10.38c-.33-.04-.79-.06-1.37-.06-1.33,0-2.3.3-2.92.9-.62.6-.97,1.56-1.06,2.89h5.47v10.13Z"/>
        <path class="cls-3" d="m572.84,127.5l-22.13,51.47h-13.24l8.33-18.09-14.3-33.38h13.55l7.33,19.77,7.09-19.77h13.36Z"/>
      </g>
    </g>
  </g>
  <g>
    <path class="cls-6" d="m176.77,404.94c2.3,3.32,4.95,6.15,7.9,8.56,3.69,3.01,7.69,5.17,11.99,6.47,2.87.87,5.77,1.33,8.73,1.37,3.06.04,6.08-.28,9.07-1.1,2.97-.81,5.82-2.02,8.54-3.67.17-.1.34-.19.51-.29.03-.02.07-.01.12-.02.54.49.97,1.15,1.37,1.81,1.07,1.77,1.78,3.75,2.16,5.89.23,1.26.32,2.55.48,3.82.18,1.45.45,2.86,1.03,4.17.84,1.9,2.1,3.04,3.9,3.2.97.09,1.81-.39,2.6-1,1.71-1.32,2.7-3.23,2.92-5.67.13-1.44-.01-2.87-.33-4.27-1.3-5.67-4.21-9.56-8.7-11.72-.06-.03-.13-.06-.19-.1-.01,0-.02-.03-.07-.09,2.33-2.09,4.44-4.49,6.36-7.12,0-.1,0-.2-.01-.29-.67.57-1.35,1.13-2.02,1.7-2.67,2.24-5.51,4.1-8.5,5.63-3.72,1.9-7.59,3.21-11.58,3.92-3.47.62-6.95.76-10.44.47-4.43-.37-8.73-1.48-12.91-3.31-3.26-1.43-6.37-3.25-9.29-5.53-1.15-.9-2.25-1.89-3.37-2.84-.03-.02-.07-.02-.1-.03-.06.01-.13.03-.19.04Zm55.28,19.03c-.93-4.07-2.5-7.56-5.78-9.59.23-.18.42-.34.62-.49.21-.17.42-.34.65-.53,3.12,2.54,4.38,6.21,4.51,10.61Z"/>
    <path class="cls-6" d="m240.49,402.39c.25.03.5.08.74.1,2,.17,4,.16,5.96-.44.9-.28,1.76-.68,2.52-1.35.52-.46.96-1.01,1.27-1.69.63-1.34.6-2.69-.11-3.95-.68-1.22-1.67-1.77-2.88-1.56-1.27.23-2.11,1.14-2.47,2.64-.39,1.58-1.21,2.78-2.18,3.86-.7.78-1.49,1.4-2.33,1.93-.18.11-.36.23-.54.34,0,.04,0,.08,0,.13Zm6.99-4.27c.4-.54.71-1.1.77-1.82,0-.08.05-.16.08-.23.18-.38.57-.53.89-.35.33.18.52.7.34,1.1-.13.28-.32.55-.53.73-.45.38-.98.54-1.54.57Z"/>
    <path class="cls-6" d="m238.9,409.59c1.04.61,1.79,1.58,2.44,2.69.63,1.07,1.77,1.41,2.75.88.95-.52,1.49-1.8,1.28-3.03-.22-1.31-1.09-2.23-2.18-2.2-1.5.03-2.89.56-4.17,1.52-.04.03-.06.09-.11.16Zm4.73-.52c.46.1.85.38,1.01.74.15.32.11.68-.08.92-.18.23-.48.29-.71.15-.23-.14-.37-.45-.34-.78.03-.35.08-.69.11-1.03Z"/>
    <path class="cls-6" d="m223.04,387.66c-.16.82-.53,1.61-1.11,2.29-5.77,6.86-12.29,8.3-16.74,8.3-3.08,0-6.12-.7-8.82-2.01-7.8-3.82-11.84-11.97-10.05-20.28.09-.42.19-.83.29-1.23-.78.53-1.72.84-2.71.88-.02,0-.13,0-.16,0-2.04,0-3.9-1.19-4.73-3.03l-1.5-3.29c-.1-.22-.31-.34-.46-.34-.68.03-1.35.05-2.01.05-.79,3.05-1.18,6.31-1.18,9.77,0,6.42,1.33,12.11,3.98,17.09,2.66,4.98,6.43,8.86,11.32,11.64,4.88,2.78,10.5,4.17,16.86,4.17,8.06,0,14.84-2.15,20.34-6.46,5.5-4.31,9.04-10.15,10.63-17.55h-13.94Zm3.32-35.23c-4.09-3.2-8.88-5.21-14.38-6.03-.57.99-1.24,1.93-2,2.81l-2.78,3.26c-.62.73-.78,1.74-.42,2.65.61,1.49,1.26,2.94,1.95,4.34,5.95.95,11.6,4.28,13.91,8.36.4.71.71,1.44.92,2.17h13.43c-1.59-7.39-5.13-13.24-10.63-17.55Z"/>
    <path class="cls-6" d="m205.19,394.74c-2.71,0-5.23-.66-7.27-1.66-6.32-3.1-9.6-9.68-8.16-16.39,2.29-10.65,9.11-13.24,12.97-13.83.03,0,.07,0,.1-.01-.93-1.85-1.73-3.64-2.36-5.17-1.33-3.27-.74-6.97,1.54-9.65l2.78-3.26c1.25-1.47,2.14-3.18,2.58-4.95.59-2.41.03-5.44-1.43-7.72-1-1.56-2.28-2.56-3.6-2.81-5.49-1.05-9.66-.19-12.16,2.48,3.13,3.69,4.9,8.34,4.12,11.57-.48,1.99-1.92,3.31-3.95,3.63-1.7.26-3.31-.6-4.43-2.36-1.86-2.95-2.27-8.2-.01-12.48-.36-.32-.74-.63-1.14-.91-2.66-1.93-6.85-3.62-11.69-.64-3.45,2.12-4.36,5.31-4.34,8.13,5.27.84,10.72,4.23,12.78,8.22,1.22,2.36,1.11,4.72-.32,6.64-1.35,1.81-3.27,2.52-5.41,1.99-4.35-1.08-8.86-7.29-10.06-13.72-2.79.15-4.76,1.42-5.86,3.78-1.89,4.08-1.85,7.78.12,10.69,2.73,4.05,8.97,6.23,16.69,5.84,2.96-.14,5.78,1.59,7.02,4.34v.02c2.72-4.72,7.04-8,12.92-9.76.87-.26,1.8.23,2.06,1.11.26.88-.23,1.8-1.11,2.06-6.23,1.87-10.26,5.5-12.33,11.12-.23.63-.82,1.06-1.49,1.08-.67.01-1.29-.36-1.57-.97l-1.5-3.29c-.69-1.52-2.23-2.48-3.84-2.4-9.02.45-16.17-2.21-19.6-7.3-2.61-3.87-2.75-8.82-.38-13.93,1.59-3.43,4.61-5.44,8.55-5.69.02-4.64,2.06-8.4,5.91-10.77,4.99-3.07,10.45-2.79,15.37.78.39.28.77.58,1.13.89,2.34-2.42,6.86-4.95,15.11-3.38,2.22.42,4.27,1.94,5.77,4.28,1.96,3.05,2.67,7,1.85,10.3-.56,2.27-1.69,4.45-3.28,6.31l-2.78,3.26c-1.48,1.73-1.86,4.13-1,6.25.93,2.28,1.92,4.38,2.93,6.28,5.82.38,11.24,3.5,13.12,6.82,1.16,2.04,1.04,4.15-.33,5.8-1.08,1.31-2.55,1.9-4.14,1.65-3.69-.57-7.57-5.64-10.61-10.98-.43.02-.85.07-1.28.13-5.29.81-8.83,4.7-10.23,11.25-1.13,5.27,1.37,10.26,6.38,12.72,4.41,2.16,11.6,2.27,17.33-4.55.59-.7,1.63-.79,2.33-.2.7.59.79,1.63.2,2.33-4.37,5.19-9.49,7.05-14.05,7.05Zm3.35-28.41c2.79,4.44,5.47,7.13,7.08,7.38.36.06.69,0,1.09-.49.21-.25.69-.83,0-2.06-1.05-1.85-4.28-4.01-8.16-4.83Zm-39.34-24.19c1.25,5.1,4.8,9.54,7.4,10.18.83.2,1.41-.02,1.96-.75.24-.33.98-1.32.04-3.15-1.33-2.57-5.24-5.34-9.39-6.29Zm19.14-7.37c-1.15,3.07-.64,6.44.38,8.06.18.28.64.93,1.12.86.71-.11,1.07-.44,1.24-1.13.44-1.82-.64-4.97-2.74-7.79Z"/>
    <g>
      <path class="cls-6" d="m135.7,451.37c-1.15.72-2.47,1.08-3.98,1.08-2.33,0-4.18-.83-5.57-2.49s-2.08-3.89-2.08-6.7.69-4.99,2.08-6.65,3.24-2.49,5.57-2.49c1.51,0,2.83.36,3.98,1.08,1.14.72,2.04,1.76,2.69,3.13h10.83c-.89-4.14-2.87-7.42-5.95-9.83-3.08-2.41-6.88-3.62-11.4-3.62-3.56,0-6.71.78-9.44,2.34-2.74,1.56-4.85,3.73-6.34,6.52-1.49,2.79-2.23,5.96-2.23,9.52s.75,6.78,2.23,9.57c1.49,2.79,3.6,4.96,6.34,6.52,2.74,1.56,5.88,2.34,9.44,2.34,4.52,0,8.31-1.21,11.4-3.62,3.08-2.41,5.06-5.69,5.95-9.83h-10.83c-.65,1.37-1.55,2.41-2.69,3.13Z"/>
      <path class="cls-6" d="m168.16,433.82c-1.61.96-2.98,2.26-4.11,3.9v-5.08h-10.06v28.8h10.06v-12.58c0-2.12.53-3.61,1.59-4.47,1.06-.85,2.68-1.28,4.88-1.28h2.82v-10.73c-1.85,0-3.58.48-5.18,1.44Z"/>
      <path class="cls-6" d="m204.45,446.7c0-2.94-.62-5.5-1.85-7.67-1.23-2.17-2.94-3.84-5.13-5-2.19-1.16-4.71-1.75-7.55-1.75s-5.42.6-7.62,1.8-3.93,2.9-5.16,5.11c-1.23,2.21-1.85,4.82-1.85,7.83s.62,5.63,1.87,7.85c1.25,2.22,2.98,3.94,5.18,5.13,2.21,1.2,4.73,1.8,7.57,1.8,2.36,0,4.52-.45,6.47-1.34,1.95-.89,3.57-2.11,4.85-3.67,1.28-1.56,2.15-3.33,2.59-5.31h-10.73c-.72,1.51-1.92,2.26-3.59,2.26-1.2,0-2.18-.39-2.95-1.16s-1.2-1.94-1.31-3.52h19.04c.1-.79.15-1.57.15-2.36Zm-19.15-2.51c.24-1.3.75-2.29,1.54-2.95.79-.67,1.8-1,3.03-1s2.26.35,3.08,1.05c.82.7,1.23,1.67,1.23,2.9h-8.88Z"/>
      <path class="cls-6" d="m232.81,438.45c-.17,0-.35,0-.52-.02-1.61-.14-3.67-.81-5.33-2.95l-4.6,16.47-5.49-19.3h-10.73l9.91,28.8h12.53l8.45-24.56c-.94.71-2.36,1.57-4.22,1.57Z"/>
      <path class="cls-6" d="m241.87,432.64v28.8h10.06v-28.8h-10.06Z"/>
      <path class="cls-6" d="m268.72,432.64c.07-1.09.36-1.89.87-2.39.51-.49,1.32-.74,2.41-.74.48,0,.85.02,1.13.05v-8.57c-.45-.03-1.08-.05-1.9-.05-4.07,0-7.2.98-9.37,2.95-2.17,1.97-3.26,4.8-3.26,8.5v.26h-3.13v8.37h3.13v20.43h10.11v-20.43h4.52v-8.37h-4.52Z"/>
      <path class="cls-6" d="m296.8,432.64l-5.85,16.33-6.06-16.33h-11.19l11.81,27.56-6.88,14.94h10.94l18.27-42.5h-11.04Z"/>
      <circle class="cls-6" cx="246.9" cy="423.28" r="5.49"/>
    </g>
    <text class="cls-9" transform="translate(153.35 482.31)"><tspan x="0" y="0">Made just for you...</tspan></text>
  </g>
  <g>
    <path class="cls-6" d="m509.74,404.94c2.3,3.32,4.95,6.15,7.9,8.56,3.69,3.01,7.69,5.17,11.99,6.47,2.87.87,5.77,1.33,8.73,1.37,3.06.04,6.08-.28,9.07-1.1,2.97-.81,5.82-2.02,8.54-3.67.17-.1.34-.19.51-.29.03-.02.07-.01.12-.02.54.49.97,1.15,1.37,1.81,1.07,1.77,1.78,3.75,2.16,5.89.23,1.26.32,2.55.48,3.82.18,1.45.45,2.86,1.03,4.17.84,1.9,2.1,3.04,3.9,3.2.97.09,1.81-.39,2.6-1,1.71-1.32,2.7-3.23,2.92-5.67.13-1.44-.01-2.87-.33-4.27-1.3-5.67-4.21-9.56-8.7-11.72-.06-.03-.13-.06-.19-.1-.01,0-.02-.03-.07-.09,2.33-2.09,4.44-4.49,6.36-7.12,0-.1,0-.2-.01-.29-.67.57-1.35,1.13-2.02,1.7-2.67,2.24-5.51,4.1-8.5,5.63-3.72,1.9-7.59,3.21-11.58,3.92-3.47.62-6.95.76-10.44.47-4.43-.37-8.73-1.48-12.91-3.31-3.26-1.43-6.37-3.25-9.29-5.53-1.15-.9-2.25-1.89-3.37-2.84-.03-.02-.07-.02-.1-.03-.06.01-.13.03-.19.04Zm55.28,19.03c-.93-4.07-2.5-7.56-5.78-9.59.23-.18.42-.34.62-.49.21-.17.42-.34.65-.53,3.12,2.54,4.38,6.21,4.51,10.61Z"/>
    <path class="cls-6" d="m573.46,402.39c.25.03.5.08.74.1,2,.17,4,.16,5.96-.44.9-.28,1.76-.68,2.52-1.35.52-.46.96-1.01,1.27-1.69.63-1.34.6-2.69-.11-3.95-.68-1.22-1.67-1.77-2.88-1.56-1.27.23-2.11,1.14-2.47,2.64-.39,1.58-1.21,2.78-2.18,3.86-.7.78-1.49,1.4-2.33,1.93-.18.11-.36.23-.54.34,0,.04,0,.08,0,.13Zm6.99-4.27c.4-.54.71-1.1.77-1.82,0-.08.05-.16.08-.23.18-.38.57-.53.89-.35.33.18.52.7.34,1.1-.13.28-.32.55-.53.73-.45.38-.98.54-1.54.57Z"/>
    <path class="cls-6" d="m571.87,409.59c1.04.61,1.79,1.58,2.44,2.69.63,1.07,1.77,1.41,2.75.88.95-.52,1.49-1.8,1.28-3.03-.22-1.31-1.09-2.23-2.18-2.2-1.5.03-2.89.56-4.17,1.52-.04.03-.06.09-.11.16Zm4.73-.52c.46.1.85.38,1.01.74.15.32.11.68-.08.92-.18.23-.48.29-.71.15-.23-.14-.37-.45-.34-.78.03-.35.08-.69.11-1.03Z"/>
    <path class="cls-6" d="m556.01,387.66c-.16.82-.53,1.61-1.11,2.29-5.77,6.86-12.29,8.3-16.74,8.3-3.08,0-6.12-.7-8.82-2.01-7.8-3.82-11.84-11.97-10.05-20.28.09-.42.19-.83.29-1.23-.78.53-1.72.84-2.71.88-.02,0-.13,0-.16,0-2.04,0-3.9-1.19-4.73-3.03l-1.5-3.29c-.1-.22-.31-.34-.46-.34-.68.03-1.35.05-2.01.05-.79,3.05-1.18,6.31-1.18,9.77,0,6.42,1.33,12.11,3.98,17.09,2.66,4.98,6.43,8.86,11.32,11.64,4.88,2.78,10.5,4.17,16.86,4.17,8.06,0,14.84-2.15,20.34-6.46,5.5-4.31,9.04-10.15,10.63-17.55h-13.94Zm3.32-35.23c-4.09-3.2-8.88-5.21-14.38-6.03-.57.99-1.24,1.93-2,2.81l-2.78,3.26c-.62.73-.78,1.74-.42,2.65.61,1.49,1.26,2.94,1.95,4.34,5.95.95,11.6,4.28,13.91,8.36.4.71.71,1.44.92,2.17h13.43c-1.59-7.39-5.13-13.24-10.63-17.55Z"/>
    <path class="cls-6" d="m538.16,394.74c-2.71,0-5.23-.66-7.27-1.66-6.32-3.1-9.6-9.68-8.16-16.39,2.29-10.65,9.11-13.24,12.97-13.83.03,0,.07,0,.1-.01-.93-1.85-1.73-3.64-2.36-5.17-1.33-3.27-.74-6.97,1.54-9.65l2.78-3.26c1.25-1.47,2.14-3.18,2.58-4.95.59-2.41.03-5.44-1.43-7.72-1-1.56-2.28-2.56-3.6-2.81-5.49-1.05-9.66-.19-12.16,2.48,3.13,3.69,4.9,8.34,4.12,11.57-.48,1.99-1.92,3.31-3.95,3.63-1.7.26-3.31-.6-4.43-2.36-1.86-2.95-2.27-8.2-.01-12.48-.36-.32-.74-.63-1.14-.91-2.66-1.93-6.85-3.62-11.69-.64-3.45,2.12-4.36,5.31-4.34,8.13,5.27.84,10.72,4.23,12.78,8.22,1.22,2.36,1.11,4.72-.32,6.64-1.35,1.81-3.27,2.52-5.41,1.99-4.35-1.08-8.86-7.29-10.06-13.72-2.79.15-4.76,1.42-5.86,3.78-1.89,4.08-1.85,7.78.12,10.69,2.73,4.05,8.97,6.23,16.69,5.84,2.96-.14,5.78,1.59,7.02,4.34v.02c2.72-4.72,7.04-8,12.92-9.76.87-.26,1.8.23,2.06,1.11.26.88-.23,1.8-1.11,2.06-6.23,1.87-10.26,5.5-12.33,11.12-.23.63-.82,1.06-1.49,1.08-.67.01-1.29-.36-1.57-.97l-1.5-3.29c-.69-1.52-2.23-2.48-3.84-2.4-9.02.45-16.17-2.21-19.6-7.3-2.61-3.87-2.75-8.82-.38-13.93,1.59-3.43,4.61-5.44,8.55-5.69.02-4.64,2.06-8.4,5.91-10.77,4.99-3.07,10.45-2.79,15.37.78.39.28.77.58,1.13.89,2.34-2.42,6.86-4.95,15.11-3.38,2.22.42,4.27,1.94,5.77,4.28,1.96,3.05,2.67,7,1.85,10.3-.56,2.27-1.69,4.45-3.28,6.31l-2.78,3.26c-1.48,1.73-1.86,4.13-1,6.25.93,2.28,1.92,4.38,2.93,6.28,5.82.38,11.24,3.5,13.12,6.82,1.16,2.04,1.04,4.15-.33,5.8-1.08,1.31-2.55,1.9-4.14,1.65-3.69-.57-7.57-5.64-10.61-10.98-.43.02-.85.07-1.28.13-5.29.81-8.83,4.7-10.23,11.25-1.13,5.27,1.37,10.26,6.38,12.72,4.41,2.16,11.6,2.27,17.33-4.55.59-.7,1.63-.79,2.33-.2.7.59.79,1.63.2,2.33-4.37,5.19-9.49,7.05-14.05,7.05Zm3.35-28.41c2.79,4.44,5.47,7.13,7.08,7.38.36.06.69,0,1.09-.49.21-.25.69-.83,0-2.06-1.05-1.85-4.28-4.01-8.16-4.83Zm-39.34-24.19c1.25,5.1,4.8,9.54,7.4,10.18.83.2,1.41-.02,1.96-.75.24-.33.98-1.32.04-3.15-1.33-2.57-5.24-5.34-9.39-6.29Zm19.14-7.37c-1.15,3.07-.64,6.44.38,8.06.18.28.64.93,1.12.86.71-.11,1.07-.44,1.24-1.13.44-1.82-.64-4.97-2.74-7.79Z"/>
    <g>
      <path class="cls-6" d="m468.67,451.37c-1.15.72-2.47,1.08-3.98,1.08-2.33,0-4.18-.83-5.57-2.49s-2.08-3.89-2.08-6.7.69-4.99,2.08-6.65,3.24-2.49,5.57-2.49c1.51,0,2.83.36,3.98,1.08,1.14.72,2.04,1.76,2.69,3.13h10.83c-.89-4.14-2.87-7.42-5.95-9.83-3.08-2.41-6.88-3.62-11.4-3.62-3.56,0-6.71.78-9.44,2.34-2.74,1.56-4.85,3.73-6.34,6.52-1.49,2.79-2.23,5.96-2.23,9.52s.75,6.78,2.23,9.57c1.49,2.79,3.6,4.96,6.34,6.52,2.74,1.56,5.88,2.34,9.44,2.34,4.52,0,8.31-1.21,11.4-3.62,3.08-2.41,5.06-5.69,5.95-9.83h-10.83c-.65,1.37-1.55,2.41-2.69,3.13Z"/>
      <path class="cls-6" d="m501.13,433.82c-1.61.96-2.98,2.26-4.11,3.9v-5.08h-10.06v28.8h10.06v-12.58c0-2.12.53-3.61,1.59-4.47,1.06-.85,2.68-1.28,4.88-1.28h2.82v-10.73c-1.85,0-3.58.48-5.18,1.44Z"/>
      <path class="cls-6" d="m537.42,446.7c0-2.94-.62-5.5-1.85-7.67-1.23-2.17-2.94-3.84-5.13-5-2.19-1.16-4.71-1.75-7.55-1.75s-5.42.6-7.62,1.8-3.93,2.9-5.16,5.11c-1.23,2.21-1.85,4.82-1.85,7.83s.62,5.63,1.87,7.85c1.25,2.22,2.98,3.94,5.18,5.13,2.21,1.2,4.73,1.8,7.57,1.8,2.36,0,4.52-.45,6.47-1.34,1.95-.89,3.57-2.11,4.85-3.67,1.28-1.56,2.15-3.33,2.59-5.31h-10.73c-.72,1.51-1.92,2.26-3.59,2.26-1.2,0-2.18-.39-2.95-1.16s-1.2-1.94-1.31-3.52h19.04c.1-.79.15-1.57.15-2.36Zm-19.15-2.51c.24-1.3.75-2.29,1.54-2.95.79-.67,1.8-1,3.03-1s2.26.35,3.08,1.05c.82.7,1.23,1.67,1.23,2.9h-8.88Z"/>
      <path class="cls-6" d="m565.78,438.45c-.17,0-.35,0-.52-.02-1.61-.14-3.67-.81-5.33-2.95l-4.6,16.47-5.49-19.3h-10.73l9.91,28.8h12.53l8.45-24.56c-.94.71-2.36,1.57-4.22,1.57Z"/>
      <path class="cls-6" d="m574.84,432.64v28.8h10.06v-28.8h-10.06Z"/>
      <path class="cls-6" d="m601.69,432.64c.07-1.09.36-1.89.87-2.39.51-.49,1.32-.74,2.41-.74.48,0,.85.02,1.13.05v-8.57c-.45-.03-1.08-.05-1.9-.05-4.07,0-7.2.98-9.37,2.95-2.17,1.97-3.26,4.8-3.26,8.5v.26h-3.13v8.37h3.13v20.43h10.11v-20.43h4.52v-8.37h-4.52Z"/>
      <path class="cls-6" d="m629.76,432.64l-5.85,16.33-6.06-16.33h-11.19l11.81,27.56-6.88,14.94h10.94l18.27-42.5h-11.04Z"/>
      <circle class="cls-6" cx="579.87" cy="423.28" r="5.49"/>
    </g>
    <text class="cls-9" transform="translate(486.32 482.31)"><tspan x="0" y="0">Made just for you...</tspan></text>
  </g>
</svg>