<?xml version="1.0" encoding="UTF-8"?>
<svg id="Design" xmlns="http://www.w3.org/2000/svg" xmlns:xlink="http://www.w3.org/1999/xlink" viewBox="0 0 283.46 141.73">
  <defs>
    <style>
      .cls-1 {
        fill: #8dc63f;
      }

      .cls-1, .cls-2, .cls-3, .cls-4, .cls-5, .cls-6 {
        stroke-width: 0px;
      }

      .cls-2 {
        fill: #f75200;
      }

      .cls-3 {
        fill: url(#Orange_Yellow);
      }

      .cls-4 {
        fill: url(#Orange_Yellow-2);
      }

      .cls-5 {
        fill: url(#Orange_Yellow-4);
      }

      .cls-6 {
        fill: url(#Orange_Yellow-3);
      }
    </style>
    <linearGradient id="Orange_Yellow" data-name="Orange, Yellow" x1="36.83" y1="103.95" x2="91.19" y2="103.95" gradientUnits="userSpaceOnUse">
      <stop offset="0" stop-color="#fff33b"/>
      <stop offset=".04" stop-color="#fee62d"/>
      <stop offset=".12" stop-color="#fdd51b"/>
      <stop offset=".2" stop-color="#fdca0f"/>
      <stop offset=".28" stop-color="#fdc70c"/>
      <stop offset=".67" stop-color="#f3903f"/>
      <stop offset=".89" stop-color="#ed683c"/>
      <stop offset="1" stop-color="#e93e3a"/>
    </linearGradient>
    <linearGradient id="Orange_Yellow-2" data-name="Orange, Yellow" x1="93.25" y1="84.45" x2="102.95" y2="84.45" xlink:href="#Orange_Yellow"/>
    <linearGradient id="Orange_Yellow-3" data-name="Orange, Yellow" x1="91.85" y1="95.65" x2="97.61" y2="95.65" xlink:href="#Orange_Yellow"/>
    <linearGradient id="Orange_Yellow-4" data-name="Orange, Yellow" x1="38.59" y1="70.33" x2="65.61" y2="23.53" xlink:href="#Orange_Yellow"/>
  </defs>
  <g>
    <g>
      <path class="cls-3" d="m36.83,90.58c2.03,2.94,4.38,5.45,7,7.58,3.27,2.66,6.81,4.58,10.62,5.73,2.54.77,5.11,1.18,7.73,1.22,2.71.04,5.39-.25,8.03-.97,2.63-.72,5.15-1.79,7.56-3.25.15-.09.3-.17.45-.25.03-.01.06-.01.11-.02.48.43.86,1.01,1.22,1.6.95,1.56,1.58,3.32,1.91,5.21.2,1.11.28,2.26.43,3.39.16,1.28.4,2.53.91,3.69.74,1.69,1.86,2.69,3.45,2.83.86.08,1.6-.35,2.3-.89,1.51-1.17,2.39-2.86,2.59-5.02.12-1.27-.01-2.54-.29-3.78-1.15-5.02-3.73-8.47-7.7-10.38-.06-.03-.11-.06-.17-.09-.01,0-.02-.02-.06-.08,2.07-1.85,3.93-3.98,5.63-6.31,0-.09,0-.17-.01-.26-.6.5-1.19,1-1.79,1.51-2.37,1.98-4.88,3.63-7.53,4.98-3.3,1.69-6.72,2.84-10.25,3.47-3.07.55-6.15.67-9.25.41-3.92-.33-7.73-1.31-11.43-2.93-2.89-1.27-5.64-2.88-8.22-4.9-1.02-.8-1.99-1.67-2.98-2.51-.02-.02-.06-.02-.09-.03-.06.01-.11.02-.17.04Zm48.95,16.85c-.82-3.6-2.22-6.69-5.12-8.49.2-.16.38-.3.55-.44.19-.15.37-.3.58-.47,2.76,2.25,3.88,5.5,4,9.4Z"/>
      <path class="cls-4" d="m93.25,88.32c.22.03.44.07.66.09,1.77.15,3.54.14,5.28-.39.8-.24,1.56-.6,2.23-1.2.46-.4.85-.89,1.13-1.5.56-1.19.53-2.38-.09-3.5-.6-1.08-1.48-1.57-2.55-1.38-1.12.2-1.86,1.01-2.19,2.33-.34,1.4-1.07,2.46-1.93,3.42-.62.69-1.32,1.24-2.06,1.71-.16.1-.32.2-.48.3,0,.04,0,.07,0,.11Zm6.19-3.78c.36-.47.63-.97.68-1.61,0-.07.04-.14.07-.2.16-.34.5-.47.79-.31.29.16.46.62.3.97-.11.25-.28.48-.47.64-.4.34-.87.48-1.37.51Z"/>
      <path class="cls-6" d="m91.85,94.7c.92.54,1.58,1.4,2.16,2.38.56.95,1.57,1.25,2.43.78.84-.46,1.32-1.59,1.13-2.69-.2-1.16-.97-1.97-1.93-1.95-1.33.03-2.56.5-3.7,1.34-.04.03-.06.08-.1.14Zm4.19-.46c.4.08.75.34.9.65.13.28.1.6-.07.82-.16.2-.42.26-.63.13-.2-.12-.33-.4-.3-.69.03-.31.07-.61.1-.92Z"/>
    </g>
    <g>
      <path class="cls-1" d="m77.81,75.28c-.14.73-.47,1.42-.98,2.03-5.11,6.08-10.88,7.35-14.83,7.35-2.73,0-5.42-.62-7.81-1.78-6.91-3.38-10.48-10.6-8.9-17.96.08-.37.16-.73.26-1.09-.7.47-1.52.75-2.4.78-.02,0-.11,0-.14,0-1.81,0-3.45-1.05-4.19-2.68l-1.32-2.91c-.09-.2-.28-.31-.41-.31-.6.03-1.2.05-1.78.05-.7,2.7-1.05,5.59-1.05,8.65,0,5.68,1.18,10.72,3.53,15.13,2.35,4.41,5.69,7.84,10.02,10.3,4.33,2.46,9.3,3.69,14.93,3.69,7.14,0,13.14-1.91,18.01-5.72,4.87-3.81,8-8.99,9.41-15.54h-12.35Zm2.94-31.19c-3.62-2.83-7.86-4.61-12.73-5.34-.51.87-1.1,1.71-1.77,2.49l-2.46,2.88c-.55.65-.69,1.54-.37,2.34.54,1.32,1.12,2.61,1.72,3.84,5.27.84,10.27,3.79,12.31,7.4.36.63.63,1.27.81,1.92h11.89c-1.41-6.54-4.54-11.72-9.41-15.54Z"/>
      <path class="cls-5" d="m62,81.55c-2.4,0-4.63-.58-6.44-1.47-5.6-2.74-8.5-8.57-7.23-14.51,2.03-9.43,8.07-11.72,11.49-12.24.03,0,.06,0,.09-.01-.83-1.64-1.53-3.22-2.09-4.58-1.18-2.9-.66-6.17,1.37-8.55l2.46-2.88c1.11-1.3,1.9-2.81,2.29-4.38.53-2.14.03-4.82-1.26-6.83-.89-1.38-2.02-2.27-3.19-2.49-4.86-.93-8.55-.17-10.77,2.19,2.77,3.27,4.34,7.39,3.65,10.25-.43,1.76-1.7,2.93-3.5,3.21-1.51.23-2.93-.53-3.92-2.09-1.65-2.61-2.01-7.26-.01-11.05-.32-.28-.66-.55-1.01-.81-2.36-1.71-6.07-3.2-10.35-.57-3.05,1.88-3.86,4.7-3.84,7.2,4.67.75,9.49,3.74,11.32,7.28,1.08,2.09.98,4.18-.29,5.88-1.19,1.6-2.89,2.23-4.79,1.76-3.85-.95-7.85-6.45-8.9-12.15-2.47.13-4.22,1.26-5.19,3.35-1.67,3.61-1.64,6.88.1,9.46,2.42,3.58,7.95,5.52,14.78,5.17,2.62-.13,5.12,1.41,6.22,3.84v.02c2.4-4.18,6.24-7.08,11.44-8.64.77-.23,1.59.21,1.82.98.23.78-.21,1.59-.98,1.82-5.51,1.65-9.09,4.87-10.92,9.84-.21.56-.73.94-1.32.96-.59.01-1.14-.32-1.39-.86l-1.33-2.91c-.61-1.34-1.97-2.19-3.4-2.13-7.99.4-14.32-1.95-17.36-6.46-2.31-3.43-2.43-7.81-.33-12.34,1.41-3.04,4.08-4.81,7.57-5.04.01-4.11,1.82-7.44,5.24-9.54,4.42-2.72,9.25-2.47,13.61.69.34.25.68.51,1,.79,2.08-2.14,6.08-4.39,13.38-3,1.97.37,3.78,1.72,5.11,3.79,1.73,2.7,2.36,6.2,1.64,9.12-.5,2.01-1.5,3.94-2.9,5.58l-2.46,2.88c-1.31,1.54-1.65,3.66-.88,5.54.82,2.02,1.7,3.88,2.59,5.56,5.15.34,9.95,3.1,11.62,6.04,1.02,1.81.92,3.68-.29,5.14-.96,1.16-2.26,1.68-3.66,1.46-3.26-.5-6.71-4.99-9.39-9.72-.38.02-.76.06-1.13.12-4.68.72-7.82,4.16-9.06,9.96-1,4.67,1.22,9.09,5.65,11.26,3.91,1.91,10.27,2.01,15.35-4.03.52-.62,1.45-.7,2.07-.18.62.52.7,1.45.18,2.07-3.87,4.6-8.4,6.24-12.45,6.24Zm2.97-25.15c2.47,3.93,4.84,6.32,6.27,6.54.32.05.61,0,.96-.43.18-.22.61-.74,0-1.82-.93-1.64-3.79-3.55-7.23-4.28Zm-34.83-21.42c1.1,4.52,4.25,8.45,6.55,9.02.73.18,1.25-.02,1.73-.66.21-.29.87-1.17.03-2.79-1.18-2.28-4.64-4.73-8.31-5.57Zm16.95-6.53c-1.01,2.72-.57,5.71.34,7.14.16.25.57.82.99.76.63-.1.95-.39,1.1-1,.39-1.61-.56-4.4-2.43-6.9Z"/>
    </g>
  </g>
  <g>
    <g>
      <path class="cls-2" d="m130.51,91.37c.05-.48.11-1.04.18-1.67.07-.63.15-1.29.23-1.98.08-.69.17-1.38.25-2.08.09-.7.17-1.35.26-1.96-.3.57-.59,1.14-.9,1.72s-.59,1.12-.86,1.64c-.27.52-.52.99-.75,1.4s-.41.76-.55,1.01c-.13.17-.26.34-.39.49-.13.16-.25.29-.38.41-.13.12-.25.21-.37.28-.12.07-.24.1-.36.1-.16,0-.28-.03-.37-.1-.09-.07-.14-.17-.14-.3,0-.03,0-.05,0-.08s0-.05.02-.08c-.03-.79-.06-1.59-.08-2.4-.02-.81-.03-1.6-.03-2.38v-.55c0-.18,0-.37,0-.54-.22.5-.47,1.03-.73,1.57-.26.54-.54,1.08-.82,1.6-.29.53-.58,1.04-.88,1.52-.3.49-.6.93-.91,1.33s-.6.74-.89,1.02c-.29.28-.57.48-.84.59-.23.09-.44.16-.61.21-.17.04-.33.06-.46.06-.2,0-.35-.04-.45-.12-.1-.08-.15-.18-.15-.3,0-.14.06-.29.18-.44.12-.15.28-.27.49-.35.26-.1.54-.32.84-.67s.62-.76.94-1.25c.32-.49.65-1.04.98-1.64.33-.6.65-1.22.96-1.83.31-.62.6-1.23.88-1.82.27-.59.52-1.13.73-1.61s.39-.88.52-1.2.22-.52.26-.6c.08-.17.19-.3.33-.38.14-.08.28-.12.43-.12.2,0,.34.05.42.16.08.11.12.3.12.58.04.35.08.68.11.99.03.31.06.63.08.96.02.33.04.68.05,1.06,0,.38.01.81.01,1.3,0,.35,0,.74-.02,1.16-.01.42-.02.9-.02,1.42.67-1.22,1.26-2.29,1.78-3.22.52-.93.97-1.71,1.35-2.34.38-.63.71-1.1.97-1.42.26-.32.47-.48.63-.48h.06s.03,0,.05,0c.02,0,.03,0,.05,0,.13,0,.24.08.32.25.08.17.12.38.12.65-.02.27-.06.61-.1,1.02-.04.41-.1.86-.15,1.34-.06.49-.12,1-.19,1.55-.07.54-.13,1.08-.2,1.61-.07.53-.13,1.05-.19,1.55-.06.5-.11.96-.15,1.37-.01.07-.02.15-.02.22v.23c0,.15,0,.29,0,.44,0,.15,0,.29,0,.44,0,.17,0,.34-.02.51-.02.17-.06.32-.14.46s-.19.25-.36.33c-.16.09-.38.13-.67.13-.15,0-.27-.06-.36-.17-.09-.11-.13-.32-.13-.62Z"/>
      <path class="cls-2" d="m143.32,89.55c-.1.09-.23.23-.4.39-.17.17-.36.35-.57.54-.22.2-.44.39-.69.59s-.49.38-.75.54c-.25.16-.5.29-.75.4-.25.1-.48.16-.7.16-.2,0-.36-.04-.5-.13-.14-.08-.26-.19-.35-.33-.09-.13-.16-.29-.21-.46-.04-.17-.07-.35-.07-.52,0-.12,0-.23.02-.35.02-.11.04-.22.08-.32-.17.23-.37.48-.59.72-.22.25-.46.47-.71.68s-.52.37-.8.5-.56.2-.84.2c-.14,0-.31-.03-.51-.09-.19-.06-.38-.15-.55-.29-.17-.13-.32-.31-.44-.52-.12-.21-.18-.47-.18-.78,0-.23.04-.5.1-.82.07-.32.18-.65.32-.99s.32-.68.54-1.02c.22-.33.48-.63.78-.9s.65-.48,1.03-.65c.38-.16.82-.25,1.29-.25.25,0,.46.03.65.09.18.06.34.13.47.2.15.09.27.19.39.29.09-.05.19-.1.29-.14.08-.04.17-.07.26-.1.09-.03.17-.05.24-.05.21,0,.39.06.52.18.13.12.2.25.2.38,0,.04,0,.07,0,.09-.03.11-.07.24-.13.4s-.12.34-.2.54c-.07.2-.15.41-.22.62-.08.21-.14.43-.21.63-.06.21-.11.4-.15.58s-.06.34-.06.46c0,.17.03.31.08.42.06.11.15.16.29.16.08,0,.18-.03.3-.08.11-.05.24-.12.37-.21.13-.09.27-.19.41-.31s.28-.23.42-.35c.31-.28.65-.6,1-.96.09-.07.18-.11.26-.11.11,0,.21.05.28.16.08.11.11.23.11.37,0,.16-.05.29-.16.39Zm-5.81-2.16c-.26,0-.52.07-.76.2-.25.13-.46.31-.65.53s-.34.46-.45.73c-.11.27-.17.54-.17.82,0,.11,0,.23.02.35.01.12.05.23.1.33.05.1.12.18.21.25.09.07.22.1.37.1.12,0,.27-.05.43-.16.16-.11.33-.25.51-.42.18-.17.35-.36.52-.56.17-.2.32-.4.45-.6s.24-.37.33-.53.13-.27.13-.34c0-.11-.04-.2-.11-.29-.07-.09-.16-.16-.27-.22-.11-.06-.22-.11-.34-.14-.12-.03-.22-.05-.31-.05Z"/>
      <path class="cls-2" d="m147.55,90.26s0,.03,0,.04,0,.03,0,.04c0,.1.03.21.08.31.05.11.13.16.24.16.04,0,.08,0,.1-.02.32-.09.64-.25.97-.45.33-.21.64-.43.94-.68.3-.25.58-.5.83-.75.25-.26.46-.49.63-.69.08-.09.17-.14.26-.14.08,0,.16.04.22.12.06.08.1.18.1.32,0,.11-.03.23-.09.38-.06.15-.16.3-.29.47-.33.36-.67.71-1.01,1.05-.35.33-.7.63-1.05.89-.35.26-.7.47-1.05.62-.35.16-.69.24-1.03.24-.41,0-.73-.12-.96-.35-.24-.23-.35-.58-.35-1.04v-.09s0-.06,0-.09c-.13.23-.29.45-.49.64-.2.19-.42.36-.66.5s-.49.24-.75.32c-.26.08-.51.11-.75.11-.21,0-.4-.03-.57-.08-.17-.06-.32-.15-.45-.27s-.22-.28-.29-.47c-.07-.19-.11-.42-.11-.69,0-.47.07-.92.22-1.34.15-.42.34-.81.58-1.16s.52-.67.83-.96c.31-.28.63-.52.96-.72.33-.2.66-.35.99-.46.33-.11.63-.16.91-.16.32,0,.59.05.82.16.11.06.21.13.31.23.02-.05.04-.1.07-.14.06-.13.11-.25.15-.35s.08-.17.09-.21c.02-.05.06-.17.14-.35.08-.18.17-.4.27-.65.1-.25.21-.52.34-.8.12-.28.23-.55.33-.8.1-.25.19-.47.26-.65.07-.18.12-.3.13-.35.04-.14.09-.28.16-.41.07-.13.15-.25.24-.34.09-.1.2-.18.32-.24.12-.06.26-.09.42-.09.21,0,.39.05.53.14.14.09.21.27.21.53,0,.11-.01.21-.04.33-.03.11-.06.22-.1.33s-.08.21-.12.31-.08.2-.11.29c-.28.56-.57,1.17-.88,1.82-.31.66-.61,1.32-.91,1.98-.3.67-.59,1.31-.86,1.94-.27.63-.51,1.2-.72,1.71Zm-.25-3.28c-.33.01-.69.08-1.06.22-.42.15-.81.36-1.17.65-.35.29-.65.64-.89,1.06-.24.42-.38.9-.41,1.44,0,.22.09.33.28.33.24,0,.46-.05.67-.15.21-.1.42-.23.61-.39.19-.16.37-.35.54-.57.17-.21.32-.43.46-.66.14-.23.27-.46.39-.68s.21-.44.3-.63c.03-.06.07-.15.12-.26.04-.11.1-.23.16-.36Z"/>
      <path class="cls-2" d="m154.31,85.87c.46,0,.81.11,1.04.33.23.22.34.53.34.93,0,.23-.06.48-.18.74-.12.26-.33.52-.64.78-.3.27-.71.54-1.21.81-.51.28-1.14.55-1.9.83.03.16.11.29.26.38s.34.14.58.14c.26,0,.53-.04.83-.11.29-.08.58-.17.87-.29.29-.12.57-.25.84-.38s.52-.27.74-.39.41-.23.55-.32c.15-.09.25-.14.3-.17.05-.03.1-.05.14-.06.04,0,.08,0,.11,0,.07,0,.12.02.17.05.04.03.08.07.11.11s.05.09.06.13c.01.05.02.09.02.12,0,.05,0,.11-.02.18-.01.07-.05.15-.12.24-.03.03-.12.1-.28.23s-.36.27-.62.44c-.25.17-.54.35-.88.53-.33.19-.68.36-1.06.52-.37.16-.76.29-1.16.39-.4.1-.8.16-1.19.16-.33,0-.63-.06-.89-.19-.26-.13-.48-.3-.66-.52s-.32-.47-.41-.75c-.1-.29-.14-.58-.14-.9,0-.24.05-.5.14-.79.09-.29.23-.58.41-.87s.4-.57.66-.85.55-.52.88-.73c.32-.21.68-.38,1.07-.51.39-.13.8-.19,1.24-.19Zm-.3,1.16s-.05,0-.08,0h-.08c-.21,0-.41.04-.59.13s-.35.19-.51.33c-.15.14-.29.29-.41.46s-.23.34-.32.52c-.09.17-.17.33-.24.49-.06.16-.11.29-.15.39.2-.1.4-.21.61-.34.21-.13.41-.25.59-.37.18-.12.34-.22.48-.32.14-.09.23-.16.29-.19.25-.16.42-.3.52-.44.09-.14.14-.26.14-.36,0-.08-.03-.15-.08-.2s-.11-.08-.18-.09Z"/>
      <path class="cls-2" d="m161.48,90.9c.33-.28.76-.61,1.29-.97.52-.36,1.16-.77,1.91-1.22.08-.05.16-.08.24-.08.12,0,.23.05.31.15s.12.22.12.37-.06.3-.17.47c-.11.17-.3.32-.56.46l-2.83,1.94c-.12.11-.23.21-.33.29-.1.08-.2.16-.29.23s-.2.15-.3.23c-.1.08-.22.16-.35.25-.27.47-.52.87-.74,1.19-.22.33-.43.59-.64.8-.21.2-.43.35-.65.45-.22.09-.48.14-.76.14-.26,0-.45-.05-.55-.15-.1-.1-.15-.25-.15-.43,0-.17.08-.35.24-.52.16-.18.35-.36.57-.54.22-.19.44-.39.66-.59.22-.21.39-.44.51-.68.15-.31.31-.65.48-1s.34-.72.52-1.09c.17-.37.35-.74.52-1.1s.34-.71.5-1.05c.16-.33.31-.64.45-.93.14-.28.27-.53.37-.73.11-.21.26-.37.43-.46s.35-.15.52-.15c.18,0,.33.05.46.15.13.1.19.24.19.43,0,.12,0,.24-.03.34s-.06.21-.11.34-.13.28-.22.45c-.09.18-.21.4-.36.67-.15.27-.32.59-.52.98-.2.38-.44.85-.71,1.39Zm1.47-6.18c0-.13.03-.26.09-.4.05-.14.13-.26.23-.37.1-.11.22-.2.37-.28.15-.07.32-.11.51-.11.31,0,.52.06.65.17.12.11.19.26.19.43,0,.11-.02.23-.06.36s-.11.26-.19.37-.2.21-.34.29c-.14.08-.31.12-.5.12-.35,0-.59-.05-.72-.16-.14-.11-.21-.25-.21-.43Z"/>
      <path class="cls-2" d="m173.47,89.96c-.25.28-.53.55-.86.82-.33.27-.66.5-1.01.71-.35.21-.69.37-1.02.5-.33.13-.64.19-.91.19s-.49-.08-.65-.23c-.17-.15-.25-.41-.25-.77,0-.26.04-.56.13-.9-.15.22-.33.44-.54.66s-.47.43-.75.61c-.28.18-.59.33-.94.45-.35.11-.72.17-1.13.17-.18,0-.36-.02-.53-.06-.17-.04-.32-.11-.45-.2-.13-.1-.23-.22-.31-.38-.08-.16-.12-.36-.12-.6,0,0,.01-.09.03-.26s.09-.42.21-.78.31-.81.56-1.38c.25-.56.61-1.25,1.06-2.05.12-.21.25-.36.41-.46.15-.09.32-.14.5-.14.08,0,.16,0,.24.03.08.02.16.05.24.09.07.04.13.09.18.16.04.06.07.14.07.22,0,.06,0,.11-.02.16-.03.09-.09.22-.18.37-.09.15-.2.33-.32.53s-.25.41-.39.64c-.14.23-.26.47-.38.71-.12.25-.22.5-.3.75-.08.25-.13.5-.14.74,0,.1.03.19.08.28.06.08.15.12.28.12.36,0,.71-.1,1.04-.3.33-.2.63-.45.91-.75s.53-.62.76-.96c.23-.34.42-.66.57-.94.11-.19.2-.39.28-.61s.17-.42.26-.6c.1-.18.2-.34.33-.46.12-.12.28-.18.46-.18.2,0,.36.06.48.19s.18.28.18.46c0,.1-.04.24-.11.42-.08.18-.17.38-.28.6-.12.23-.24.47-.37.73-.13.26-.26.52-.37.78s-.21.53-.29.78-.11.49-.11.71c0,.2.12.3.37.3.17,0,.39-.05.65-.15.26-.1.53-.24.81-.42.28-.18.56-.4.85-.64.28-.25.53-.51.75-.8l.08,1.14Z"/>
      <path class="cls-2" d="m174.73,87.25c.34.18.65.38.91.61.27.23.5.47.68.72s.33.51.43.78c.1.26.15.52.15.77,0,.32-.09.6-.27.86-.18.25-.42.47-.71.65-.29.18-.63.31-1.01.4s-.76.14-1.14.14c-.29,0-.57-.03-.85-.1s-.52-.16-.75-.3c-.23-.13-.42-.31-.58-.51-.16-.21-.28-.46-.34-.75-.01-.04-.02-.08-.02-.11,0-.15.05-.28.16-.39.11-.11.22-.16.35-.16.06,0,.13.01.21.03.08.02.13.07.17.15.07.13.17.25.31.36.13.11.28.2.44.27.16.08.33.13.52.18.18.04.36.06.53.06s.35-.02.51-.05c.17-.03.31-.09.44-.16.13-.07.23-.16.3-.28.07-.11.11-.25.11-.41,0-.29-.06-.55-.19-.79-.13-.24-.29-.46-.5-.67-.2-.2-.44-.39-.7-.57-.26-.18-.52-.34-.78-.51-.03-.02-.07-.07-.13-.15-.06-.08-.08-.16-.08-.25,0-.07.02-.12.05-.16.09-.12.19-.24.31-.36.12-.12.24-.24.38-.34.13-.1.28-.19.44-.25.16-.06.32-.1.49-.1.12,0,.24.02.34.05s.2.08.27.13c.07.05.13.11.17.18.04.06.06.12.06.18,0,.08-.02.15-.06.23-.04.07-.09.14-.16.21s-.14.13-.22.2-.16.13-.24.19Z"/>
      <path class="cls-2" d="m179.94,87.31c-.21.4-.4.79-.59,1.18s-.36.74-.52,1.06c-.07.13-.13.29-.2.46-.06.18-.1.33-.1.47,0,.08.02.14.05.18.04.04.1.07.18.07.12,0,.27-.04.44-.1.18-.07.37-.16.58-.28s.42-.25.65-.39c.23-.15.45-.3.67-.46.22-.16.43-.32.63-.48s.38-.31.54-.44c.09-.06.17-.09.25-.09.1,0,.17.04.24.12.06.08.09.19.09.32s-.03.26-.09.39c-.06.13-.17.26-.34.39-.36.33-.73.64-1.1.94s-.74.56-1.11.78c-.37.23-.73.41-1.08.54-.36.13-.7.2-1.04.2-.22,0-.41-.03-.56-.09-.15-.06-.27-.14-.36-.24-.09-.1-.16-.22-.2-.36s-.06-.28-.06-.44c0-.28.05-.57.14-.87.1-.3.2-.57.32-.81.17-.35.33-.69.5-1.03s.33-.67.48-.98h-.36c-.31,0-.53-.05-.64-.15s-.18-.21-.18-.34c0-.06.02-.12.05-.21s.09-.16.16-.23c.07-.07.16-.13.26-.18.1-.05.21-.08.34-.08h.9l1.77-3.51c.11-.21.25-.36.42-.46.16-.09.34-.14.51-.14.17,0,.32.04.46.13.14.09.21.24.21.44,0,.11-.02.21-.07.32-.05.11-.11.24-.19.38-.05.09-.11.21-.18.34-.07.13-.15.27-.23.42-.08.15-.17.3-.25.47-.09.16-.17.32-.26.47-.19.36-.39.73-.6,1.13h2.73c.13,0,.26,0,.37.02.11.01.21.04.29.08s.14.1.19.17c.04.07.07.17.07.29,0,.06,0,.12-.03.18-.02.06-.06.12-.11.17-.05.05-.13.09-.22.13s-.21.06-.36.07l-3.49.02Z"/>
      <path class="cls-2" d="m191.67,87.21c-.29.01-.57.02-.83.03s-.51,0-.76.01c-.25,0-.49,0-.73,0h-.73c-.15.29-.31.62-.49.99s-.37.77-.57,1.19c-.2.41-.4.83-.59,1.25s-.39.82-.57,1.2-.34.72-.49,1.02c-.15.3-.26.55-.35.72-.06.13-.14.25-.23.36-.09.11-.19.2-.29.28-.11.08-.21.14-.33.18-.11.04-.21.06-.31.06-.13,0-.25-.03-.36-.1s-.16-.17-.16-.32c0-.07.02-.16.05-.26.03-.1.08-.21.14-.34l2.96-6.27h-.44c-.31,0-.52-.05-.63-.14-.11-.1-.17-.21-.17-.34s.07-.26.21-.39c.14-.12.34-.19.61-.19h.99c.4-.8.79-1.46,1.19-1.98s.79-.93,1.18-1.23c.38-.3.76-.51,1.13-.63.37-.12.72-.18,1.05-.18.16,0,.31.03.45.09.14.06.27.15.38.28.11.12.2.28.26.46.07.19.1.41.1.66s-.03.51-.1.8c-.02.08-.05.14-.1.2-.05.05-.11.1-.17.13-.06.03-.12.06-.18.07-.06.01-.12.02-.16.02-.11,0-.22-.03-.31-.08-.09-.05-.14-.13-.14-.25,0-.07,0-.14.01-.2,0-.06.01-.12.01-.18,0-.24-.04-.4-.13-.5s-.2-.15-.35-.15c-.17,0-.38.08-.61.23-.23.15-.47.35-.7.6-.24.25-.46.54-.68.86s-.4.65-.54.98h1.95c.17,0,.33,0,.49,0,.15,0,.28.02.4.05.11.03.2.07.27.14.06.06.1.16.1.28,0,.06-.01.12-.03.18s-.06.12-.11.17c-.05.05-.13.1-.22.13-.09.04-.22.06-.37.07Z"/>
      <path class="cls-2" d="m193.77,85.87c.21,0,.44.03.68.08.24.06.47.15.67.29.21.13.38.31.52.53.14.22.21.49.21.82,0,.17-.02.36-.07.57-.04.21-.11.44-.2.67.06.07.12.11.19.14.07.03.15.04.23.04.12,0,.25-.03.39-.1.14-.07.29-.15.44-.26.15-.11.3-.23.45-.36.15-.13.29-.27.43-.4.13-.13.25-.26.36-.38.11-.12.2-.22.27-.31.04-.04.09-.06.14-.06.08,0,.15.04.21.12s.09.19.09.34-.04.31-.13.5c-.09.19-.25.39-.48.59-.13.15-.29.31-.46.5-.17.19-.36.37-.55.54-.2.17-.4.31-.61.43-.21.12-.42.18-.64.18-.15,0-.29-.02-.42-.07s-.28-.12-.42-.22c-.2.31-.43.6-.69.85s-.54.48-.86.66c-.32.18-.66.33-1.02.43-.37.1-.76.16-1.17.16-.16,0-.34-.03-.54-.09-.21-.06-.4-.16-.59-.31s-.34-.33-.47-.56c-.13-.23-.19-.51-.19-.84,0-.22.04-.49.11-.8.07-.31.18-.64.33-.97.15-.33.34-.66.56-.99.23-.33.5-.62.81-.88.31-.26.67-.47,1.07-.63.4-.16.85-.24,1.34-.24Zm-.44,1.47c-.26,0-.51.07-.76.2s-.46.3-.65.52-.34.46-.45.73c-.11.27-.17.55-.17.83,0,.11,0,.22.03.35s.05.24.1.35c.05.11.13.2.23.27.1.07.24.11.4.11.26,0,.51-.07.75-.21s.46-.32.65-.54.34-.47.45-.75c.11-.28.17-.56.17-.85,0-.11,0-.23-.02-.35-.01-.12-.05-.23-.1-.33-.05-.1-.13-.18-.23-.25s-.24-.1-.41-.1Z"/>
      <path class="cls-2" d="m200.16,87.08c.22-.13.44-.26.67-.37.23-.11.46-.21.67-.29s.43-.15.62-.19c.2-.05.38-.07.53-.07.25,0,.45.06.58.18s.21.32.21.61c0,.06,0,.13,0,.2,0,.07-.02.14-.03.22-.03.15-.11.32-.25.51s-.3.4-.49.61c-.19.21-.39.43-.6.64l-.59.59c-.18.18-.33.34-.45.47-.12.13-.18.23-.18.28,0,.04,0,.08,0,.09s.03.03.08.03c.3-.13.64-.28,1.01-.46.37-.18.74-.37,1.11-.56.37-.19.72-.38,1.05-.56.33-.18.61-.34.84-.47.05-.03.1-.05.15-.07.05-.02.1-.03.15-.03.1,0,.18.03.25.1.07.07.1.16.1.27,0,.13-.05.28-.16.44-.11.16-.29.34-.55.51-.2.12-.42.26-.66.42s-.5.31-.76.48c-.27.17-.53.33-.8.48-.27.16-.53.3-.78.42-.25.12-.49.22-.71.3s-.41.11-.57.11c-.38,0-.67-.09-.87-.28-.19-.18-.29-.42-.29-.71,0-.04,0-.08,0-.1.04-.25.11-.48.22-.71.11-.23.23-.45.36-.65s.27-.4.42-.59.28-.36.4-.53c.12-.16.22-.32.3-.46s.12-.27.12-.39c0-.03,0-.06-.02-.08-.01-.03-.04-.04-.08-.04-.07,0-.18.03-.33.08-.15.05-.32.12-.49.2-.17.08-.34.18-.49.29-.16.11-.27.22-.33.35-.09.16-.19.35-.31.59s-.24.49-.36.75-.25.52-.36.78-.22.48-.3.66c-.07.16-.16.31-.26.44-.11.13-.23.24-.36.33-.13.09-.26.16-.39.21-.13.05-.26.08-.37.08-.13,0-.23-.03-.31-.1-.08-.07-.11-.18-.11-.33,0-.06,0-.14.03-.23s.06-.19.12-.31c.1-.19.2-.4.31-.62.1-.22.22-.48.36-.77.13-.29.29-.62.46-.99.18-.37.38-.8.62-1.29-.08-.07-.14-.15-.2-.25s-.08-.22-.08-.36c0-.13.03-.25.08-.35s.13-.18.23-.24.21-.11.33-.14c.13-.03.26-.05.4-.05s.29.01.44.04c.14.03.27.06.39.11.11.05.21.11.28.18.07.07.11.16.11.25,0,.02,0,.04-.02.07-.01.03-.02.06-.04.09s-.03.06-.04.09c-.01.03-.02.05-.02.07,0,.01,0,.02,0,.02h.02Z"/>
      <path class="cls-2" d="m213.38,86.65c.16-.12.29-.22.4-.28.11-.06.2-.11.28-.14.08-.03.15-.05.21-.05s.13,0,.2,0c.12,0,.2.04.25.13.05.09.08.18.08.27,0,.08-.01.15-.04.22l-1.88,3.91c.27-.2.58-.4.93-.59.35-.19.68-.37,1-.52.32-.15.6-.28.83-.37.23-.1.36-.14.4-.14.14,0,.26.05.37.16s.16.24.16.4c0,.14-.05.3-.16.46-.11.16-.3.32-.57.47-.39.22-.73.4-1.02.56-.29.15-.55.29-.77.41-.22.12-.42.24-.59.34-.17.1-.34.2-.49.31-.15.11-.3.22-.45.34-.15.12-.31.26-.48.42-.13.33-.26.66-.38.96-.12.31-.24.58-.34.81-.1.23-.19.42-.26.57-.07.15-.1.22-.11.24-.45.94-.95,1.41-1.49,1.41-.22,0-.41-.07-.54-.22-.14-.15-.21-.35-.21-.6,0-.23.03-.47.09-.7.06-.23.16-.49.31-.77.15-.28.34-.59.59-.93s.55-.75.92-1.21l1.68-3.39c-.84.99-1.6,1.75-2.28,2.28s-1.32.79-1.91.79c-.19,0-.35-.04-.49-.13-.13-.09-.2-.23-.2-.43,0-.28.07-.6.2-.95.08-.19.16-.36.23-.52s.16-.32.24-.48.17-.33.26-.52c.09-.18.19-.39.3-.62.11-.23.23-.5.36-.8s.28-.66.44-1.07c.11-.22.26-.38.44-.47s.35-.15.52-.15.32.04.44.12.18.19.18.32c0,.07-.01.13-.03.18l-1.53,3.19c-.08.16-.12.29-.12.39,0,.08.03.13.1.13.06,0,.14-.03.23-.09s.18-.13.27-.21l3.46-3.4Z"/>
      <path class="cls-2" d="m219.47,85.87c.21,0,.44.03.68.08.24.06.47.15.67.29.21.13.38.31.52.53.14.22.21.49.21.82,0,.17-.02.36-.07.57-.04.21-.11.44-.2.67.06.07.12.11.19.14.07.03.15.04.23.04.12,0,.25-.03.39-.1.14-.07.29-.15.44-.26.15-.11.3-.23.45-.36.15-.13.29-.27.43-.4.13-.13.25-.26.36-.38.11-.12.2-.22.27-.31.04-.04.09-.06.14-.06.08,0,.15.04.21.12s.09.19.09.34-.04.31-.13.5c-.09.19-.25.39-.48.59-.13.15-.29.31-.46.5-.17.19-.36.37-.55.54-.2.17-.4.31-.61.43-.21.12-.42.18-.64.18-.15,0-.29-.02-.42-.07s-.28-.12-.42-.22c-.2.31-.43.6-.69.85s-.54.48-.86.66c-.32.18-.66.33-1.02.43-.37.1-.76.16-1.17.16-.16,0-.34-.03-.54-.09-.21-.06-.4-.16-.59-.31s-.34-.33-.47-.56c-.13-.23-.19-.51-.19-.84,0-.22.04-.49.11-.8.07-.31.18-.64.33-.97.15-.33.34-.66.56-.99.23-.33.5-.62.81-.88.31-.26.67-.47,1.07-.63.4-.16.85-.24,1.34-.24Zm-.44,1.47c-.26,0-.51.07-.76.2s-.46.3-.65.52-.34.46-.45.73c-.11.27-.17.55-.17.83,0,.11,0,.22.03.35s.05.24.1.35c.05.11.13.2.23.27.1.07.24.11.4.11.26,0,.51-.07.75-.21s.46-.32.65-.54.34-.47.45-.75c.11-.28.17-.56.17-.85,0-.11,0-.23-.02-.35-.01-.12-.05-.23-.1-.33-.05-.1-.13-.18-.23-.25s-.24-.1-.41-.1Z"/>
      <path class="cls-2" d="m231.86,89.96c-.25.28-.53.55-.86.82-.33.27-.66.5-1.01.71-.35.21-.69.37-1.02.5-.33.13-.64.19-.91.19s-.49-.08-.65-.23c-.17-.15-.25-.41-.25-.77,0-.26.04-.56.13-.9-.15.22-.33.44-.54.66s-.47.43-.75.61c-.28.18-.59.33-.94.45-.35.11-.72.17-1.13.17-.18,0-.36-.02-.53-.06-.17-.04-.32-.11-.45-.2-.13-.1-.23-.22-.31-.38-.08-.16-.12-.36-.12-.6,0,0,.01-.09.03-.26s.09-.42.21-.78.31-.81.56-1.38c.25-.56.61-1.25,1.06-2.05.12-.21.25-.36.41-.46.15-.09.32-.14.5-.14.08,0,.16,0,.24.03.08.02.16.05.24.09.07.04.13.09.18.16.04.06.07.14.07.22,0,.06,0,.11-.02.16-.03.09-.09.22-.18.37-.09.15-.2.33-.32.53s-.25.41-.39.64c-.14.23-.26.47-.38.71-.12.25-.22.5-.3.75-.08.25-.13.5-.14.74,0,.1.03.19.08.28.06.08.15.12.28.12.36,0,.71-.1,1.04-.3.33-.2.63-.45.91-.75s.53-.62.76-.96c.23-.34.42-.66.57-.94.11-.19.2-.39.28-.61s.17-.42.26-.6c.1-.18.2-.34.33-.46.12-.12.28-.18.46-.18.2,0,.36.06.48.19s.18.28.18.46c0,.1-.04.24-.11.42-.08.18-.17.38-.28.6-.12.23-.24.47-.37.73-.13.26-.26.52-.37.78s-.21.53-.29.78-.11.49-.11.71c0,.2.12.3.37.3.17,0,.39-.05.65-.15.26-.1.53-.24.81-.42.28-.18.56-.4.85-.64.28-.25.53-.51.75-.8l.08,1.14Z"/>
      <path class="cls-2" d="m234.69,90.8c0,.17-.03.34-.1.5-.06.16-.15.29-.26.41-.11.12-.24.22-.38.29-.15.07-.3.1-.46.1-.13,0-.26-.03-.38-.08-.12-.05-.22-.12-.31-.21-.09-.09-.15-.19-.21-.31-.05-.12-.08-.25-.08-.38,0-.17.03-.33.1-.48.06-.15.15-.29.26-.41.11-.12.24-.21.39-.28.15-.07.31-.1.49-.1.27,0,.5.09.67.28.17.18.26.41.26.69Z"/>
      <path class="cls-2" d="m240.82,90.8c0,.17-.03.34-.1.5-.06.16-.15.29-.26.41-.11.12-.24.22-.38.29-.15.07-.3.1-.46.1-.13,0-.26-.03-.38-.08-.12-.05-.22-.12-.31-.21-.09-.09-.15-.19-.21-.31-.05-.12-.08-.25-.08-.38,0-.17.03-.33.1-.48.06-.15.15-.29.26-.41.11-.12.24-.21.39-.28.15-.07.31-.1.49-.1.27,0,.5.09.67.28.17.18.26.41.26.69Z"/>
      <path class="cls-2" d="m246.96,90.8c0,.17-.03.34-.1.5-.06.16-.15.29-.26.41-.11.12-.24.22-.38.29-.15.07-.3.1-.46.1-.13,0-.26-.03-.38-.08-.12-.05-.22-.12-.31-.21-.09-.09-.15-.19-.21-.31-.05-.12-.08-.25-.08-.38,0-.17.03-.33.1-.48.06-.15.15-.29.26-.41.11-.12.24-.21.39-.28.15-.07.31-.1.49-.1.27,0,.5.09.67.28.17.18.26.41.26.69Z"/>
    </g>
    <g>
      <path class="cls-1" d="m116.49,50.43c1.16-2.17,2.8-3.86,4.93-5.07,2.13-1.21,4.58-1.82,7.34-1.82,3.51,0,6.47.94,8.86,2.81,2.39,1.88,3.94,4.42,4.63,7.64h-8.42c-.51-1.06-1.2-1.88-2.1-2.43-.89-.56-1.92-.84-3.09-.84-1.81,0-3.25.65-4.33,1.94s-1.62,3.01-1.62,5.17.54,3.92,1.62,5.21c1.08,1.29,2.52,1.94,4.33,1.94,1.17,0,2.2-.28,3.09-.84.89-.56,1.59-1.37,2.1-2.43h8.42c-.69,3.22-2.24,5.77-4.63,7.64-2.39,1.88-5.35,2.81-8.86,2.81-2.77,0-5.22-.61-7.34-1.82-2.13-1.21-3.77-2.9-4.93-5.07-1.16-2.17-1.74-4.65-1.74-7.44s.58-5.23,1.74-7.4Z"/>
      <path class="cls-1" d="m156.99,50.49c1.25-.74,2.59-1.12,4.03-1.12v8.34h-2.2c-1.7,0-2.97.33-3.79,1-.83.67-1.24,1.82-1.24,3.47v9.78h-7.82v-22.39h7.82v3.95c.88-1.28,1.94-2.29,3.19-3.03Z"/>
      <path class="cls-1" d="m185.09,62.34h-14.81c.08,1.22.42,2.14,1.02,2.73.6.6,1.36.9,2.3.9,1.3,0,2.24-.59,2.79-1.76h8.34c-.35,1.54-1.02,2.92-2.02,4.13-1,1.21-2.26,2.16-3.77,2.85-1.52.69-3.19,1.04-5.03,1.04-2.21,0-4.17-.47-5.89-1.4-1.72-.93-3.06-2.26-4.03-3.99-.97-1.73-1.46-3.76-1.46-6.11s.48-4.37,1.44-6.09c.96-1.72,2.3-3.04,4.01-3.97,1.72-.93,3.69-1.4,5.93-1.4s4.16.45,5.87,1.36c1.7.9,3.03,2.2,3.99,3.89.96,1.69,1.44,3.68,1.44,5.97,0,.61-.04,1.22-.12,1.84Zm-7.86-3.79c0-.96-.32-1.71-.96-2.26-.64-.54-1.44-.82-2.39-.82s-1.74.26-2.36.78c-.61.52-1.01,1.28-1.2,2.3h6.91Z"/>
      <path class="cls-1" d="m199.14,64.58l4.19-15.01h8.34l-7.7,22.39h-9.74l-7.7-22.39h8.34l4.27,15.01Z"/>
      <path class="cls-1" d="m214.92,46.36c-.84-.76-1.26-1.71-1.26-2.85s.42-2.14,1.26-2.91c.84-.77,1.95-1.16,3.33-1.16s2.45.39,3.29,1.16c.84.77,1.26,1.74,1.26,2.91s-.42,2.1-1.26,2.85c-.84.76-1.94,1.14-3.29,1.14s-2.49-.38-3.33-1.14Zm7.2,3.21v22.39h-7.82v-22.39h7.82Z"/>
      <path class="cls-1" d="m238.69,56.08h-3.51v15.89h-7.86v-15.89h-2.43v-6.51h2.43v-.2c0-2.87.84-5.08,2.53-6.61,1.69-1.53,4.12-2.29,7.28-2.29.64,0,1.13.01,1.48.04v6.67c-.21-.03-.51-.04-.88-.04-.85,0-1.48.19-1.88.58-.4.39-.63,1-.68,1.86h3.51v6.51Z"/>
      <path class="cls-1" d="m265.59,49.57l-14.21,33.05h-8.5l5.35-11.62-9.18-21.43h8.7l4.71,12.69,4.55-12.69h8.58Z"/>
    </g>
  </g>
</svg>